<svg width="340" height="230" viewBox="0 0 340 230" fill="none" xmlns="http://www.w3.org/2000/svg">
<path d="M313.588 216.345C313.588 216.413 248.485 216.463 168.195 216.463C87.9055 216.463 22.7842 216.413 22.7842 216.345C22.7842 216.277 87.8738 216.228 168.195 216.228C248.517 216.228 313.588 216.282 313.588 216.345Z" fill="#263238"/>
<path d="M184.638 96.3708C184.638 96.3708 201.253 100.737 206.507 118.207L199.467 121.33C199.467 121.33 197.848 109.176 181.388 103.883C172.48 101.017 160.684 105.058 157.42 108.765L149.491 105.352C154.791 99.5348 167.869 91.8146 184.638 96.3708Z" fill="#2A64F6"/>
<path d="M211.027 113.804L193.465 119.613L206.942 126.347L211.027 113.804Z" fill="#2A64F6"/>
<path d="M163.912 216.345L101.805 216.309C94.3342 216.309 88.2822 209.981 88.2822 202.13L88.314 38.9803C88.314 31.1516 94.3796 24.8055 101.85 24.8101L163.957 24.8462C171.428 24.8462 177.48 31.2013 177.48 39.0255L177.448 202.197C177.448 210.003 171.387 216.35 163.912 216.345Z" fill="#263238"/>
<path d="M163.894 30.6182H151.853C150.235 30.6182 148.925 32.0511 148.925 33.8184V36.092C148.925 37.8593 147.614 39.2921 146.001 39.2921H122.532C120.918 39.2921 119.608 37.8548 119.608 36.0874V33.7913C119.608 32.024 118.297 30.5911 116.684 30.5911H112.449H101.909C96.6734 30.5911 92.4302 35.0343 92.4302 40.5351L92.3984 199.779C92.3984 205.262 96.6371 209.723 101.869 209.723L163.853 209.764C169.084 209.764 173.332 205.321 173.332 199.82L173.364 40.5758C173.364 35.0659 169.125 30.6228 163.894 30.6182Z" fill="white"/>
<path d="M105.522 197.122V201.795C105.526 201.889 105.504 201.982 105.459 202.064C105.414 202.146 105.347 202.214 105.266 202.26C105.184 202.307 105.091 202.33 104.998 202.328C104.904 202.326 104.812 202.298 104.733 202.247L101.048 199.91C100.975 199.864 100.915 199.8 100.873 199.724C100.831 199.648 100.81 199.563 100.81 199.476C100.81 199.39 100.831 199.305 100.873 199.229C100.915 199.153 100.975 199.089 101.048 199.043L104.72 196.688C104.797 196.634 104.889 196.603 104.983 196.598C105.077 196.593 105.171 196.615 105.254 196.659C105.337 196.704 105.406 196.771 105.453 196.853C105.501 196.934 105.524 197.027 105.522 197.122Z" fill="#E0E0E0"/>
<path d="M135.8 199.413C135.8 200.05 135.609 200.673 135.254 201.202C134.898 201.732 134.393 202.144 133.802 202.387C133.211 202.631 132.562 202.694 131.935 202.569C131.308 202.444 130.733 202.137 130.281 201.686C129.829 201.235 129.522 200.661 129.398 200.036C129.273 199.411 129.338 198.763 129.582 198.174C129.827 197.586 130.241 197.083 130.773 196.729C131.304 196.375 131.929 196.186 132.568 196.186C133.426 196.187 134.248 196.528 134.854 197.133C135.46 197.738 135.8 198.558 135.8 199.413Z" fill="#E0E0E0"/>
<path d="M164.107 196.606H159.841C159.373 196.606 158.993 196.985 158.993 197.451V201.718C158.993 202.185 159.373 202.564 159.841 202.564H164.107C164.575 202.564 164.954 202.185 164.954 201.718V197.451C164.954 196.985 164.575 196.606 164.107 196.606Z" fill="#E0E0E0"/>
<path d="M114.929 88.1262H119.916L118.946 87.3895C119.68 89.8001 120.416 92.2108 121.154 94.6215L124.649 106.102C124.916 107.006 125.188 107.865 125.456 108.746C125.518 108.956 125.646 109.14 125.82 109.273C125.995 109.405 126.207 109.479 126.426 109.483L140.688 109.443H142.732C144.024 109.443 144.029 107.436 142.732 107.44L128.471 107.476H126.426L127.396 108.209L125.193 100.977L121.693 89.5003L120.886 86.8516C120.824 86.6421 120.696 86.4578 120.522 86.3253C120.347 86.1929 120.135 86.1192 119.916 86.1148H114.929C113.633 86.1148 113.633 88.1217 114.929 88.1217V88.1262Z" fill="#263238"/>
<path d="M145.91 90.68C144.97 94.8746 144.03 99.0692 143.091 103.264C142.959 103.865 142.823 104.471 142.687 105.072L143.417 104.52L137.311 104.462L127.519 104.367L125.279 104.344L126.004 104.895C124.699 100.743 123.39 96.5892 122.079 92.4338L121.526 90.68L120.796 91.6292H146.636C146.826 91.6145 147.003 91.5289 147.133 91.3894C147.262 91.2499 147.334 91.0668 147.334 90.8767C147.334 90.6866 147.262 90.5035 147.133 90.364C147.003 90.2245 146.826 90.1388 146.636 90.1241H120.796C120.68 90.1257 120.566 90.1536 120.463 90.2057C120.36 90.2578 120.27 90.3326 120.2 90.4246C120.13 90.5165 120.082 90.6231 120.059 90.7363C120.037 90.8495 120.041 90.9663 120.07 91.0778C121.379 95.2302 122.688 99.3841 123.996 103.539C124.182 104.123 124.368 104.71 124.549 105.293C124.597 105.451 124.693 105.589 124.824 105.689C124.955 105.789 125.114 105.845 125.279 105.849L131.386 105.908L141.178 106.003L143.417 106.025C143.581 106.022 143.74 105.967 143.87 105.868C144.001 105.769 144.096 105.631 144.142 105.474L146.958 92.8858L147.366 91.0778C147.574 90.1331 146.123 89.7308 145.91 90.68Z" fill="#263238"/>
<path d="M125.936 91.3219C126.729 95.9097 127.749 100.461 128.533 105.049C128.696 106.003 130.152 105.596 129.988 104.651C129.195 100.059 128.175 95.5119 127.391 90.9196C127.228 89.9704 125.772 90.3727 125.936 91.3219Z" fill="#263238"/>
<path d="M133.901 91.123C133.977 95.8298 134.057 100.535 134.142 105.239C134.142 106.206 135.665 106.211 135.651 105.239C135.576 100.535 135.496 95.8298 135.411 91.123C135.411 90.1557 133.888 90.1512 133.901 91.123Z" fill="#263238"/>
<path d="M141.259 105.411L143.176 92.8722L143.448 91.0642C143.494 90.8721 143.465 90.6698 143.368 90.4979C143.27 90.326 143.111 90.1973 142.922 90.1376C142.732 90.094 142.532 90.1244 142.364 90.2227C142.195 90.321 142.071 90.4797 142.016 90.6664C141.375 94.8429 140.737 99.0224 140.103 103.205C140.012 103.802 139.917 104.398 139.826 105.013C139.78 105.205 139.809 105.407 139.906 105.579C140.004 105.751 140.163 105.88 140.352 105.94C140.545 105.992 140.751 105.967 140.925 105.869C141.099 105.77 141.227 105.607 141.281 105.415L141.259 105.411Z" fill="#263238"/>
<path d="M122.441 96.0317H145.257C145.447 96.017 145.625 95.9313 145.754 95.7918C145.884 95.6523 145.956 95.4692 145.956 95.2791C145.956 95.089 145.884 94.9059 145.754 94.7664C145.625 94.6269 145.447 94.5412 145.257 94.5266H122.441C122.251 94.5412 122.073 94.6269 121.944 94.7664C121.814 94.9059 121.742 95.089 121.742 95.2791C121.742 95.4692 121.814 95.6523 121.944 95.7918C122.073 95.9313 122.251 96.017 122.441 96.0317Z" fill="#263238"/>
<path d="M124.581 101.311H144.337C144.537 101.311 144.728 101.232 144.869 101.091C145.01 100.951 145.089 100.76 145.089 100.561C145.089 100.362 145.01 100.171 144.869 100.03C144.728 99.8895 144.537 99.8104 144.337 99.8104H124.581C124.381 99.8104 124.19 99.8895 124.049 100.03C123.907 100.171 123.828 100.362 123.828 100.561C123.828 100.76 123.907 100.951 124.049 101.091C124.19 101.232 124.381 101.311 124.581 101.311Z" fill="#263238"/>
<path d="M142.723 116.082C144.205 116.082 145.407 114.884 145.407 113.407C145.407 111.929 144.205 110.731 142.723 110.731C141.241 110.731 140.039 111.929 140.039 113.407C140.039 114.884 141.241 116.082 142.723 116.082Z" fill="#263238"/>
<path d="M127.962 116.082C129.444 116.082 130.646 114.884 130.646 113.407C130.646 111.929 129.444 110.731 127.962 110.731C126.48 110.731 125.278 111.929 125.278 113.407C125.278 114.884 126.48 116.082 127.962 116.082Z" fill="#263238"/>
<path d="M122.817 77.3686C122.817 77.3686 111.778 76.998 105.305 86.7928L109.076 90.0156C109.076 90.0156 112.327 82.8288 123.443 82.5982C129.463 82.4762 133.597 85.9701 134.925 88.8539L141.748 88.7364C139.549 84.1757 133.987 77.6488 122.817 77.3686Z" fill="#2A64F6"/>
<path d="M103.845 83.6017L113.587 90.4133L104.738 92.2032L103.845 83.6017Z" fill="#2A64F6"/>
<path d="M168.35 47.392C168.351 47.6085 168.288 47.8205 168.168 48.0009C168.048 48.1814 167.877 48.3223 167.676 48.4058C167.476 48.4893 167.255 48.5116 167.042 48.4699C166.829 48.4282 166.633 48.3244 166.479 48.1716C166.325 48.0188 166.22 47.8239 166.178 47.6116C166.135 47.3993 166.156 47.1791 166.239 46.979C166.322 46.7788 166.463 46.6077 166.643 46.4873C166.824 46.3669 167.036 46.3027 167.253 46.3027C167.543 46.3027 167.822 46.4173 168.027 46.6215C168.233 46.8256 168.349 47.1027 168.35 47.392Z" fill="#263238"/>
<path d="M167.253 51.4736C167.859 51.4736 168.35 50.9838 168.35 50.3797C168.35 49.7756 167.859 49.2859 167.253 49.2859C166.647 49.2859 166.156 49.7756 166.156 50.3797C166.156 50.9838 166.647 51.4736 167.253 51.4736Z" fill="#263238"/>
<path d="M167.253 54.4612C167.859 54.4612 168.35 53.9715 168.35 53.3674C168.35 52.7633 167.859 52.2736 167.253 52.2736C166.647 52.2736 166.156 52.7633 166.156 53.3674C166.156 53.9715 166.647 54.4612 167.253 54.4612Z" fill="#263238"/>
<path d="M101.928 46.8722L97.4531 50.217H98.591V54.2127L101.003 54.2217V51.2295L102.907 51.2204V54.2127H105.237V50.1763L106.397 50.1628L101.928 46.8722Z" fill="#263238"/>
<path d="M173.65 58.4257C173.65 58.4891 155.394 58.5435 132.882 58.5435C110.369 58.5435 92.1133 58.4891 92.1133 58.4257C92.1133 58.3622 110.364 58.3078 132.882 58.3078C155.399 58.3078 173.65 58.3622 173.65 58.4257Z" fill="#E0E0E0"/>
<path d="M132.02 133.674H131.294C128.841 133.674 126.852 135.657 126.852 138.104V173.74C126.852 176.186 128.841 178.169 131.294 178.169H132.02C134.473 178.169 136.462 176.186 136.462 173.74V138.104C136.462 135.657 134.473 133.674 132.02 133.674Z" fill="#E0E0E0"/>
<path d="M150.37 156.979C150.381 160.035 149.482 163.026 147.788 165.572C146.093 168.119 143.679 170.107 140.851 171.285C138.023 172.463 134.908 172.778 131.9 172.19C128.892 171.602 126.127 170.138 123.954 167.982C121.781 165.826 120.299 163.077 119.694 160.081C119.089 157.085 119.39 153.977 120.557 151.151C121.724 148.326 123.706 145.909 126.252 144.207C128.797 142.504 131.792 141.593 134.857 141.589C136.89 141.583 138.903 141.977 140.782 142.748C142.662 143.519 144.371 144.651 145.811 146.08C147.252 147.509 148.396 149.207 149.178 151.078C149.961 152.948 150.366 154.953 150.37 156.979Z" fill="#2A64F6"/>
<path d="M147.111 157.142C147.116 159.466 146.429 161.739 145.139 163.674C143.848 165.608 142.011 167.118 139.859 168.012C137.708 168.906 135.339 169.144 133.053 168.696C130.766 168.248 128.663 167.134 127.011 165.495C125.359 163.856 124.231 161.766 123.771 159.488C123.31 157.21 123.537 154.847 124.423 152.698C125.309 150.548 126.814 148.709 128.748 147.412C130.682 146.116 132.958 145.42 135.288 145.413C136.837 145.408 138.372 145.708 139.805 146.295C141.238 146.882 142.54 147.745 143.638 148.834C144.736 149.923 145.608 151.218 146.204 152.643C146.8 154.069 147.108 155.598 147.111 157.142Z" fill="#2A64F6"/>
<path d="M146.685 156.984C146.671 156.922 146.664 156.858 146.663 156.794C146.663 156.654 146.636 156.469 146.622 156.234C146.622 156.11 146.613 155.974 146.595 155.827C146.595 155.673 146.545 155.51 146.513 155.334C146.46 154.925 146.377 154.52 146.264 154.123C145.982 153.028 145.538 151.981 144.945 151.017C144.083 149.603 142.932 148.386 141.567 147.446C140.201 146.506 138.652 145.864 137.02 145.562C134.966 145.189 132.849 145.367 130.887 146.077C130.364 146.265 129.855 146.489 129.364 146.746C129.119 146.882 128.883 147.035 128.638 147.198C128.392 147.342 128.157 147.503 127.936 147.682C127.469 148.027 127.025 148.401 126.607 148.803C126.198 149.23 125.816 149.683 125.465 150.159C124.739 151.13 124.176 152.213 123.797 153.363C123.412 154.55 123.21 155.787 123.198 157.034C123.215 158.28 123.42 159.518 123.806 160.704C124.188 161.854 124.755 162.934 125.483 163.904C125.834 164.381 126.217 164.834 126.63 165.26C127.048 165.662 127.492 166.036 127.958 166.381C128.414 166.716 128.892 167.018 129.391 167.285C129.883 167.54 130.392 167.762 130.914 167.949C132.879 168.656 134.998 168.829 137.052 168.451C138.841 168.122 140.527 167.379 141.975 166.282C143.174 165.378 144.188 164.255 144.963 162.973C145.552 162.007 145.994 160.959 146.273 159.863C146.385 159.466 146.467 159.061 146.518 158.652C146.545 158.475 146.581 158.313 146.595 158.164C146.608 158.014 146.595 157.879 146.622 157.752C146.64 157.517 146.654 157.332 146.663 157.196C146.664 157.132 146.671 157.069 146.685 157.006C146.692 157.07 146.692 157.133 146.685 157.196V157.757C146.685 157.879 146.685 158.019 146.685 158.168C146.685 158.317 146.645 158.485 146.617 158.665C146.575 159.078 146.5 159.486 146.391 159.886C146.131 161.001 145.698 162.068 145.108 163.05C144.249 164.495 143.093 165.742 141.715 166.709C140.337 167.676 138.77 168.34 137.116 168.659C135.025 169.054 132.867 168.883 130.864 168.166C130.331 167.978 129.811 167.753 129.309 167.493C128.8 167.227 128.31 166.925 127.845 166.589C127.368 166.238 126.914 165.858 126.485 165.45C126.066 165.024 125.675 164.571 125.315 164.094C124.569 163.104 123.989 162.001 123.597 160.826C122.772 158.396 122.772 155.762 123.597 153.332C123.984 152.156 124.56 151.051 125.302 150.059C125.659 149.58 126.05 149.127 126.471 148.703C126.899 148.293 127.353 147.91 127.831 147.56C128.058 147.378 128.297 147.213 128.548 147.067C128.797 146.922 129.037 146.764 129.291 146.615C129.793 146.354 130.313 146.127 130.846 145.937C132.847 145.216 135.006 145.041 137.097 145.431C138.911 145.772 140.62 146.534 142.084 147.655C143.297 148.571 144.318 149.715 145.09 151.022C145.684 152.003 146.122 153.071 146.386 154.186C146.493 154.588 146.569 154.997 146.613 155.411C146.64 155.587 146.667 155.754 146.681 155.904V156.319C146.681 156.554 146.681 156.74 146.681 156.88C146.684 156.914 146.686 156.949 146.685 156.984Z" fill="#263238"/>
<g opacity="0.3">
<path d="M146.59 157.106C146.522 157.106 146.472 156.591 146.282 155.691C146.018 154.423 145.559 153.203 144.922 152.075C144.485 151.308 143.965 150.591 143.371 149.937C142.69 149.195 141.916 148.544 141.068 147.998C140.614 147.704 140.138 147.444 139.645 147.221C138.597 146.743 137.483 146.426 136.34 146.28C135.739 146.206 135.132 146.177 134.527 146.195C133.925 146.216 133.327 146.284 132.736 146.398C132.161 146.505 131.596 146.656 131.045 146.85C130.512 147.039 129.995 147.27 129.499 147.542C129.024 147.798 128.57 148.089 128.139 148.414C127.327 149.015 126.596 149.716 125.963 150.502C125.414 151.193 124.943 151.942 124.558 152.735C123.998 153.9 123.622 155.144 123.443 156.423C123.311 157.327 123.293 157.852 123.225 157.856C123.157 157.861 123.071 157.341 123.094 156.392C123.151 155.041 123.458 153.712 124 152.473C125.035 150.069 126.833 148.071 129.118 146.787C129.65 146.489 130.205 146.233 130.778 146.023C131.367 145.803 131.974 145.631 132.591 145.508C133.229 145.383 133.877 145.309 134.527 145.286C135.176 145.268 135.827 145.299 136.471 145.381C137.096 145.462 137.713 145.594 138.316 145.774C139.462 146.116 140.549 146.629 141.54 147.297C142.435 147.898 143.245 148.617 143.947 149.435C144.554 150.15 145.076 150.933 145.502 151.768C146.113 152.972 146.498 154.277 146.64 155.619C146.712 156.582 146.644 157.106 146.59 157.106Z" fill="black"/>
</g>
<g opacity="0.3">
<path d="M136.222 164.008L136.254 166.056L134.418 166.087L134.386 164.089C132.573 164.008 130.818 163.47 129.794 162.697L130.769 160.437C131.835 161.152 133.069 161.58 134.35 161.68L134.3 158.625C132.256 158.173 129.971 157.517 129.93 154.9C129.898 152.961 131.29 151.284 134.182 150.9L134.15 148.866L135.986 148.839L136.018 150.832C137.331 150.886 138.613 151.248 139.758 151.89L138.879 154.15C138.007 153.665 137.047 153.358 136.054 153.246L136.104 156.356C138.149 156.808 140.397 157.445 140.438 160.021C140.47 161.956 139.101 163.624 136.222 164.008ZM134.259 155.944L134.218 153.345C133.248 153.58 132.858 154.118 132.881 154.724C132.904 155.33 133.448 155.714 134.259 155.953V155.944ZM137.487 160.306C137.487 159.669 136.938 159.33 136.127 159.063L136.168 161.59C137.102 161.386 137.496 160.903 137.487 160.315V160.306Z" fill="black"/>
</g>
<path d="M126.499 135.46H108.619V175.308H126.499V135.46Z" fill="white"/>
<path d="M225.733 153.494C226.456 156.68 226.215 160.007 225.041 163.055C223.866 166.104 221.811 168.736 219.135 170.619C216.459 172.503 213.283 173.552 210.009 173.635C206.735 173.717 203.509 172.829 200.742 171.083C197.974 169.337 195.788 166.812 194.46 163.827C193.132 160.841 192.723 157.53 193.283 154.313C193.844 151.096 195.349 148.116 197.609 145.752C199.868 143.388 202.781 141.746 205.977 141.033C208.095 140.557 210.286 140.503 212.425 140.872C214.564 141.241 216.609 142.026 218.444 143.183C220.279 144.341 221.867 145.847 223.117 147.616C224.368 149.385 225.257 151.383 225.733 153.494Z" fill="#2A64F6"/>
<path d="M222.37 154.417C222.921 156.843 222.738 159.379 221.844 161.702C220.949 164.025 219.384 166.031 217.345 167.467C215.306 168.902 212.886 169.702 210.391 169.766C207.897 169.829 205.439 169.153 203.329 167.823C201.22 166.494 199.554 164.569 198.542 162.295C197.53 160.02 197.217 157.497 197.644 155.046C198.07 152.594 199.217 150.323 200.939 148.522C202.66 146.72 204.879 145.468 207.314 144.925C208.928 144.562 210.598 144.52 212.228 144.801C213.858 145.081 215.416 145.68 216.814 146.561C218.212 147.442 219.422 148.59 220.376 149.938C221.329 151.286 222.006 152.808 222.37 154.417Z" fill="#2A64F6"/>
<path d="M221.889 154.349C221.86 154.288 221.837 154.224 221.821 154.159L221.649 153.585L221.526 153.165C221.472 153.011 221.399 152.848 221.331 152.672C221.178 152.259 220.996 151.857 220.787 151.47C220.239 150.391 219.532 149.401 218.688 148.532C216.682 146.438 214.009 145.103 211.126 144.757C208.242 144.411 205.328 145.074 202.881 146.633C202.38 146.95 201.901 147.3 201.448 147.682C201.221 147.881 200.995 148.098 200.791 148.301C200.568 148.508 200.36 148.732 200.17 148.97C199.763 149.436 199.389 149.93 199.05 150.448C198.719 150.984 198.426 151.541 198.171 152.116C197.64 153.297 197.304 154.557 197.178 155.845C196.893 158.514 197.495 161.203 198.891 163.497C199.557 164.609 200.399 165.605 201.385 166.449C202.324 167.286 203.396 167.961 204.558 168.447C205.112 168.696 205.683 168.904 206.267 169.07C206.839 169.222 207.421 169.336 208.008 169.409C210.889 169.778 213.809 169.138 216.269 167.599C218.729 166.06 220.578 163.717 221.499 160.971C221.892 159.829 222.109 158.634 222.143 157.427C222.166 156.987 222.158 156.546 222.12 156.107C222.12 155.917 222.12 155.741 222.084 155.578C222.048 155.415 222.038 155.275 222.016 155.126C221.98 154.878 221.952 154.674 221.93 154.534C221.917 154.467 221.909 154.399 221.907 154.331C221.93 154.395 221.947 154.462 221.957 154.53C221.984 154.674 222.02 154.869 222.07 155.117C222.091 155.25 222.119 155.4 222.152 155.569C222.152 155.732 222.179 155.908 222.197 156.103C222.246 156.544 222.261 156.988 222.242 157.431C222.229 158.652 222.025 159.862 221.64 161.02C221.081 162.724 220.166 164.29 218.954 165.615C217.743 166.94 216.263 167.993 214.613 168.704C212.525 169.6 210.235 169.921 207.981 169.635C207.38 169.564 206.784 169.451 206.199 169.296C205.603 169.127 205.02 168.915 204.454 168.664C203.876 168.41 203.316 168.118 202.776 167.791C202.236 167.44 201.721 167.052 201.235 166.63C200.226 165.772 199.365 164.755 198.687 163.619C197.992 162.448 197.478 161.179 197.164 159.854C196.883 158.517 196.805 157.146 196.933 155.786C197.064 154.471 197.408 153.185 197.953 151.98C198.215 151.392 198.518 150.823 198.86 150.276C199.209 149.752 199.592 149.25 200.007 148.776C200.201 148.533 200.413 148.305 200.641 148.093C200.868 147.885 201.095 147.664 201.312 147.465C201.774 147.075 202.263 146.718 202.776 146.398C204.696 145.184 206.905 144.502 209.177 144.423C210.976 144.366 212.767 144.691 214.43 145.377C216.093 146.063 217.591 147.093 218.824 148.4C219.668 149.284 220.37 150.291 220.905 151.388C221.11 151.783 221.285 152.193 221.431 152.613C221.499 152.794 221.567 152.957 221.617 153.11C221.667 153.264 221.694 153.409 221.726 153.562L221.875 154.141C221.886 154.21 221.891 154.279 221.889 154.349Z" fill="#263238"/>
<g opacity="0.3">
<path d="M221.821 154.516C221.749 154.516 221.576 154.005 221.168 153.11C220.595 151.851 219.83 150.688 218.902 149.661C218.267 148.965 217.559 148.339 216.789 147.795C215.905 147.178 214.945 146.676 213.933 146.303C212.821 145.892 211.654 145.647 210.47 145.575C209.847 145.535 209.223 145.544 208.602 145.603C207.968 145.665 207.339 145.774 206.721 145.928C206.102 146.092 205.496 146.3 204.907 146.552C204.334 146.8 203.78 147.094 203.253 147.429C202.251 148.063 201.347 148.84 200.569 149.734C199.862 150.547 199.265 151.448 198.792 152.414C198.379 153.262 198.06 154.151 197.84 155.067C197.53 156.412 197.427 157.796 197.536 159.172C197.613 160.152 197.717 160.695 197.64 160.713C197.563 160.731 197.359 160.216 197.187 159.217C196.919 157.799 196.919 156.345 197.187 154.927C197.581 152.802 198.518 150.814 199.907 149.155C200.304 148.671 200.738 148.218 201.203 147.799C201.688 147.364 202.206 146.968 202.754 146.615C203.32 146.249 203.914 145.928 204.531 145.657C205.168 145.381 205.826 145.154 206.498 144.979C207.171 144.808 207.856 144.69 208.547 144.626C209.219 144.572 209.893 144.572 210.565 144.626C211.215 144.671 211.861 144.768 212.496 144.915C213.105 145.052 213.702 145.237 214.282 145.467C215.355 145.887 216.366 146.45 217.288 147.139C218.086 147.744 218.812 148.439 219.45 149.209C220.37 150.324 221.076 151.597 221.535 152.966C221.826 153.928 221.875 154.489 221.821 154.516Z" fill="black"/>
</g>
<g opacity="0.3">
<path d="M212.613 164.103L213.126 166.236L211.217 166.688L210.718 164.618C208.801 164.953 206.851 164.794 205.605 164.225L206.099 161.658C207.377 162.152 208.763 162.308 210.12 162.11L209.358 158.946C207.119 158.946 204.585 158.796 203.918 156.075C203.438 154.059 204.49 151.98 207.423 150.918L206.915 148.807L208.823 148.355L209.322 150.43C210.704 150.18 212.126 150.26 213.47 150.665L213.08 153.232C212.052 152.926 210.974 152.826 209.907 152.939L210.682 156.175C212.922 156.175 215.415 156.315 216.059 158.995C216.566 160.971 215.524 163.032 212.613 164.103ZM208.692 156.152L208.044 153.44C207.087 153.892 206.82 154.557 206.969 155.18C207.119 155.804 207.79 156.089 208.696 156.152H208.692ZM213.067 159.94C212.908 159.276 212.264 159.036 211.376 158.955L212.006 161.581C212.922 161.156 213.221 160.564 213.067 159.94Z" fill="black"/>
</g>
<path d="M189.997 146.272C188.966 148.446 187.516 150.397 185.729 152.013C183.942 153.628 181.853 154.877 179.582 155.688C177.311 156.499 174.902 156.856 172.493 156.739C170.083 156.621 167.72 156.032 165.54 155.004C164.562 154.545 163.626 154.002 162.742 153.381C159.899 151.362 157.692 148.577 156.38 145.351C155.069 142.126 154.707 138.594 155.337 135.171C155.967 131.748 157.563 128.574 159.937 126.024C162.312 123.473 165.367 121.65 168.744 120.769C172.122 119.888 175.681 119.985 179.004 121.05C182.328 122.114 185.278 124.101 187.509 126.778C189.74 129.455 191.159 132.711 191.599 136.164C192.04 139.616 191.484 143.123 189.997 146.272Z" fill="#2A64F6"/>
<path d="M186.416 144.798C185.239 147.301 183.345 149.4 180.971 150.829C178.598 152.258 175.853 152.953 173.083 152.826C170.313 152.699 167.644 151.756 165.412 150.115C163.181 148.475 161.487 146.211 160.546 143.611C159.605 141.01 159.459 138.19 160.127 135.507C160.794 132.824 162.245 130.398 164.295 128.538C166.345 126.677 168.903 125.464 171.645 125.053C174.387 124.643 177.189 125.052 179.697 126.23C181.362 127.009 182.856 128.107 184.094 129.462C185.333 130.817 186.292 132.402 186.915 134.126C187.539 135.85 187.816 137.68 187.731 139.512C187.645 141.343 187.198 143.139 186.416 144.798Z" fill="#2A64F6"/>
<path d="M186.039 144.409C186.06 144.337 186.084 144.266 186.112 144.197C186.171 144.043 186.253 143.84 186.352 143.578L186.534 143.126C186.588 142.958 186.638 142.764 186.697 142.561C186.847 142.095 186.962 141.619 187.041 141.137C187.301 139.82 187.357 138.471 187.209 137.137C186.883 133.934 185.45 130.944 183.156 128.679C180.862 126.413 177.849 125.014 174.634 124.72C173.977 124.657 173.316 124.638 172.657 124.666C172.326 124.666 171.995 124.734 171.66 124.765C171.322 124.795 170.987 124.849 170.658 124.928C169.286 125.176 167.965 125.651 166.75 126.334C165.476 127.008 164.32 127.884 163.327 128.928C161.253 131.078 159.944 133.848 159.601 136.811C159.426 138.239 159.484 139.686 159.773 141.096C160.02 142.463 160.493 143.78 161.174 144.992C161.49 145.587 161.849 146.158 162.249 146.701C162.647 147.224 163.08 147.719 163.545 148.183C165.298 149.939 167.489 151.198 169.892 151.831C171.798 152.327 173.787 152.416 175.73 152.092C177.673 151.768 179.526 151.038 181.166 149.951C182.293 149.214 183.302 148.312 184.158 147.275C184.479 146.905 184.773 146.512 185.038 146.1C185.16 145.923 185.278 145.765 185.369 145.616L185.609 145.187L185.935 144.608C185.969 144.54 186.008 144.475 186.053 144.414C186.029 144.486 185.999 144.555 185.962 144.622C185.885 144.766 185.786 144.965 185.659 145.214L185.432 145.666C185.341 145.819 185.228 145.982 185.11 146.163C184.852 146.583 184.562 146.983 184.244 147.361C183.397 148.421 182.391 149.345 181.261 150.1C179.605 151.219 177.73 151.975 175.758 152.316C173.787 152.657 171.766 152.577 169.828 152.08C167.941 151.603 166.175 150.737 164.643 149.539C163.111 148.341 161.848 146.837 160.934 145.123C160.6 144.506 160.308 143.867 160.059 143.211C159.824 142.537 159.637 141.846 159.497 141.146C159.201 139.708 159.142 138.232 159.32 136.775C159.672 133.747 161.01 130.918 163.128 128.72C164.142 127.656 165.322 126.763 166.623 126.076C167.253 125.73 167.905 125.428 168.577 125.172C169.243 124.948 169.923 124.767 170.613 124.63C170.948 124.551 171.289 124.497 171.633 124.467C171.977 124.435 172.317 124.386 172.653 124.372C175.861 124.241 179.022 125.183 181.633 127.048C183.251 128.221 184.6 129.723 185.591 131.455C186.582 133.188 187.193 135.11 187.381 137.096C187.518 138.446 187.445 139.809 187.164 141.137C187.076 141.622 186.952 142.099 186.792 142.565C186.724 142.768 186.674 142.958 186.611 143.13C186.547 143.302 186.475 143.446 186.416 143.582L186.148 144.192C186.122 144.269 186.086 144.342 186.039 144.409Z" fill="#263238"/>
<g opacity="0.3">
<path d="M185.867 144.495C185.79 144.463 185.999 143.885 186.253 142.823C186.615 141.333 186.743 139.796 186.633 138.267C186.554 137.223 186.361 136.191 186.058 135.188C185.706 134.046 185.207 132.954 184.575 131.939C184.235 131.391 183.855 130.87 183.437 130.379C183.005 129.867 182.536 129.389 182.032 128.946C181.511 128.487 180.955 128.07 180.368 127.699C179.16 126.933 177.838 126.363 176.452 126.008C174.495 125.512 172.452 125.458 170.472 125.85C169.296 126.086 168.155 126.47 167.077 126.994C166.136 127.458 165.248 128.024 164.429 128.68C163.236 129.647 162.199 130.792 161.356 132.074C160.753 132.978 160.472 133.534 160.395 133.498C160.317 133.462 160.49 132.87 160.997 131.862C161.741 130.441 162.74 129.167 163.944 128.106C164.773 127.368 165.686 126.731 166.664 126.207C167.798 125.608 169.007 125.165 170.259 124.887C170.935 124.738 171.622 124.639 172.313 124.594C173.785 124.493 175.264 124.622 176.696 124.978C178.195 125.348 179.624 125.958 180.926 126.786C181.556 127.189 182.152 127.642 182.708 128.142C183.763 129.086 184.668 130.185 185.391 131.401C186.622 133.455 187.302 135.789 187.368 138.181C187.416 139.782 187.167 141.379 186.633 142.891C186.275 143.998 185.935 144.522 185.867 144.495Z" fill="black"/>
</g>
<g opacity="0.3">
<path d="M171.233 146.669L170.222 148.884L168.241 147.98L169.221 145.824C167.312 144.816 165.703 143.347 165 142.005L167.19 140.084C167.966 141.398 169.072 142.488 170.399 143.248L171.904 139.944C169.946 138.411 167.824 136.567 169.103 133.733C170.059 131.636 172.407 130.528 175.703 131.591L176.705 129.394L178.691 130.298L177.707 132.44C179.093 133.159 180.287 134.197 181.189 135.469L179.09 137.453C178.402 136.49 177.528 135.674 176.519 135.053L174.987 138.416C176.959 139.925 179.044 141.756 177.775 144.545C176.841 146.606 174.534 147.704 171.233 146.669ZM173.228 137.024L174.506 134.212C173.346 133.973 172.67 134.361 172.371 135.012C172.072 135.663 172.48 136.35 173.228 137.024ZM174.475 143.352C174.787 142.66 174.384 142.023 173.663 141.34L172.421 144.052C173.514 144.287 174.185 143.971 174.475 143.338V143.352Z" fill="black"/>
</g>
<path d="M73.4844 114.943C68.1759 117.683 64.105 122.406 61.1764 127.599C58.2479 132.793 56.3666 138.502 54.4943 144.165L52.8623 173.369C59.0367 162.892 63.9962 150.575 65.338 138.493L61.2263 138.126C63.9826 137.706 66.2946 135.717 67.7679 133.353C69.2412 130.989 69.9983 128.3 70.7191 125.588L65.7324 126.338C69.6883 123.674 72.4641 119.593 73.4844 114.943Z" fill="#455A64"/>
<g opacity="0.3">
<path d="M73.4844 114.943C68.1759 117.683 64.105 122.406 61.1764 127.599C58.2479 132.793 56.3666 138.502 54.4943 144.165L52.8623 173.369C59.0367 162.892 63.9962 150.575 65.338 138.493L61.2263 138.126C63.9826 137.706 66.2946 135.717 67.7679 133.353C69.2412 130.989 69.9983 128.3 70.7191 125.588L65.7324 126.338C69.6883 123.674 72.4641 119.593 73.4844 114.943Z" fill="black"/>
</g>
<path d="M51.9473 180.217C51.9473 180.217 38.5332 164.216 38.6919 148.938H44.1319C44.1319 148.938 38.2385 145.083 38.6919 142.922C39.1452 140.762 39.3129 132.585 39.3129 132.585L44.2633 133.819C44.2633 133.819 40.5505 131.966 40.0881 129.037C39.6257 126.108 41.1671 112.525 41.1671 112.525C41.1671 112.525 47.2055 118.853 49.0596 125.33C50.9137 131.808 55.7916 139.374 54.3636 159.122C52.9356 178.87 51.9473 180.217 51.9473 180.217Z" fill="#455A64"/>
<path d="M58.7429 181.726C58.7429 181.726 73.2496 172.076 76.5 159.764L72.1434 158.584C72.1434 158.584 77.7194 156.776 77.8192 154.932C77.9189 153.088 79.5917 146.484 79.5917 146.484L75.3394 146.394C75.3394 146.394 78.7304 145.716 79.7458 143.46C80.7613 141.205 82.5066 129.945 82.5066 129.945C82.5066 129.945 76.2688 133.715 73.3538 138.533C70.4389 143.352 64.8493 148.342 61.6533 164.532C58.4573 180.723 58.7429 181.726 58.7429 181.726Z" fill="#455A64"/>
<path d="M44.8301 126.492C44.854 126.544 44.8707 126.598 44.8799 126.655C44.9071 126.777 44.9479 126.939 44.9978 127.147L45.4194 129.046C45.6053 129.873 45.8229 130.881 46.0541 132.061C46.2853 133.24 46.5709 134.574 46.8429 136.061C47.4141 139.03 48.0215 142.574 48.6562 146.52C49.2909 150.466 49.8666 154.823 50.4015 159.402C50.9365 163.981 51.3354 168.356 51.6527 172.343C51.9701 176.33 52.1695 179.918 52.2919 182.938C52.3645 184.443 52.4007 185.812 52.4415 187.006C52.4823 188.199 52.5005 189.239 52.5095 190.084C52.5186 190.929 52.5095 191.571 52.5095 192.027V192.534C52.5164 192.591 52.5164 192.648 52.5095 192.705C52.5033 192.648 52.5033 192.591 52.5095 192.534C52.5095 192.412 52.5095 192.244 52.5095 192.032C52.5095 191.58 52.4687 190.92 52.4415 190.084C52.4143 189.248 52.3826 188.208 52.3282 187.01C52.2738 185.812 52.233 184.447 52.1469 182.942C52.0063 179.927 51.7661 176.339 51.4578 172.356C51.1495 168.374 50.7143 164.008 50.1885 159.429C49.6626 154.85 49.0597 150.502 48.4658 146.556C47.8719 142.61 47.269 139.062 46.7159 136.092C46.453 134.605 46.1855 133.263 45.9634 132.088C45.7413 130.913 45.5373 129.896 45.365 129.068L44.9842 127.156C44.9479 126.949 44.9162 126.786 44.8935 126.659C44.869 126.605 44.8478 126.549 44.8301 126.492Z" fill="#263238"/>
<path d="M50.0883 190.016C50.0883 190.016 37.8166 176.135 33.9995 167.741L36.8737 166.517C34.7883 166.86 32.6531 165.965 31.0347 164.609C29.4163 163.253 28.2331 161.468 27.0681 159.709L30.8579 159.072C27.3753 158.083 24.4099 155.792 22.5801 152.676C27.0499 153.413 31.0937 155.84 34.4302 158.918C37.0789 161.456 39.4845 164.234 41.6155 167.217C42.6956 168.648 43.6368 170.178 44.4262 171.787C46.4662 176.036 50.0929 184.917 50.0883 190.016Z" fill="#455A64"/>
<path d="M76.6901 138.027C76.678 138.076 76.6597 138.123 76.6357 138.167L76.4453 138.569C76.2685 138.936 76.0146 139.451 75.6973 140.111C75.0399 141.444 74.1061 143.379 72.9773 145.788C71.8485 148.197 70.5429 151.072 69.1421 154.295C67.7413 157.517 66.277 161.075 64.8082 164.867C63.3394 168.659 62.0338 172.28 60.8823 175.597C59.7309 178.915 58.7607 181.925 57.9765 184.466C57.1922 187.006 56.5711 189.062 56.1631 190.491C55.9546 191.191 55.7959 191.743 55.6781 192.131L55.5466 192.556C55.5352 192.605 55.5169 192.653 55.4922 192.696C55.4922 192.696 55.4922 192.647 55.5239 192.547L55.6327 192.118C55.737 191.725 55.8866 191.173 56.0861 190.464C56.4714 189.031 57.0607 186.961 57.8314 184.416C58.6021 181.871 59.5631 178.856 60.6919 175.529C61.8207 172.203 63.1399 168.569 64.6042 164.781C66.0684 160.993 67.5599 157.431 68.9562 154.209C70.3525 150.986 71.6762 148.111 72.8412 145.716C74.0063 143.32 74.9311 141.408 75.6157 140.052C75.9511 139.401 76.2141 138.89 76.4044 138.533C76.4906 138.366 76.5586 138.239 76.613 138.14C76.6345 138.1 76.6603 138.062 76.6901 138.027Z" fill="#263238"/>
<path d="M51.1267 195.964C51.0972 195.881 51.0789 195.795 51.0723 195.707L50.9499 194.97C50.9045 194.649 50.8456 194.26 50.7595 193.808C50.6733 193.356 50.6008 192.837 50.4784 192.272C50.2563 191.132 49.9435 189.79 49.54 188.317C49.1365 186.843 48.6333 185.238 47.9987 183.589C47.364 181.939 46.684 180.397 46.0176 179.019C45.3512 177.64 44.6893 176.433 44.1 175.435C43.8189 174.928 43.5333 174.49 43.2976 174.079C43.0619 173.667 42.8443 173.351 42.6675 173.08L42.2685 172.451C42.2184 172.379 42.1759 172.302 42.1416 172.221C42.1416 172.221 42.2051 172.284 42.3093 172.424L42.7627 173.03C42.9531 173.292 43.1797 173.622 43.4245 174.011C43.6693 174.399 43.9731 174.856 44.2451 175.349C44.8525 176.339 45.5235 177.55 46.2171 178.924C46.9107 180.298 47.5771 181.848 48.2163 183.503C48.8555 185.157 49.3451 186.78 49.7485 188.258C50.152 189.736 50.4421 191.096 50.6552 192.24C50.7685 192.809 50.8365 193.329 50.9045 193.786C50.9725 194.242 51.0224 194.636 51.0587 194.961C51.0949 195.286 51.1131 195.508 51.1312 195.702C51.1407 195.789 51.1392 195.878 51.1267 195.964Z" fill="#263238"/>
<path d="M67.3193 192.696H40.4639V198.157H67.3193V192.696Z" fill="#2A64F6"/>
<path d="M43.0205 198.161L45.9264 216.53H62.1557L64.8621 198.161H43.0205Z" fill="#2A64F6"/>
<path d="M65.6696 198.161C65.6696 198.225 60.5923 198.279 54.3363 198.279C48.0803 198.279 43.0029 198.225 43.0029 198.161C43.0029 198.098 48.0803 198.044 54.3363 198.044C60.5923 198.044 65.6696 198.093 65.6696 198.161Z" fill="#263238"/>
<path d="M264.833 161.667H194.258C192.288 161.667 190.69 163.259 190.69 165.224V213.177C190.69 215.141 192.288 216.734 194.258 216.734H264.833C266.803 216.734 268.401 215.141 268.401 213.177V165.224C268.401 163.259 266.803 161.667 264.833 161.667Z" fill="#455A64"/>
<path d="M267.254 184.145H247.14C243.802 184.145 241.097 186.842 241.097 190.17V191.16C241.097 194.487 243.802 197.185 247.14 197.185H267.254C270.591 197.185 273.297 194.487 273.297 191.16V190.17C273.297 186.842 270.591 184.145 267.254 184.145Z" fill="#455A64"/>
<path d="M267.259 197.411H247.144C245.481 197.408 243.887 196.749 242.71 195.576C241.534 194.403 240.873 192.813 240.87 191.155V190.17C240.873 188.512 241.534 186.922 242.711 185.751C243.887 184.579 245.481 183.92 247.144 183.919H267.259C268.921 183.921 270.514 184.58 271.689 185.752C272.865 186.924 273.526 188.513 273.528 190.17V191.155C273.526 192.813 272.865 194.402 271.69 195.574C270.514 196.747 268.921 197.407 267.259 197.411ZM247.144 184.371C245.602 184.372 244.122 184.983 243.031 186.07C241.94 187.157 241.326 188.632 241.323 190.17V191.155C241.325 192.694 241.938 194.169 243.03 195.258C244.121 196.346 245.601 196.958 247.144 196.959H267.259C268.801 196.956 270.28 196.344 271.37 195.256C272.461 194.168 273.074 192.693 273.075 191.155V190.17C273.073 188.632 272.459 187.159 271.369 186.072C270.278 184.985 268.8 184.373 267.259 184.371H247.144Z" fill="#263238"/>
<path d="M252.115 193.309C253.591 191.216 253.086 188.326 250.987 186.854C248.888 185.382 245.989 185.885 244.513 187.978C243.037 190.071 243.541 192.961 245.641 194.433C247.74 195.905 250.638 195.402 252.115 193.309Z" fill="#263238"/>
<path d="M242.656 62.0006C242.601 64.3854 243.054 66.7547 243.986 68.9519C244.917 71.1491 246.306 73.1243 248.06 74.747C248.86 72.4207 249.666 70.0944 250.476 67.7681" fill="#263238"/>
<path d="M260.867 48.1197C258.79 46.9897 256.288 46.827 253.971 47.2925C251.664 47.8258 249.461 48.7328 247.448 49.9774C246.266 50.5865 245.209 51.4096 244.329 52.4047C242.824 54.294 241.337 57.3767 241.192 59.8039C241.074 61.752 241.822 66.6246 242.647 68.3919C243.404 70.0146 246.949 71.2485 248.699 71.6508L264.747 53.033C264.459 51.9986 263.967 51.0317 263.301 50.1883C262.635 49.3449 261.807 48.6418 260.867 48.1197Z" fill="#263238"/>
<path d="M263.632 50.6328L259.783 49.9458C261.887 54.9178 262.458 66.367 263.664 71.6418C265.083 69.5852 268.378 63.334 268.197 60.848C268.016 58.362 268.206 50.208 263.632 50.6328Z" fill="#263238"/>
<path d="M265.835 58.7779C265.586 54.9449 263.025 50.2441 259.194 50.6419L250.331 52.9019C248.967 53.2476 247.749 54.0208 246.858 55.1078C245.967 56.1948 245.449 57.5383 245.381 58.9406C245.381 59.0852 245.381 58.9089 245.381 59.0174L247.362 81.9067L254.017 95.0735L259.91 83.9678C259.91 82.1011 259.91 77.911 259.91 77.9201C259.91 77.9291 264.824 77.0974 265.804 70.6881C266.284 67.5331 266.107 63.0357 265.835 58.7779Z" fill="#FFBF9D"/>
<path d="M263.087 64.0211C263.091 64.235 263.011 64.4419 262.863 64.5974C262.716 64.7528 262.513 64.8445 262.299 64.8528C262.194 64.8608 262.089 64.848 261.989 64.8152C261.89 64.7824 261.798 64.7303 261.718 64.6617C261.639 64.5932 261.574 64.5097 261.527 64.416C261.481 64.3224 261.453 64.2204 261.446 64.116C261.445 63.902 261.527 63.6957 261.675 63.5407C261.823 63.3856 262.025 63.2937 262.24 63.2843C262.344 63.277 262.449 63.2902 262.548 63.3233C262.647 63.3563 262.738 63.4086 262.817 63.4771C262.896 63.5455 262.96 63.6288 263.007 63.7222C263.053 63.8156 263.08 63.9171 263.087 64.0211Z" fill="#263238"/>
<path d="M264.874 61.2819C264.77 61.3904 264.149 60.9294 263.26 60.9339C262.372 60.9384 261.728 61.3859 261.633 61.2729C261.537 61.1599 261.692 61.0333 261.973 60.8209C262.353 60.5538 262.808 60.4116 263.274 60.4141C263.734 60.4124 264.183 60.5564 264.557 60.8254C264.829 61.0424 264.924 61.2322 264.874 61.2819Z" fill="#263238"/>
<path d="M255.68 64.0211C255.684 64.235 255.603 64.4419 255.456 64.5974C255.308 64.7529 255.106 64.8445 254.891 64.8528C254.787 64.8608 254.682 64.848 254.582 64.8152C254.482 64.7824 254.39 64.7303 254.311 64.6617C254.232 64.5932 254.167 64.5097 254.12 64.416C254.074 64.3224 254.046 64.2204 254.039 64.116C254.038 63.902 254.12 63.6957 254.268 63.5407C254.415 63.3856 254.618 63.2937 254.832 63.2843C254.937 63.2757 255.042 63.2881 255.142 63.3207C255.241 63.3533 255.333 63.4055 255.412 63.4742C255.491 63.5429 255.556 63.6267 255.602 63.7206C255.648 63.8145 255.674 63.9167 255.68 64.0211Z" fill="#263238"/>
<path d="M256.47 61.282C256.37 61.3904 255.744 60.9294 254.86 60.9339C253.976 60.9384 253.328 61.3859 253.233 61.2729C253.138 61.1599 253.287 61.0334 253.573 60.8209C253.953 60.553 254.408 60.4107 254.874 60.4141C255.334 60.4124 255.784 60.5564 256.157 60.8254C256.429 61.0424 256.519 61.2322 256.47 61.282Z" fill="#263238"/>
<path d="M259.235 68.2111C259.701 68.0632 260.183 67.9751 260.672 67.9489C260.898 67.9489 261.125 67.8811 261.125 67.7275C261.145 67.4945 261.093 67.261 260.975 67.0585C260.762 66.5161 260.522 65.9421 260.305 65.3454C259.371 62.9046 258.695 60.8977 258.795 60.8616C258.895 60.8254 259.761 62.76 260.667 65.2143C260.889 65.8155 261.121 66.3895 261.311 66.9365C261.457 67.2142 261.499 67.5348 261.429 67.8405C261.396 67.9199 261.345 67.9908 261.281 68.0479C261.216 68.1051 261.14 68.147 261.057 68.1704C260.933 68.2037 260.805 68.2219 260.676 68.2247C260.197 68.2798 259.713 68.2753 259.235 68.2111Z" fill="#263238"/>
<path d="M251.369 75.6555C251.369 75.6555 253.454 80.0444 259.869 79.4342V77.9291C256.879 77.9729 253.936 77.1856 251.369 75.6555Z" fill="#FF9A6C"/>
<path d="M256.193 58.0953C256.107 58.3349 255.223 58.2219 254.185 58.3485C253.146 58.475 252.308 58.7598 252.172 58.5473C252.108 58.4434 252.253 58.2174 252.593 57.9869C253.041 57.6946 253.553 57.5133 254.085 57.458C254.616 57.3955 255.155 57.4574 255.658 57.6388C256.039 57.788 256.229 57.9823 256.193 58.0953Z" fill="#263238"/>
<path d="M264.584 58.5835C264.429 58.7869 263.817 58.5835 263.088 58.5835C262.358 58.5835 261.728 58.7191 261.587 58.5112C261.528 58.4117 261.623 58.2083 261.895 58.0185C262.259 57.7913 262.682 57.6765 263.111 57.6886C263.541 57.7007 263.957 57.839 264.307 58.0863C264.565 58.2807 264.652 58.4841 264.584 58.5835Z" fill="#263238"/>
<path d="M264.094 52.9425C263.867 52.4727 263.514 52.0749 263.074 51.7933C262.633 51.5116 262.124 51.3571 261.601 51.347C260.553 51.3484 259.528 51.6479 258.645 52.2103C254.828 54.407 252.865 59.7225 249.093 62.0006C248.164 62.5611 246.958 62.0458 246.169 62.7871C245.38 63.5284 244.868 64.7171 245.303 65.707C244.763 65.0361 244.322 64.2919 243.993 63.4967C243.833 63.0977 243.76 62.6692 243.778 62.2398C243.797 61.8103 243.907 61.3898 244.102 61.0062C244.428 60.4412 245.009 60.0118 245.163 59.379C245.303 58.823 245.081 58.2445 245.104 57.6704C245.17 57.0881 245.372 56.5292 245.693 56.0387C247.171 53.4352 249.202 51.0667 251.822 49.6113C253.531 48.628 255.476 48.1265 257.448 48.1604C259.428 48.2078 261.325 48.9597 262.798 50.2802C263.645 51.0667 264.529 51.8758 264.094 52.9425Z" fill="#263238"/>
<path d="M246.26 63.5826C246.192 63.3973 242.85 62.195 242.805 65.7387C242.76 69.1784 246.246 68.5049 246.255 68.4055C246.264 68.306 246.26 63.5826 246.26 63.5826Z" fill="#FFBF9D"/>
<path d="M245.2 67.0901C245.2 67.0901 245.141 67.1308 245.036 67.176C244.965 67.2063 244.888 67.222 244.81 67.222C244.732 67.222 244.655 67.2063 244.583 67.176C244.22 67.0404 243.917 66.4619 243.908 65.82C243.902 65.5257 243.963 65.2339 244.084 64.9657C244.118 64.8596 244.177 64.7631 244.256 64.6844C244.334 64.6057 244.431 64.5472 244.538 64.5137C244.607 64.4956 244.68 64.5024 244.745 64.533C244.81 64.5636 244.862 64.616 244.891 64.681C244.937 64.7759 244.891 64.8437 244.932 64.8527C244.973 64.8618 245.005 64.794 244.977 64.6539C244.962 64.5678 244.915 64.4905 244.846 64.4369C244.752 64.3647 244.633 64.3322 244.515 64.3465C244.373 64.372 244.24 64.4337 244.129 64.5256C244.017 64.6174 243.932 64.7363 243.88 64.8708C243.729 65.1672 243.654 65.4966 243.663 65.8291C243.663 66.5251 244.03 67.1851 244.524 67.3252C244.617 67.353 244.715 67.3597 244.81 67.3448C244.906 67.33 244.997 67.2939 245.077 67.2393C245.195 67.1715 245.213 67.0947 245.2 67.0901Z" fill="#FF9A6C"/>
<path d="M244.887 61.8108C244.96 61.7788 245.03 61.7394 245.095 61.6933C245.227 61.6119 245.431 61.4989 245.676 61.3272C246.354 60.8303 246.979 60.2637 247.539 59.6367C248.349 58.6962 249.106 57.7107 249.805 56.6851C250.655 55.4279 251.609 54.2441 252.657 53.146C253.207 52.5986 253.815 52.1121 254.47 51.695C255.093 51.3151 255.76 51.0115 256.456 50.791C257.635 50.4104 258.877 50.257 260.114 50.339C260.948 50.3823 261.772 50.5343 262.567 50.791C262.848 50.8769 263.061 50.9764 263.206 51.0306C263.279 51.0626 263.355 51.0883 263.433 51.1074L263.22 50.999C263.013 50.9001 262.801 50.8126 262.585 50.7368C261.793 50.4447 260.965 50.2651 260.123 50.2034C258.872 50.1052 257.613 50.2479 256.415 50.6238C255.706 50.8396 255.026 51.1433 254.393 51.5278C253.718 51.9496 253.091 52.4421 252.521 52.9968C251.466 54.1001 250.51 55.2934 249.665 56.5631C248.968 57.5889 248.219 58.5785 247.421 59.5282C246.873 60.1559 246.266 60.7295 245.608 61.2413C245.372 61.4221 245.154 61.5396 245.045 61.63C244.988 61.6866 244.935 61.747 244.887 61.8108Z" fill="#455A64"/>
<path d="M245.757 62.7871C245.702 63.7273 245.657 64.7172 246.092 65.5534C246.527 66.3896 247.629 66.9591 248.449 66.489C249.116 66.1093 249.315 65.255 249.429 64.4957C249.76 62.3035 249.909 60.0842 250.254 57.8965L245.757 62.7871Z" fill="#263238"/>
<path d="M263.242 51.3018C263.242 51.3018 262.939 51.2476 262.386 51.2295C261.61 51.2151 260.839 51.3565 260.119 51.6453C259.617 51.8377 259.136 52.0832 258.686 52.3776C258.172 52.7228 257.678 53.0986 257.208 53.503C256.125 54.4211 255.156 55.4651 254.321 56.6128C253.867 57.2275 253.496 57.8558 253.074 58.4208C252.676 58.9901 252.212 59.5104 251.691 59.9712C250.794 60.7271 249.815 61.3806 248.772 61.9193C247.865 62.3713 247.149 62.7103 246.641 62.9363L246.052 63.1849C245.983 63.2169 245.912 63.2426 245.839 63.2617C245.839 63.2617 245.902 63.2165 246.034 63.1487L246.61 62.864C247.108 62.6199 247.838 62.2764 248.708 61.7972C249.732 61.2489 250.693 60.5911 251.574 59.8356C252.087 59.3826 252.543 58.8697 252.934 58.3078C253.346 57.7292 253.736 57.0964 254.18 56.4998C255.023 55.3377 256.008 54.2854 257.113 53.3674C257.59 52.9615 258.093 52.5871 258.618 52.2465C259.08 51.9497 259.572 51.7042 260.087 51.5142C260.833 51.2337 261.63 51.1106 262.426 51.1526C262.642 51.1643 262.855 51.1946 263.066 51.243C263.126 51.257 263.185 51.2767 263.242 51.3018Z" fill="#455A64"/>
<path d="M245.662 60.6582C245.567 60.7376 245.463 60.8073 245.354 60.8661L244.479 61.3768L244.184 61.5441C244.069 61.6116 243.941 61.6546 243.808 61.6706C243.727 61.679 243.645 61.6598 243.577 61.6164C243.54 61.5926 243.509 61.5613 243.486 61.5247C243.462 61.4881 243.447 61.4469 243.441 61.404C243.444 61.2396 243.502 61.0809 243.604 60.952L244.619 59.3293L244.755 59.4604C244.421 59.7078 244.045 59.8945 243.645 60.0118C243.245 60.1303 242.828 60.1793 242.412 60.1564C242.305 60.1538 242.2 60.1356 242.099 60.1022C242.039 60.0861 241.984 60.0565 241.938 60.0157C241.891 59.975 241.855 59.9242 241.831 59.8672C241.811 59.8091 241.806 59.7471 241.815 59.6864C241.825 59.6257 241.849 59.5683 241.886 59.5191C241.945 59.4421 242.012 59.371 242.085 59.3067C242.539 58.8665 242.934 58.3697 243.259 57.8286C243.545 57.3178 243.795 56.7877 244.007 56.2421C243.989 56.3966 243.953 56.5484 243.899 56.6941C243.765 57.1084 243.591 57.5081 243.377 57.8874C243.061 58.4517 242.668 58.9691 242.208 59.4242C242.081 59.5462 241.954 59.6864 242.004 59.7948C242.053 59.9033 242.239 59.9576 242.421 59.9576C243.215 59.9981 243.999 59.7651 244.642 59.2976L245.055 58.9948L244.778 59.4468L243.744 61.0559C243.664 61.1505 243.613 61.267 243.599 61.3904C243.599 61.4898 243.685 61.5441 243.794 61.535C244.016 61.4918 244.227 61.4059 244.415 61.2819L245.322 60.8299C245.427 60.7574 245.541 60.6997 245.662 60.6582Z" fill="#455A64"/>
<path d="M258.468 69.8835C258.298 69.6887 258.081 69.5396 257.838 69.4496C257.595 69.3596 257.333 69.3316 257.077 69.3682C256.89 69.3901 256.71 69.449 256.546 69.5413C256.383 69.6337 256.239 69.7577 256.125 69.9061C256.015 70.0483 255.953 70.2208 255.947 70.3998C255.94 70.5788 255.99 70.7553 256.088 70.905C256.233 71.0501 256.416 71.1504 256.617 71.1937C256.817 71.237 257.026 71.2215 257.217 71.1491C257.613 70.9957 257.975 70.767 258.283 70.4756C258.377 70.4072 258.457 70.3212 258.518 70.2225C258.549 70.1764 258.566 70.1221 258.566 70.0666C258.566 70.011 258.549 69.9568 258.518 69.9106" fill="#FF9A6C"/>
<path d="M256.278 68.5185C256.419 68.5185 256.446 69.4225 257.257 70.0282C258.069 70.6339 259.071 70.5209 259.071 70.6474C259.071 70.7017 258.858 70.8282 258.441 70.8508C257.903 70.8797 257.372 70.7198 256.94 70.3988C256.528 70.092 256.253 69.6358 256.174 69.1287C256.133 68.74 256.215 68.514 256.278 68.5185Z" fill="#263238"/>
<path d="M269.158 129.697L272.87 138.059L254.85 144.78L250.82 135.79L269.158 129.697Z" fill="#263238"/>
<path d="M305.569 180.578L310.497 191.187C310.497 191.187 322.805 189.56 323.907 191.435L303.788 201.89L295.424 185.677L305.569 180.578Z" fill="#455A64"/>
<path d="M303.933 193.451C303.767 193.611 303.667 193.826 303.65 194.055C303.633 194.285 303.702 194.512 303.842 194.694C303.996 194.864 304.209 194.969 304.438 194.989C304.667 195.008 304.895 194.94 305.075 194.798C305.251 194.629 305.357 194.401 305.374 194.158C305.391 193.915 305.317 193.675 305.166 193.483C304.987 193.321 304.753 193.234 304.511 193.239C304.27 193.245 304.04 193.344 303.87 193.514" fill="#E0E0E0"/>
<path d="M303.784 201.89L303.122 200.62L322.856 190.861C323.091 190.882 323.32 190.95 323.528 191.062C323.737 191.174 323.92 191.327 324.066 191.512L303.784 201.89Z" fill="#263238"/>
<path d="M310.719 191.16C310.765 191.259 310.289 191.557 309.962 192.122C309.636 192.687 309.586 193.243 309.473 193.252C309.359 193.261 309.214 192.606 309.627 191.928C310.039 191.25 310.692 191.056 310.719 191.16Z" fill="#263238"/>
<path d="M313.308 190.956C313.381 191.042 313.036 191.431 312.914 192.023C312.791 192.615 312.914 193.108 312.814 193.153C312.714 193.198 312.361 192.669 312.533 191.937C312.705 191.205 313.254 190.861 313.308 190.956Z" fill="#263238"/>
<path d="M315.828 192.9C315.751 192.963 315.375 192.538 315.334 191.865C315.293 191.191 315.67 190.735 315.756 190.798C315.842 190.861 315.701 191.295 315.724 191.851C315.747 192.407 315.923 192.837 315.828 192.9Z" fill="#263238"/>
<path d="M309.314 188.868C309.314 188.976 308.793 189.071 308.249 189.397C307.705 189.722 307.342 190.12 307.256 190.061C307.17 190.002 307.406 189.433 308.05 189.062C308.693 188.692 309.324 188.746 309.314 188.868Z" fill="#263238"/>
<path d="M308.535 186.418C308.535 186.459 308.195 186.721 307.51 186.933C307.108 187.055 306.692 187.126 306.273 187.146C306.025 187.164 305.777 187.164 305.529 187.146C305.375 187.142 305.222 187.114 305.076 187.064C304.974 187.028 304.887 186.958 304.83 186.866C304.772 186.774 304.747 186.666 304.759 186.558C304.773 186.463 304.81 186.373 304.866 186.294C304.921 186.215 304.995 186.151 305.08 186.106C305.209 186.04 305.346 185.992 305.488 185.966C305.734 185.911 305.985 185.876 306.236 185.862C306.661 185.843 307.087 185.89 307.497 186.002C308.19 186.201 308.544 186.49 308.517 186.527C308.49 186.563 308.1 186.386 307.433 186.269C307.046 186.203 306.651 186.186 306.259 186.219C306.031 186.24 305.805 186.279 305.584 186.337C305.334 186.386 305.13 186.481 305.13 186.603C305.13 186.653 305.13 186.667 305.212 186.707C305.314 186.742 305.421 186.762 305.529 186.766C305.761 186.791 305.994 186.803 306.227 186.802C306.623 186.797 307.018 186.756 307.406 186.68C307.776 186.566 308.153 186.478 308.535 186.418Z" fill="#263238"/>
<path d="M286.425 197.623L285.8 209.298C285.8 209.298 297.437 213.606 297.532 215.776L274.843 215.626L275.065 197.397L286.425 197.623Z" fill="#455A64"/>
<path d="M278.936 208.241C278.714 208.302 278.522 208.444 278.399 208.639C278.276 208.834 278.23 209.067 278.27 209.294C278.327 209.516 278.466 209.708 278.66 209.831C278.853 209.954 279.087 210 279.313 209.958C279.547 209.891 279.749 209.739 279.878 209.532C280.007 209.325 280.054 209.077 280.011 208.837C279.929 208.611 279.763 208.425 279.546 208.318C279.33 208.212 279.08 208.194 278.85 208.268" fill="#E0E0E0"/>
<path d="M274.843 215.626V214.175L296.861 214.758C297.06 214.886 297.23 215.053 297.362 215.249C297.494 215.445 297.584 215.666 297.627 215.898L274.843 215.626Z" fill="#263238"/>
<path d="M286.004 209.375C286.004 209.488 285.442 209.529 284.884 209.877C284.326 210.225 284.027 210.691 283.923 210.645C283.819 210.6 284 209.958 284.68 209.547C285.36 209.136 286.054 209.276 286.004 209.375Z" fill="#263238"/>
<path d="M288.393 210.406C288.416 210.519 287.94 210.7 287.541 211.165C287.142 211.631 287.033 212.123 286.92 212.119C286.806 212.114 286.752 211.482 287.242 210.912C287.731 210.342 288.393 210.302 288.393 210.406Z" fill="#263238"/>
<path d="M289.707 213.299C289.603 213.321 289.458 212.761 289.757 212.155C290.057 211.549 290.582 211.314 290.628 211.409C290.673 211.504 290.342 211.825 290.106 212.313C289.871 212.801 289.816 213.276 289.707 213.299Z" fill="#263238"/>
<path d="M285.849 206.681C285.8 206.781 285.292 206.618 284.657 206.65C284.022 206.681 283.528 206.871 283.474 206.776C283.42 206.681 283.896 206.288 284.644 206.261C285.392 206.234 285.908 206.595 285.849 206.681Z" fill="#263238"/>
<path d="M286.303 204.173C285.925 204.265 285.529 204.255 285.156 204.146C284.743 204.065 284.341 203.934 283.959 203.757C283.733 203.651 283.515 203.53 283.306 203.395C283.179 203.322 283.064 203.229 282.966 203.12C282.894 203.039 282.851 202.938 282.844 202.83C282.837 202.723 282.865 202.617 282.925 202.527C282.983 202.451 283.058 202.389 283.143 202.346C283.229 202.303 283.323 202.28 283.419 202.279C283.565 202.283 283.71 202.305 283.85 202.347C284.506 202.526 285.108 202.864 285.6 203.332C286.121 203.834 286.298 204.236 286.257 204.272C286.217 204.308 285.954 203.956 285.419 203.54C285.108 203.301 284.768 203.102 284.408 202.948C284.195 202.858 283.975 202.787 283.75 202.735C283.51 202.668 283.297 202.663 283.238 202.767C283.179 202.871 283.211 202.826 283.261 202.898C283.337 202.975 283.422 203.042 283.515 203.097C283.708 203.227 283.907 203.346 284.113 203.454C284.466 203.637 284.835 203.788 285.215 203.906C285.583 203.968 285.947 204.057 286.303 204.173Z" fill="#263238"/>
<path d="M234.532 141.575C234.532 141.575 279.997 135.898 282.676 135.898C288.964 135.898 292.913 140.676 293.851 144.364C294.545 147.076 308.539 186.513 308.539 186.513L298.217 191.847L283.034 164.948L275.296 151.528L235.403 157.671L234.532 141.575Z" fill="#263238"/>
<path d="M277.173 150.29C277.173 150.29 283.406 150.29 286.77 155.262C288.746 158.186 288.053 163.398 288.094 167.344C288.148 172.709 286.847 205.398 286.847 205.398L274.104 205.61L271.434 171.543L271.588 165.246L246.16 163.176C246.16 163.176 243.844 155.492 249.542 149.417C250.24 148.64 277.173 150.29 277.173 150.29Z" fill="#263238"/>
<path d="M238.417 130.614C238.417 130.614 228.367 146.036 234.532 157.626C237.47 163.145 246.26 163.14 246.26 163.14L255.277 151.885V133.272L238.417 130.614Z" fill="#263238"/>
<path d="M246.26 163.14C246.314 163.105 246.372 163.075 246.432 163.05L246.94 162.815L248.898 161.911L256.152 158.697L266.891 153.965L273.238 151.176C273.795 150.945 274.33 150.669 274.92 150.471C275.51 150.268 276.116 150.116 276.733 150.019C277.992 149.832 279.27 149.821 280.532 149.987C281.798 150.137 283.033 150.485 284.19 151.018C284.759 151.284 285.287 151.63 285.759 152.044C286.218 152.46 286.608 152.947 286.915 153.485C287.515 154.525 287.879 155.684 287.98 156.88C288.03 157.468 287.98 158.033 287.98 158.598C287.98 159.163 287.98 159.719 287.98 160.27C287.926 164.677 287.88 168.641 287.844 171.977C287.808 175.313 287.758 177.993 287.731 179.869C287.731 180.773 287.699 181.509 287.69 182.016C287.69 182.251 287.69 182.436 287.69 182.572C287.695 182.635 287.695 182.698 287.69 182.761C287.686 182.698 287.686 182.635 287.69 182.572C287.69 182.436 287.69 182.251 287.69 182.016C287.69 181.509 287.69 180.791 287.69 179.869C287.69 177.993 287.69 175.299 287.722 171.977C287.753 168.655 287.772 164.672 287.803 160.27C287.803 159.719 287.803 159.163 287.803 158.598C287.803 158.033 287.83 157.458 287.781 156.898C287.682 155.74 287.327 154.618 286.742 153.612C286.449 153.096 286.076 152.629 285.636 152.229C285.181 151.831 284.671 151.501 284.122 151.248C282.99 150.726 281.783 150.385 280.545 150.236C279.308 150.074 278.054 150.085 276.819 150.267C276.218 150.367 275.626 150.518 275.051 150.719C274.484 150.914 273.936 151.171 273.383 151.42L267.036 154.195L256.278 158.878L249.025 162.015L247.044 162.855L246.527 163.068C246.443 163.106 246.352 163.131 246.26 163.14Z" fill="#455A64"/>
<path d="M281.779 135.898C281.779 135.961 272.236 137.033 260.449 138.289C248.663 139.546 239.102 140.513 239.093 140.45C239.084 140.386 248.635 139.315 260.422 138.059C272.209 136.802 281.77 135.835 281.779 135.898Z" fill="#455A64"/>
<path d="M270.541 113.429C271.28 111.083 273.864 102.45 273.283 97.8985C272.83 94.2825 269.552 89.6088 268.578 87.1228C268.124 85.9521 264.448 84.7453 262.258 84.0989L260.082 81.5361L259.901 82.7881C259.26 83.5194 258.456 84.0917 257.554 84.4597C256.653 84.8276 255.677 84.9811 254.706 84.908C251.474 84.6187 248.812 83.3034 247.058 81.3598C238.662 83.9136 238.69 84.4831 237.085 85.1204C235.008 85.9431 241.219 105.781 241.219 105.781C241.219 105.781 243.445 118.243 241.351 122.442C240.172 124.806 238.807 127.504 237.806 129.701C237.806 129.701 235.013 135.008 235.611 134.872C236.867 134.583 245.585 136.68 253.776 137.132C268.922 137.928 271.819 135.69 271.819 135.69C271.026 131.826 269.698 118.279 269.702 115.649C269.693 115.192 270.409 113.836 270.541 113.429Z" fill="#2A64F6"/>
<path d="M260.35 82.1553C260.35 82.1553 270.219 84.6911 271.184 86.0019C273.809 89.5591 289.621 113.899 281.86 121.158C276.774 125.913 269.62 115.879 269.62 115.879L260.35 82.1553Z" fill="#2A64F6"/>
<path d="M280.913 110.821C280.679 110.801 280.447 110.761 280.219 110.704L278.329 110.315C276.719 109.989 274.466 109.528 271.882 109.158L272.018 109.081L271.243 110.988L269.402 115.468V115.355L272.258 118.772L273.052 119.748C273.151 119.86 273.239 119.981 273.315 120.11C273.315 120.11 274.045 120.444 272.997 119.793L272.15 118.858L269.221 115.499L269.176 115.445L269.203 115.386L271.016 110.893C271.284 110.243 271.547 109.605 271.796 108.991L271.832 108.9H271.937C274.534 109.284 276.783 109.773 278.383 110.143C279.185 110.328 279.82 110.487 280.26 110.595C280.483 110.654 280.701 110.73 280.913 110.821Z" fill="#263238"/>
<path d="M271.42 109.678C271.421 109.409 271.446 109.142 271.493 108.878C271.565 108.326 271.656 107.594 271.769 106.712C272.108 104.345 272.188 101.947 272.01 99.5618C271.764 97.1753 271.072 94.8557 269.97 92.723C269.557 91.9004 269.181 91.2495 268.918 90.802C268.77 90.5766 268.638 90.3409 268.523 90.0969C268.523 90.0969 268.578 90.1512 268.659 90.2596C268.741 90.3681 268.859 90.5354 269.004 90.7523C269.294 91.2043 269.693 91.8236 270.133 92.6462C271.294 94.7805 272.018 97.1235 272.263 99.5392C272.445 101.942 272.339 104.358 271.946 106.735C271.815 107.639 271.683 108.385 271.592 108.891C271.556 109.157 271.498 109.42 271.42 109.678Z" fill="#263238"/>
<g opacity="0.3">
<path d="M239.093 127.848L257.775 119.26L256.51 115.576L259.384 114.482L264.067 115.093C265.225 115.245 266.403 115.129 267.509 114.755C268.615 114.38 269.62 113.756 270.445 112.932L258.808 109.998L245.535 112.819L242.162 103.069L241.328 105.926L242.021 112.06L242.475 118.686L239.093 127.848Z" fill="black"/>
</g>
<path d="M237.311 85.021C236.16 85.5237 235.135 86.2738 234.309 87.2178C233.483 88.1618 232.876 89.2761 232.533 90.4812C231.891 91.9078 231.405 93.3989 231.082 94.9288C229.509 101.844 226.096 114.817 225.969 118.279C225.724 124.508 230.692 126.275 233.376 126.817C236.06 127.36 254.683 117.75 254.683 117.75L250.811 107.259L239.428 111.956C239.428 111.956 242.026 103.955 242.778 100.683C243.531 97.4103 237.311 85.021 237.311 85.021Z" fill="#2A64F6"/>
<path d="M271.95 107.924C271.724 106.896 271.688 105.836 271.846 104.796C271.977 104.172 272 103.53 271.914 102.898C271.796 102.278 271.216 101.623 270.586 101.673L269.634 106.233L271.95 107.924Z" fill="#FFBF9D"/>
<path d="M271.511 97.2205L268.161 113.339L260.214 112.86L262.567 96.9131C262.597 96.7099 262.7 96.5244 262.857 96.3908C263.013 96.2571 263.213 96.1842 263.419 96.1854H270.672C270.8 96.1852 270.927 96.2136 271.042 96.2685C271.158 96.3235 271.26 96.4035 271.34 96.5028C271.42 96.6021 271.478 96.7181 271.507 96.8423C271.537 96.9665 271.538 97.0957 271.511 97.2205Z" fill="#263238"/>
<path d="M262.575 101.411C262.63 101.264 262.671 101.113 262.698 100.959C262.766 100.62 262.856 100.181 262.965 99.6522L263.341 97.7177C263.341 97.6273 263.373 97.5278 263.396 97.4555C263.426 97.3776 263.474 97.3079 263.536 97.2521C263.599 97.1921 263.678 97.1513 263.763 97.1346C263.856 97.1273 263.95 97.1273 264.044 97.1346H265.3C267.018 97.1346 268.577 97.1075 269.702 97.0894L271.062 97.0532C271.226 97.0589 271.39 97.0468 271.551 97.0171C271.389 96.9969 271.225 96.9878 271.062 96.9899H269.702C268.577 96.9899 267.018 96.9899 265.3 96.9899H264.044C263.938 96.9793 263.832 96.9793 263.727 96.9899C263.617 97.0136 263.516 97.065 263.432 97.1391C263.35 97.2136 263.288 97.3066 263.251 97.4103C263.224 97.5056 263.203 97.6021 263.187 97.6996C263.06 98.4228 262.947 99.0782 262.847 99.6432L262.634 100.954C262.602 101.104 262.583 101.257 262.575 101.411Z" fill="#455A64"/>
<path d="M266.823 97.8939C266.858 97.8069 266.923 97.7352 267.006 97.692C267.089 97.6489 267.185 97.6371 267.277 97.6589C267.349 97.6781 267.414 97.7179 267.464 97.7732C267.514 97.8286 267.546 97.8972 267.558 97.9708C267.561 98.051 267.542 98.1306 267.504 98.2013C267.466 98.2721 267.409 98.3313 267.34 98.373C267.269 98.4125 267.188 98.4298 267.107 98.4225C267.026 98.4153 266.95 98.3838 266.887 98.3324C266.83 98.2762 266.793 98.203 266.781 98.1238C266.77 98.0446 266.785 97.9639 266.823 97.8939Z" fill="#FAFAFA"/>
<path d="M267.041 102.757C267.227 102.803 271.429 104.968 271.429 104.968L273.623 107.273C273.623 107.273 274.417 108.629 273.773 110.69C273.129 112.751 272.082 113.506 269.666 114.103L265.101 113.384L262.789 111.495C262.568 111.312 262.407 111.068 262.326 110.793C262.245 110.518 262.248 110.226 262.335 109.953L262.367 109.858L262.104 109.406C262.024 109.272 261.985 109.118 261.992 108.962C262 108.806 262.053 108.656 262.145 108.53C262.27 108.361 262.457 108.248 262.665 108.216C262.873 108.183 263.085 108.235 263.256 108.358L265.858 110.256L267.648 110.491L267.916 109.908L265.291 108.552L261.955 105.976C261.849 105.895 261.762 105.794 261.697 105.679C261.632 105.563 261.592 105.436 261.578 105.305C261.564 105.173 261.577 105.04 261.616 104.914C261.655 104.788 261.719 104.671 261.805 104.57C261.955 104.394 262.162 104.277 262.39 104.239C262.618 104.201 262.853 104.244 263.052 104.362L266.152 106.17L269.389 107.594L268.877 106.31L265.073 103.503C265.073 103.503 264.747 102.179 267.041 102.757Z" fill="#FFBF9D"/>
<path d="M266.66 100.547C266.66 100.547 265.785 100.045 264.329 100.647C262.874 101.248 261.016 102.156 261.016 102.156L258.228 102.947L258.558 102.26C258.558 102.26 261.31 102.541 261.179 100.543L259.52 100.615L258.096 99.8873L255.29 102.599L254.234 106.446L251.146 108.046L253.572 114.627L257.928 112.218L263.368 112.114L265.368 110.5L265.59 108.453L267.548 106.464C267.548 106.464 267.793 105.469 266.891 105.375C265.989 105.28 263.817 107.431 263.817 107.431L261.637 107.481C261.637 107.481 261.265 107.142 261.569 106.948C261.872 106.753 268.296 103.607 268.582 102.902C268.867 102.197 269.162 101.736 268.523 101.546C267.951 101.461 267.367 101.517 266.823 101.709C266.823 101.709 267.145 100.701 266.66 100.547Z" fill="#FFBF9D"/>
<path d="M261.333 104.48C262.309 104.077 263.264 103.625 264.194 103.124C265.148 102.68 266.079 102.187 266.982 101.646C266.005 102.039 265.05 102.484 264.121 102.979C263.165 103.429 262.234 103.93 261.333 104.48Z" fill="#FF9A6C"/>
<path d="M260.037 109.592C260.141 109.64 260.251 109.675 260.364 109.696C260.577 109.75 260.889 109.831 261.27 109.899C261.729 109.983 262.196 110.015 262.662 109.994C263.238 109.963 263.801 109.809 264.312 109.542C265.22 109.036 266.009 108.34 266.624 107.503C266.864 107.192 267.05 106.934 267.173 106.753C267.244 106.663 267.305 106.564 267.354 106.459C267.061 106.768 266.785 107.092 266.529 107.431C265.902 108.23 265.124 108.898 264.24 109.397C263.747 109.655 263.207 109.809 262.653 109.849C262.199 109.878 261.743 109.858 261.293 109.791C260.522 109.669 260.042 109.565 260.037 109.592Z" fill="#FF9A6C"/>
<path d="M251.146 108.046L251.341 107.933L251.931 107.612L254.197 106.41L254.17 106.441L255.204 102.586L257.996 99.8737L258.042 99.8285L258.096 99.8601L259.524 100.583H259.479L261.138 100.506H261.238V100.601C261.264 100.913 261.203 101.226 261.061 101.505C260.898 101.757 260.667 101.958 260.394 102.084C259.807 102.338 259.164 102.438 258.527 102.373L258.631 102.314L258.305 103.006L258.178 102.857L260.966 102.057L263.686 100.823C264.556 100.371 265.676 99.9731 266.741 100.443C266.805 100.466 266.863 100.503 266.912 100.549C266.961 100.596 267 100.652 267.027 100.714C267.074 100.826 267.097 100.946 267.095 101.067C267.097 101.296 267.065 101.525 267 101.745L266.85 101.6C267.173 101.497 267.506 101.426 267.843 101.388C268.209 101.322 268.587 101.39 268.908 101.578C269 101.647 269.061 101.749 269.08 101.862C269.099 101.963 269.099 102.065 269.08 102.165C269.031 102.336 268.97 102.504 268.899 102.667L268.799 102.907C268.778 102.954 268.754 102.999 268.727 103.042C268.696 103.082 268.662 103.12 268.627 103.155C268.494 103.277 268.353 103.391 268.205 103.494C267.053 104.235 265.864 104.917 264.642 105.537L262.87 106.441C262.58 106.595 262.289 106.74 261.999 106.893C261.868 106.966 261.673 107.047 261.655 107.106C261.637 107.164 261.705 107.309 261.8 107.399L261.718 107.368L263.899 107.318L263.822 107.35C264.461 106.715 265.163 106.146 265.916 105.65C266.105 105.53 266.305 105.428 266.514 105.347C266.737 105.258 266.983 105.247 267.213 105.316C267.331 105.351 267.438 105.415 267.526 105.502C267.614 105.589 267.679 105.695 267.716 105.813C267.772 106.035 267.772 106.268 267.716 106.491V106.518L265.653 108.52L265.68 108.462C265.603 109.167 265.526 109.849 265.454 110.514V110.55L265.426 110.573L263.418 112.177H263.396H263.386L257.924 112.263H257.956L254.714 114.021L253.862 114.473L253.644 114.586C253.594 114.613 253.567 114.622 253.567 114.618L253.635 114.573L253.848 114.446L254.682 113.967L257.897 112.159H257.924L263.364 112.032H263.314L265.309 110.414L265.272 110.478C265.345 109.818 265.417 109.135 265.49 108.43V108.412L265.513 108.389L267.466 106.396L267.439 106.446C267.521 106.08 267.439 105.619 267.058 105.542C266.86 105.514 266.658 105.527 266.465 105.582C266.272 105.636 266.093 105.73 265.939 105.858C265.201 106.345 264.514 106.906 263.89 107.531L263.858 107.562H263.84L261.664 107.621H261.614L261.582 107.589C261.514 107.525 261.455 107.45 261.41 107.368C261.382 107.318 261.365 107.263 261.36 107.206C261.355 107.149 261.363 107.092 261.383 107.038C261.434 106.943 261.515 106.869 261.614 106.825L261.832 106.712L262.702 106.26L264.47 105.356C265.682 104.739 266.863 104.06 268.006 103.322C268.136 103.22 268.259 103.108 268.373 102.988C268.4 102.963 268.424 102.936 268.446 102.907C268.465 102.879 268.481 102.848 268.491 102.816L268.595 102.577C268.713 102.278 268.894 101.899 268.69 101.763C268.414 101.613 268.093 101.564 267.784 101.623C267.463 101.656 267.147 101.723 266.841 101.822L266.632 101.89L266.691 101.677C266.749 101.48 266.778 101.276 266.777 101.071C266.777 100.873 266.709 100.701 266.582 100.665C266.124 100.478 265.62 100.434 265.136 100.538C264.648 100.646 264.177 100.82 263.736 101.053L261.047 102.274L258.255 103.065L258.028 103.128L258.132 102.916L258.463 102.229L258.49 102.165H258.568C259.165 102.227 259.769 102.137 260.322 101.903C260.574 101.782 260.784 101.588 260.925 101.347C261.046 101.104 261.099 100.832 261.079 100.561L261.183 100.651L259.524 100.719H259.497L258.073 99.9822H258.178L255.367 102.694V102.663C254.945 104.163 254.583 105.46 254.288 106.505V106.527L251.985 107.689L251.387 107.983L251.146 108.046Z" fill="#FF9A6C"/>
<path d="M239.433 125.005C239.524 124.946 239.62 124.895 239.719 124.851L240.557 124.435L243.731 122.926L254.661 117.773L254.602 117.913C253.894 115.988 253.133 113.904 252.335 111.748C251.782 110.22 251.238 108.733 250.717 107.296L250.871 107.363L239.732 112.028H239.71C238.797 112.107 237.899 112.307 237.039 112.625C236.394 112.862 235.804 113.23 235.308 113.705C234.994 114.006 234.744 114.368 234.573 114.767C234.519 114.903 234.487 115.011 234.465 115.084C234.459 115.122 234.448 115.16 234.433 115.197C234.425 115.158 234.425 115.118 234.433 115.079C234.455 114.967 234.485 114.857 234.523 114.749C234.68 114.335 234.921 113.958 235.231 113.642C235.729 113.146 236.325 112.758 236.981 112.503C237.853 112.166 238.769 111.951 239.701 111.865H239.673L250.78 107.142L250.893 107.097L250.934 107.21C251.46 108.647 252.004 110.134 252.557 111.657C253.346 113.813 254.103 115.902 254.824 117.827L254.86 117.927L254.765 117.972L243.803 123.043L240.63 124.499L239.773 124.878C239.662 124.927 239.549 124.97 239.433 125.005Z" fill="#263238"/>
<path d="M243.232 96.208C242.963 95.7782 242.716 95.3346 242.493 94.8791C242.04 94.0519 241.396 92.9355 240.594 91.7512C239.791 90.567 238.989 89.5545 238.386 88.8313C238.044 88.4574 237.723 88.0651 237.425 87.6561C237.425 87.6561 237.547 87.7375 237.738 87.9228C237.928 88.1081 238.191 88.3748 238.513 88.7228C240.164 90.5498 241.554 92.5956 242.643 94.8022C242.847 95.2226 243.005 95.5706 243.096 95.8192C243.161 95.9412 243.207 96.0722 243.232 96.208Z" fill="#263238"/>
<path d="M243.68 98.4228C243.662 98.6186 243.619 98.8114 243.553 98.9968C243.454 99.3584 243.304 99.9008 243.1 100.52C242.715 101.808 242.166 103.58 241.541 105.528C240.915 107.476 240.317 109.235 239.868 110.5C239.641 111.129 239.455 111.639 239.315 111.992C239.257 112.178 239.178 112.357 239.079 112.525C239.111 112.333 239.161 112.144 239.229 111.96C239.356 111.558 239.519 111.056 239.709 110.446C240.135 109.122 240.693 107.381 241.314 105.474C241.935 103.567 242.511 101.813 242.942 100.502L243.454 99.0013C243.509 98.8011 243.585 98.6072 243.68 98.4228Z" fill="#263238"/>
</svg>
