<svg width="340" height="230" viewBox="0 0 340 230" fill="none" xmlns="http://www.w3.org/2000/svg">
<path d="M164.959 228.522C223.733 228.522 271.379 226.068 271.379 223.041C271.379 220.014 223.733 217.56 164.959 217.56C106.185 217.56 58.5391 220.014 58.5391 223.041C58.5391 226.068 106.185 228.522 164.959 228.522Z" fill="#263238"/>
<path d="M102.29 125.862H233.741C234.515 125.862 235.257 126.169 235.804 126.717C236.351 127.264 236.658 128.006 236.658 128.779V213.167H99.3662V128.779C99.3662 128.396 99.4419 128.016 99.5889 127.661C99.7359 127.307 99.9514 126.985 100.223 126.714C100.495 126.443 100.817 126.228 101.172 126.082C101.526 125.936 101.907 125.861 102.29 125.862Z" fill="#2A64F6" stroke="#263238" stroke-linecap="round" stroke-linejoin="round"/>
<path d="M109.342 132.485H226.69C227.073 132.485 227.452 132.561 227.806 132.707C228.16 132.854 228.481 133.069 228.752 133.34C229.023 133.611 229.238 133.932 229.385 134.286C229.531 134.64 229.607 135.019 229.607 135.402V214.344H106.418V135.409C106.417 135.025 106.492 134.644 106.639 134.289C106.785 133.934 107.001 133.611 107.272 133.34C107.544 133.068 107.867 132.853 108.222 132.706C108.577 132.559 108.958 132.484 109.342 132.485Z" fill="#263238" stroke="#263238" stroke-linecap="round" stroke-linejoin="round"/>
<path d="M235.482 220.219H94.4359C87.9419 220.219 82.6787 216.288 82.6787 211.44H247.239C247.239 216.288 241.976 220.219 235.482 220.219Z" fill="#2A64F6" stroke="#263238" stroke-linecap="round" stroke-linejoin="round"/>
<path d="M167.427 45.4724C158.37 54.088 135.202 62.792 108.186 81.254C108.186 81.254 109.872 143.637 167.427 177.739V45.4724Z" fill="#2A64F6" stroke="#263238" stroke-linecap="round" stroke-linejoin="round"/>
<path d="M167.427 45.4724C176.478 54.088 199.652 62.792 226.668 81.254C226.668 81.254 224.982 143.637 167.427 177.739V45.4724Z" fill="#263238" stroke="#263238" stroke-linecap="round" stroke-linejoin="round"/>
<path d="M167.427 50.7832C156.499 58.5284 137.561 65.9132 112.53 83.0152C112.53 83.0152 114.094 140.815 167.427 172.428C220.759 140.829 222.323 83.0152 222.323 83.0152C197.285 65.92 178.436 58.5284 167.427 50.7832Z" fill="#263238" stroke="#263238" stroke-linecap="round" stroke-linejoin="round"/>
<path d="M212.967 76.8748C174.778 88.4348 145.647 121.993 132.4 139.693C141.512 153.06 153.475 164.241 167.427 172.428C220.76 140.829 222.324 83.0152 222.324 83.0152C219.1 80.8211 215.981 78.7743 212.967 76.8748Z" fill="#2A64F6" stroke="#263238" stroke-linecap="round" stroke-linejoin="round"/>
<path d="M188.222 109.066H147.279C146.377 109.066 145.512 108.708 144.875 108.07C144.237 107.433 143.879 106.568 143.879 105.666V86.3948C143.985 80.1371 146.545 74.1714 151.007 69.7834C155.47 65.3954 161.478 62.9364 167.737 62.9364C173.995 62.9364 180.003 65.3954 184.466 69.7834C188.929 74.1714 191.489 80.1371 191.595 86.3948V105.666C191.595 106.563 191.24 107.424 190.608 108.061C189.977 108.697 189.119 109.059 188.222 109.066ZM150.706 102.266H184.822V86.3948C184.733 81.9298 182.896 77.6777 179.707 74.5515C176.518 71.4253 172.23 69.6742 167.764 69.6742C163.298 69.6742 159.01 71.4253 155.821 74.5515C152.632 77.6777 150.795 81.9298 150.706 86.3948V102.266Z" fill="white" stroke="#263238" stroke-linecap="round" stroke-linejoin="round"/>
<path d="M193.471 99.7772H141.383V143.794H193.471V99.7772Z" fill="white" stroke="#263238" stroke-linecap="round" stroke-linejoin="round"/>
<path d="M172.839 118.056C172.839 117.053 172.574 116.069 172.069 115.202C171.565 114.336 170.84 113.619 169.968 113.124C169.097 112.629 168.109 112.374 167.107 112.385C166.105 112.396 165.123 112.672 164.262 113.186C163.401 113.699 162.692 114.432 162.207 115.309C161.721 116.186 161.477 117.176 161.498 118.178C161.52 119.181 161.807 120.159 162.33 121.014C162.853 121.87 163.593 122.571 164.475 123.047L163.523 133.043H170.813L169.861 123.047C170.763 122.562 171.516 121.842 172.04 120.963C172.565 120.084 172.841 119.079 172.839 118.056Z" fill="#263238" stroke="#263238" stroke-linecap="round" stroke-linejoin="round"/>
<path d="M270.052 109.501L269.971 108.481" stroke="#263238" stroke-linecap="round" stroke-linejoin="round"/>
<path d="M269.774 106.448C267.081 80.9602 255.194 57.3268 236.336 39.97C217.478 22.6131 192.942 12.7221 167.319 12.1478C141.695 11.5735 116.741 20.3552 97.1244 36.8497C77.5078 53.3442 64.5735 76.4213 60.7415 101.763C60.4514 103.694 60.2247 105.632 60.0615 107.577" stroke="#263238" stroke-linecap="round" stroke-linejoin="round" stroke-dasharray="3.01 3.01"/>
<path d="M59.939 108.583L59.8574 109.596" stroke="#263238" stroke-linecap="round" stroke-linejoin="round"/>
<path d="M83.3522 91.7804L89.377 67.2664H71.0986L83.3522 91.7804Z" fill="#263238" stroke="#263238" stroke-linecap="round" stroke-linejoin="round"/>
<path d="M83.3518 91.7804L84.6914 68.198H73.0566L83.3518 91.7804Z" fill="#2A64F6" stroke="#263238" stroke-linecap="round" stroke-linejoin="round"/>
<path d="M83.3519 91.7804L82.1075 66.362H70.4727L83.3519 91.7804Z" fill="#2A64F6" stroke="#263238" stroke-linecap="round" stroke-linejoin="round"/>
<path d="M61.6331 65.1856L58.6343 61.7924H42.8447L50.2499 91.7804H83.3523L78.1027 65.1856H61.6331Z" fill="#263238" stroke="#263238" stroke-linecap="round" stroke-linejoin="round"/>
<path d="M118.487 18.7756H79.0542C77.6759 18.7756 76.5586 19.8929 76.5586 21.2712V42.5756C76.5586 43.9539 77.6759 45.0712 79.0542 45.0712H118.487C119.866 45.0712 120.983 43.9539 120.983 42.5756V21.2712C120.983 19.8929 119.866 18.7756 118.487 18.7756Z" fill="#263238" stroke="#263238" stroke-linecap="round" stroke-linejoin="round"/>
<path d="M120.983 23.76H76.5586V33.28H120.983V23.76Z" fill="#2A64F6" stroke="#263238" stroke-linecap="round" stroke-linejoin="round"/>
<path d="M111.605 40.8688C111.605 40.5016 111.496 40.1427 111.293 39.8374C111.089 39.5322 110.799 39.2942 110.459 39.1537C110.12 39.0132 109.747 38.9764 109.387 39.0481C109.027 39.1197 108.696 39.2965 108.436 39.5561C108.177 39.8157 108 40.1465 107.928 40.5066C107.857 40.8667 107.893 41.24 108.034 41.5792C108.174 41.9184 108.412 42.2084 108.718 42.4123C109.023 42.6163 109.382 42.7252 109.749 42.7252C110.241 42.7252 110.714 42.5296 111.062 42.1815C111.41 41.8333 111.605 41.3611 111.605 40.8688Z" fill="white" stroke="#263238" stroke-linecap="round" stroke-linejoin="round"/>
<path d="M116.767 40.8688C116.767 40.5016 116.659 40.1427 116.455 39.8374C116.251 39.5322 115.961 39.2942 115.622 39.1537C115.282 39.0132 114.909 38.9764 114.549 39.0481C114.189 39.1197 113.858 39.2965 113.598 39.5561C113.339 39.8157 113.162 40.1465 113.09 40.5066C113.019 40.8667 113.055 41.24 113.196 41.5792C113.337 41.9184 113.574 42.2084 113.88 42.4123C114.185 42.6163 114.544 42.7252 114.911 42.7252C115.403 42.7252 115.876 42.5296 116.224 42.1815C116.572 41.8333 116.767 41.3611 116.767 40.8688Z" fill="white" stroke="#263238" stroke-linecap="round" stroke-linejoin="round"/>
<path d="M192.207 1.1568H144.634V32.0016H192.207V1.1568Z" fill="#2A64F6" stroke="#263238" stroke-linecap="round" stroke-linejoin="round"/>
<path d="M190.051 3.11517H146.952V29.7916H190.051V3.11517Z" fill="#263238" stroke="#263238" stroke-linecap="round" stroke-linejoin="round"/>
<path d="M159.559 21.72C159.559 18.8096 157.193 13.8048 154.283 13.8048C151.372 13.8048 148.999 18.8096 148.999 21.72C148.999 24.6304 151.365 25.3512 154.283 25.3512C157.2 25.3512 159.559 24.61 159.559 21.72Z" fill="white" stroke="#263238" stroke-linecap="round" stroke-linejoin="round"/>
<path d="M154.283 14.7704C156.288 14.7704 157.914 13.1447 157.914 11.1392C157.914 9.13374 156.288 7.508 154.283 7.508C152.277 7.508 150.651 9.13374 150.651 11.1392C150.651 13.1447 152.277 14.7704 154.283 14.7704Z" fill="white" stroke="#263238" stroke-linecap="round" stroke-linejoin="round"/>
<path d="M164.836 8.19482H173.628" stroke="white" stroke-width="2" stroke-linecap="round" stroke-linejoin="round"/>
<path d="M164.836 12.0028H173.628" stroke="white" stroke-width="2" stroke-linecap="round" stroke-linejoin="round"/>
<path d="M164.836 18.7484H185.352" stroke="white" stroke-width="2" stroke-linecap="round" stroke-linejoin="round"/>
<path d="M164.836 23.7328H185.352" stroke="white" stroke-width="2" stroke-linecap="round" stroke-linejoin="round"/>
<path d="M257.31 18.7756H221.929C219.74 18.7756 217.965 20.5505 217.965 22.74V41.1544C217.965 43.3439 219.74 45.1188 221.929 45.1188H257.31C259.499 45.1188 261.274 43.3439 261.274 41.1544V22.74C261.274 20.5505 259.499 18.7756 257.31 18.7756Z" fill="#263238" stroke="#263238" stroke-width="2" stroke-linecap="round" stroke-linejoin="round"/>
<path d="M241.35 31.2876L261.274 21.21V20.7476C261.274 20.2246 261.066 19.723 260.696 19.3532C260.327 18.9833 259.825 18.7756 259.302 18.7756H219.944C219.42 18.7756 218.918 18.9831 218.547 19.3527C218.176 19.7224 217.967 20.2239 217.965 20.7476V21.2984L237.528 31.3352C238.125 31.6262 238.781 31.7735 239.445 31.7652C240.109 31.7569 240.761 31.5934 241.35 31.2876Z" fill="#2A64F6" stroke="#263238" stroke-width="2" stroke-linecap="round" stroke-linejoin="round"/>
<path d="M283.108 64.7028H244.845C243.324 64.7028 242.091 65.9358 242.091 67.4568V84.042C242.091 85.563 243.324 86.796 244.845 86.796H283.108C284.629 86.796 285.862 85.563 285.862 84.042V67.4568C285.862 65.9358 284.629 64.7028 283.108 64.7028Z" fill="#263238"/>
<path d="M242.098 81.016V92.882L248.714 85.266" fill="#263238"/>
<path d="M257.357 76.154C257.358 75.7042 257.226 75.2641 256.977 74.8896C256.728 74.5151 256.373 74.2229 255.958 74.0502C255.543 73.8774 255.085 73.8319 254.644 73.9193C254.203 74.0067 253.798 74.2232 253.48 74.5412C253.162 74.8592 252.945 75.2646 252.858 75.7058C252.77 76.147 252.816 76.6042 252.989 77.0195C253.161 77.4347 253.454 77.7894 253.828 78.0384C254.203 78.2875 254.643 78.4197 255.092 78.4184C255.692 78.4166 256.267 78.1774 256.692 77.7532C257.116 77.3289 257.355 76.754 257.357 76.154Z" fill="#2A64F6"/>
<path d="M267.075 76.154C267.076 75.7042 266.944 75.2641 266.695 74.8896C266.446 74.5151 266.091 74.2229 265.676 74.0502C265.26 73.8774 264.803 73.8319 264.362 73.9193C263.921 74.0067 263.515 74.2232 263.197 74.5412C262.879 74.8592 262.663 75.2646 262.576 75.7058C262.488 76.147 262.534 76.6042 262.706 77.0195C262.879 77.4347 263.171 77.7894 263.546 78.0384C263.92 78.2875 264.36 78.4197 264.81 78.4184C265.41 78.4166 265.985 78.1774 266.409 77.7532C266.834 77.3289 267.073 76.754 267.075 76.154Z" fill="#2A64F6"/>
<path d="M276.798 76.154C276.8 75.7045 276.668 75.2647 276.419 74.8903C276.17 74.5159 275.816 74.2238 275.401 74.0508C274.986 73.8779 274.529 73.8319 274.088 73.9188C273.647 74.0057 273.242 74.2214 272.923 74.5388C272.605 74.8561 272.388 75.2608 272.3 75.7016C272.212 76.1423 272.256 76.5993 272.428 77.0147C272.6 77.4301 272.891 77.7853 273.265 78.0351C273.638 78.285 274.078 78.4184 274.527 78.4184C275.128 78.4166 275.703 78.1777 276.129 77.7536C276.554 77.3295 276.795 76.7546 276.798 76.154Z" fill="#2A64F6"/>
<path d="M83.1206 119.824C83.0144 119.684 82.8775 119.572 82.7207 119.494C82.5639 119.416 82.3913 119.375 82.2162 119.375H52.8402L51.7114 115.975C51.6348 115.749 51.4892 115.553 51.2953 115.414C51.1014 115.275 50.8689 115.2 50.6302 115.2H43.191C42.9042 115.222 42.6362 115.351 42.4408 115.563C42.2453 115.774 42.1367 116.051 42.1367 116.339C42.1367 116.626 42.2453 116.903 42.4408 117.115C42.6362 117.326 42.9042 117.455 43.191 117.478H49.8075L56.9814 139C57.0572 139.226 57.2025 139.423 57.3966 139.562C57.5908 139.701 57.8238 139.776 58.0626 139.775H58.4775C58.0689 140.404 57.8516 141.139 57.8518 141.89C57.8482 142.502 57.9878 143.107 58.2594 143.656C58.5309 144.205 58.927 144.682 59.416 145.051C59.905 145.42 60.4734 145.669 61.0758 145.779C61.6782 145.889 62.2981 145.857 62.8858 145.685C63.4736 145.513 64.013 145.206 64.4612 144.789C64.9093 144.371 65.2536 143.855 65.4668 143.281C65.68 142.707 65.756 142.091 65.6889 141.482C65.6218 140.873 65.4134 140.289 65.0802 139.775H70.5202C70.1117 140.404 69.8944 141.139 69.8946 141.89C69.8726 142.419 69.9579 142.947 70.1453 143.443C70.3327 143.939 70.6184 144.391 70.9852 144.774C71.3521 145.156 71.7924 145.461 72.2799 145.668C72.7673 145.876 73.2917 145.983 73.8216 145.983C74.3516 145.983 74.876 145.876 75.3634 145.668C75.8509 145.461 76.2912 145.156 76.6581 144.774C77.0249 144.391 77.3106 143.939 77.498 143.443C77.6854 142.947 77.7707 142.419 77.7486 141.89C77.7489 141.139 77.5316 140.404 77.123 139.775H78.0002C78.1572 139.787 78.315 139.766 78.4637 139.715C78.6124 139.663 78.7488 139.581 78.8644 139.474C78.9799 139.367 79.0721 139.238 79.1351 139.093C79.1982 138.949 79.2307 138.793 79.2307 138.636C79.2307 138.478 79.1982 138.323 79.1351 138.178C79.0721 138.034 78.9799 137.904 78.8644 137.797C78.7488 137.69 78.6124 137.609 78.4637 137.557C78.315 137.505 78.1572 137.485 78.0002 137.497H58.8786L57.6206 133.736H78.959C79.2097 133.736 79.4534 133.654 79.6525 133.501C79.8516 133.349 79.995 133.135 80.0606 132.893L83.311 120.816C83.3587 120.647 83.3662 120.47 83.3332 120.297C83.3001 120.125 83.2274 119.963 83.1206 119.824ZM61.7754 143.535C61.45 143.535 61.1318 143.439 60.8612 143.258C60.5906 143.077 60.3797 142.82 60.2551 142.519C60.1306 142.219 60.098 141.888 60.1615 141.569C60.225 141.249 60.3817 140.956 60.6118 140.726C60.842 140.496 61.1352 140.339 61.4544 140.276C61.7736 140.212 62.1045 140.245 62.4052 140.369C62.7059 140.494 62.9629 140.705 63.1437 140.975C63.3245 141.246 63.421 141.564 63.421 141.89C63.4193 142.325 63.2453 142.743 62.9371 143.051C62.6289 143.359 62.2113 143.533 61.7754 143.535ZM73.859 143.535C73.5336 143.535 73.2154 143.439 72.9448 143.258C72.6742 143.077 72.4633 142.82 72.3387 142.519C72.2142 142.219 72.1816 141.888 72.2451 141.569C72.3086 141.249 72.4653 140.956 72.6954 140.726C72.9256 140.496 73.2188 140.339 73.538 140.276C73.8572 140.212 74.1881 140.245 74.4888 140.369C74.7895 140.494 75.0465 140.705 75.2273 140.975C75.4081 141.246 75.5046 141.564 75.5046 141.89C75.5038 142.107 75.4599 142.322 75.3756 142.523C75.2913 142.724 75.1683 142.906 75.0135 143.058C74.8587 143.211 74.6752 143.332 74.4736 143.414C74.272 143.496 74.0562 143.537 73.8386 143.535H73.859ZM76.8986 131.458H72.6758V121.68H76.8986V131.458ZM66.1682 121.68H70.391V131.479H66.1682V121.68ZM63.8902 131.479H59.6675V121.68H63.8902V131.479ZM53.6018 121.68H57.3826V131.479H56.8726L53.6018 121.68ZM79.1766 127.446V121.68H80.727L79.1766 127.446Z" fill="#263238"/>
<path d="M268.421 114.316C265.17 114.314 261.991 115.277 259.287 117.083C256.583 118.888 254.476 121.455 253.231 124.458C251.986 127.462 251.66 130.767 252.294 133.956C252.928 137.145 254.493 140.074 256.792 142.373C259.091 144.672 262.021 146.237 265.209 146.871C268.398 147.505 271.703 147.179 274.707 145.934C277.71 144.69 280.277 142.582 282.083 139.878C283.888 137.174 284.851 133.996 284.85 130.744C284.844 126.389 283.112 122.213 280.032 119.133C276.952 116.054 272.776 114.321 268.421 114.316ZM268.421 116.356C269.781 116.356 271.263 118.137 272.311 121.116H264.531C265.599 118.137 267.041 116.356 268.421 116.356ZM272.902 123.156C273.402 125.304 273.677 127.499 273.725 129.704H263.11C263.158 127.499 263.433 125.304 263.933 123.156H272.902ZM273.759 131.764C273.703 134.334 273.324 136.886 272.63 139.36H264.239C263.559 136.893 263.191 134.35 263.144 131.792L273.759 131.764ZM261.097 129.724H254.073C254.238 127.402 254.966 125.154 256.195 123.176H261.825C261.363 125.33 261.108 127.522 261.063 129.724H261.097ZM261.097 131.764C261.131 134.325 261.458 136.873 262.07 139.36H256.895C255.245 137.161 254.266 134.533 254.073 131.792L261.097 131.764ZM262.709 141.4C263.109 142.515 263.643 143.576 264.3 144.562C262.235 143.938 260.336 142.857 258.745 141.4H262.709ZM264.919 141.4H271.916C270.917 143.78 269.631 145.167 268.421 145.167C267.211 145.167 265.925 143.753 264.919 141.4ZM274.126 141.4H278.091C276.499 142.857 274.601 143.938 272.535 144.562C273.192 143.576 273.726 142.515 274.126 141.4ZM274.765 139.36C275.401 136.876 275.748 134.328 275.799 131.764H282.789C282.594 134.518 281.604 137.157 279.94 139.36H274.765ZM275.799 129.724C275.754 127.522 275.499 125.33 275.037 123.176H280.668C281.896 125.154 282.624 127.402 282.789 129.724H275.799ZM279.131 121.136H274.5C274.062 119.657 273.409 118.25 272.562 116.961C275.083 117.729 277.345 119.173 279.104 121.136H279.131ZM264.327 116.961C263.481 118.249 262.83 119.656 262.396 121.136H257.759C259.517 119.173 261.779 117.729 264.3 116.961H264.327Z" fill="#263238"/>
</svg>
