<svg width="340" height="230" viewBox="0 0 340 230" fill="none" xmlns="http://www.w3.org/2000/svg">
<path d="M30.5322 196.347H315.656C315.656 196.347 308.775 182.59 299.833 178.116C290.891 173.642 286.076 182.59 275.067 176.396C264.058 170.201 266.472 155.764 254.089 147.156C241.706 138.547 228.637 148.189 217.287 147.502C205.938 146.816 202.497 131.679 190.087 129.958C177.677 128.238 178.045 142.559 166.695 146.816C155.346 151.072 147.519 144.143 139.529 144.408C131.539 144.674 132.995 149.563 125.426 153.004C117.858 156.444 116.484 154.724 102.041 156.098C87.5978 157.471 84.157 172.261 78.9958 176.389C73.8346 180.516 66.9598 173.982 56.2974 176.389C45.635 178.796 30.5322 196.347 30.5322 196.347Z" fill="#2A64F6"/>
<g opacity="0.8">
<path d="M30.5322 196.347H315.656C315.656 196.347 308.775 182.59 299.833 178.116C290.891 173.642 286.076 182.59 275.067 176.396C264.058 170.201 266.472 155.764 254.089 147.156C241.706 138.547 228.637 148.189 217.287 147.502C205.938 146.816 202.497 131.679 190.087 129.958C177.677 128.238 178.045 142.559 166.695 146.816C155.346 151.072 147.519 144.143 139.529 144.408C131.539 144.674 132.995 149.563 125.426 153.004C117.858 156.444 116.484 154.724 102.041 156.098C87.5978 157.471 84.157 172.261 78.9958 176.389C73.8346 180.516 66.9598 173.982 56.2974 176.389C45.635 178.796 30.5322 196.347 30.5322 196.347Z" fill="white"/>
</g>
<path d="M155.244 214.02C195.075 214.02 227.365 211.731 227.365 208.906C227.365 206.082 195.075 203.793 155.244 203.793C115.413 203.793 83.123 206.082 83.123 208.906C83.123 211.731 115.413 214.02 155.244 214.02Z" fill="#2A64F6"/>
<path d="M222.822 205.506C245.404 205.506 263.71 204.362 263.71 202.95C263.71 201.538 245.404 200.393 222.822 200.393C200.24 200.393 181.934 201.538 181.934 202.95C181.934 204.362 200.24 205.506 222.822 205.506Z" fill="#2A64F6"/>
<g opacity="0.6">
<path d="M155.244 214.02C195.075 214.02 227.365 211.731 227.365 208.906C227.365 206.082 195.075 203.793 155.244 203.793C115.413 203.793 83.123 206.082 83.123 208.906C83.123 211.731 115.413 214.02 155.244 214.02Z" fill="white"/>
<path d="M222.822 205.506C245.404 205.506 263.71 204.362 263.71 202.95C263.71 201.538 245.404 200.393 222.822 200.393C200.24 200.393 181.934 201.538 181.934 202.95C181.934 204.362 200.24 205.506 222.822 205.506Z" fill="white"/>
</g>
<path d="M154.721 132.658L167.403 123.573" stroke="#263238" stroke-width="0.835087" stroke-linecap="round" stroke-linejoin="round"/>
<path d="M194.806 195.769L194.092 203.827C194.092 203.827 190.481 205.411 190.488 205.942C190.495 206.472 191.168 207.2 194.113 207.2C197.057 207.2 198.016 206.084 198.016 205.248C198.016 204.412 204.285 197.442 204.285 197.442C204.439 197.023 204.482 196.572 204.409 196.132C204.336 195.692 204.151 195.279 203.871 194.932C202.891 193.817 199.546 193.681 199.546 193.681L194.806 195.769Z" fill="#2A64F6"/>
<path d="M190.495 206.479C190.495 206.479 195.398 206.159 196.71 205.411C198.023 204.663 202.694 197.55 203.068 196.986C203.313 196.525 203.441 196.012 203.442 195.49" stroke="#263238" stroke-width="0.417543" stroke-linecap="round" stroke-linejoin="round"/>
<path d="M201.09 193.797C201.09 193.797 205.068 194.552 204.687 196.258C204.306 197.965 198.064 205.534 197.118 206.458C196.173 207.383 190.318 207.404 190.495 206.458C190.672 205.513 194.092 203.806 194.092 203.806L195.228 197.006" stroke="#263238" stroke-width="0.835087" stroke-linecap="round" stroke-linejoin="round"/>
<path d="M117.314 202.317L105.604 208.036C105.604 208.036 104.074 209.151 107.141 209.151C110.208 209.151 126.372 209.287 126.372 209.287C126.372 209.287 128.187 209.709 128.602 208.872C129.282 207.512 129.581 206.642 129.16 206.22C128.738 205.799 117.314 202.317 117.314 202.317Z" fill="#2A64F6"/>
<path d="M106.706 207.839H127.48" stroke="#263238" stroke-width="0.417543" stroke-linecap="round" stroke-linejoin="round"/>
<path d="M116.525 203.045C116.525 203.045 104.598 208.158 104.788 208.723C104.979 209.287 116.899 209.294 121.442 209.294C125.984 209.294 129.207 209.484 129.207 208.349" stroke="#263238" stroke-width="0.835087" stroke-linecap="round" stroke-linejoin="round"/>
<path d="M201.091 193.797L161.725 165.026L160.365 136.065C158.915 137.342 157.277 138.39 155.51 139.172C153.076 140.104 138.973 147.23 138.973 147.23C138.973 147.23 145.222 169.378 146.357 171.275C147.493 173.172 195.195 197.013 195.195 197.013L201.091 193.797Z" fill="#263238"/>
<path d="M129.201 207.213C129.201 207.213 127.684 206.832 125.984 206.452C124.284 206.071 116.519 203.052 116.519 203.052C116.365 202.434 116.301 201.797 116.328 201.161C116.348 200.751 116.461 200.351 116.657 199.991C116.854 199.63 117.13 199.319 117.464 199.08C117.464 199.08 87.9314 159.708 87.1766 158.573C86.4218 157.437 86.9862 155.54 92.0998 151.569C97.2134 147.598 130.669 127.177 130.669 127.177C129.384 125.654 131.805 124.716 131.805 124.716L134.838 125.661L154.714 132.665L162.663 127.368C162.663 127.368 163.989 132.284 159.066 136.072C154.143 139.859 109.134 159.872 109.134 159.872L108.386 159.919L128.636 204.16C128.636 204.16 129.996 206.581 129.201 207.213Z" fill="#263238"/>
<path d="M104.088 154.887L107.828 159.566L106.332 153.391" stroke="white" stroke-width="0.835087" stroke-linecap="round" stroke-linejoin="round"/>
<path d="M140.951 147.591C140.951 147.591 148.622 159.566 151.43 162" stroke="white" stroke-width="0.835087" stroke-linecap="round" stroke-linejoin="round"/>
<path d="M142.072 147.217C144.187 149.067 146.437 150.756 148.804 152.269" stroke="white" stroke-width="0.835087" stroke-linecap="round" stroke-linejoin="round"/>
<g style="mix-blend-mode:multiply">
<path d="M155.523 83.8204L128.962 101.922L134.769 125.858L154.482 132.468L180.785 113.727L177.609 89.648L155.523 83.8204Z" fill="#2A64F6"/>
</g>
<path d="M129.105 101.922L130.792 109.402" stroke="#263238" stroke-width="0.835087" stroke-linecap="round" stroke-linejoin="round"/>
<path d="M132.192 114.862L134.844 125.654L154.721 132.658L152.259 114.862" stroke="#263238" stroke-width="0.835087" stroke-linecap="round" stroke-linejoin="round"/>
<path d="M152.068 113.353L151.313 108.81" stroke="#263238" stroke-width="0.835087" stroke-linecap="round" stroke-linejoin="round"/>
<path d="M175.542 117.895L180.839 113.917L178.187 91.3956" stroke="#263238" stroke-width="0.835087" stroke-linecap="round" stroke-linejoin="round"/>
<path d="M153.959 107.484L168.348 96.6927" stroke="#263238" stroke-width="0.835087" stroke-linecap="round" stroke-linejoin="round"/>
<path d="M167.593 87.0368L155.666 83.8204L129.54 101.616" stroke="#263238" stroke-width="0.835087" stroke-linecap="round" stroke-linejoin="round"/>
<path d="M129.73 102.371L133.708 103.506" stroke="#263238" stroke-width="0.835087" stroke-linecap="round" stroke-linejoin="round"/>
<path d="M140.522 105.023L151.314 108.049" stroke="#263238" stroke-width="0.835087" stroke-linecap="round" stroke-linejoin="round"/>
<path d="M165.696 86.6628L149.417 99.1544" stroke="#263238" stroke-width="0.417543" stroke-linecap="round" stroke-linejoin="round"/>
<path d="M148.091 100.29L142.223 104.832" stroke="#263238" stroke-width="0.417543" stroke-linecap="round" stroke-linejoin="round"/>
<path d="M166.104 76.218C166.104 76.218 170.239 110.32 170.239 111.836C170.239 113.353 166.451 114.108 166.451 115.998C166.345 117.548 166.027 119.077 165.506 120.54C165.506 120.54 164.751 121.302 164.751 121.9C164.751 122.499 166.077 122.281 167.213 121.717C168.348 121.152 168.722 119.065 168.722 119.065C168.462 120.316 168.274 121.58 168.158 122.852L167.403 123.607C167.403 123.607 165.132 125.688 166.641 125.878C168.151 126.069 175.162 123.417 175.543 121.717C175.923 120.017 174.591 111.87 174.591 111.87C174.591 111.87 180.085 73.4436 180.085 69.8464C180.111 68.8411 179.837 67.8508 179.296 67.0026C178.756 66.1545 177.975 65.4872 177.052 65.0864" fill="white"/>
<mask id="mask0_250_3864" style="mask-type:luminance" maskUnits="userSpaceOnUse" x="164" y="65" width="17" height="61">
<path d="M166.104 76.218C166.104 76.218 170.239 110.32 170.239 111.836C170.239 113.353 166.451 114.108 166.451 115.998C166.345 117.548 166.027 119.077 165.506 120.54C165.506 120.54 164.751 121.302 164.751 121.9C164.751 122.499 166.077 122.281 167.213 121.717C168.348 121.152 168.722 119.065 168.722 119.065C168.462 120.316 168.274 121.58 168.158 122.852L167.403 123.607C167.403 123.607 165.132 125.688 166.641 125.878C168.151 126.069 175.162 123.417 175.543 121.717C175.923 120.017 174.591 111.87 174.591 111.87C174.591 111.87 180.085 73.4436 180.085 69.8464C180.111 68.8411 179.837 67.8508 179.296 67.0026C178.756 66.1545 177.975 65.4872 177.052 65.0864" fill="white"/>
</mask>
<g mask="url(#mask0_250_3864)">
<g style="mix-blend-mode:multiply" opacity="0.3">
<path d="M180.057 74.6336C179.262 71.6076 178.398 66.1132 178.398 66.1132L174.794 65.0184L170.034 70.7372L173.795 68.4252V113.802C173.795 116.114 170.905 125.069 170.905 125.069C170.905 125.069 176.882 123.811 175.916 118.371C174.951 112.931 173.795 113.802 175.529 102.82C177.263 91.8376 180.88 77.68 180.057 74.6336Z" fill="#2A64F6"/>
</g>
</g>
<path d="M166.104 76.218C166.104 76.218 170.239 110.32 170.239 111.836C170.239 113.353 166.451 114.108 166.451 115.998C166.345 117.548 166.027 119.077 165.506 120.54C165.506 120.54 164.751 121.302 164.751 121.9C164.751 122.499 166.077 122.281 167.213 121.717C168.348 121.152 168.722 119.065 168.722 119.065C168.462 120.316 168.274 121.58 168.158 122.852L167.403 123.607C167.403 123.607 165.132 125.688 166.641 125.878C168.151 126.069 175.162 123.417 175.543 121.717C175.923 120.017 174.591 111.87 174.591 111.87C174.591 111.87 180.085 73.4436 180.085 69.8464C180.111 68.8411 179.837 67.8508 179.296 67.0026C178.756 66.1545 177.975 65.4872 177.052 65.0864" stroke="#263238" stroke-width="0.835087" stroke-linecap="round" stroke-linejoin="round"/>
<path d="M170.681 121.397C170.887 122.205 170.82 123.059 170.49 123.825C170.118 124.433 169.68 124.999 169.185 125.511" stroke="#263238" stroke-width="0.417543" stroke-linecap="round" stroke-linejoin="round"/>
<path d="M172.944 121.397C172.833 122.162 172.644 122.914 172.38 123.641" stroke="#263238" stroke-width="0.417543" stroke-linecap="round" stroke-linejoin="round"/>
<path d="M174.631 120.833C174.516 121.597 174.327 122.349 174.066 123.077" stroke="#263238" stroke-width="0.417543" stroke-linecap="round" stroke-linejoin="round"/>
<path d="M113.479 49.9632C113.261 48.0048 109.344 44.3056 103.904 43.2176C98.4645 42.1296 92.5825 42.1296 90.4065 43.8976C89.5905 44.5436 89.0465 46.0464 88.6929 47.6648C89.0805 46.8352 89.8625 45.1556 90.6717 44.4824C94.6769 41.1436 95.7921 43.1224 96.4585 46.0396C97.1249 48.9568 96.2341 56.9196 96.2341 56.9196C96.2341 56.9196 87.1085 59.592 88.4413 54.9136C88.2456 54.2469 88.109 53.5642 88.0333 52.8736C88.0333 53.2204 88.0333 53.4312 88.0333 53.4312L87.5981 56.26L83.8989 56.94L71.0469 56.532C71.0469 56.532 77.5885 60.612 81.2877 60.612C83.6782 60.5135 85.9688 59.6264 87.8021 58.0892L111.602 59.9048C111.602 59.9048 113.696 51.9216 113.479 49.9632Z" fill="#2A64F6"/>
<path d="M85.7347 56.7496L71.0195 56.5252C71.0195 56.5252 75.0995 60.374 80.5395 60.374C85.9795 60.374 87.7883 58.1096 87.7883 58.1096L111.588 59.9252C111.588 59.9252 114.696 54.0024 113.112 48.8004C111.527 43.5984 97.2471 41.8508 93.2759 42.8096C88.3663 43.9996 88.0399 48.1476 88.0399 50.412C88.0041 52.082 87.8519 53.7475 87.5843 55.3964" stroke="#263238" stroke-width="0.835087" stroke-linecap="round" stroke-linejoin="round"/>
<mask id="mask1_250_3864" style="mask-type:luminance" maskUnits="userSpaceOnUse" x="85" y="58" width="28" height="30">
<path d="M86.8701 58.7896C86.8701 58.7896 84.3745 64.6784 85.5101 65.5896C86.6457 66.5008 87.3189 66.9496 87.3189 66.9496C87.3189 66.9496 87.9989 74.8715 89.1277 76.2315C90.2565 77.5915 97.5053 75.3271 97.5053 75.3271C97.5053 75.3271 112.2 90.0355 112.676 87.3155C113.152 84.5955 111.316 74.3955 111.316 73.2803C111.316 72.1651 108.147 69.2003 108.147 69.2003" fill="white"/>
</mask>
<g mask="url(#mask1_250_3864)">
<g style="mix-blend-mode:multiply" opacity="0.3">
<path d="M99.4908 59.1227L89.8824 59.2927C89.8824 59.2927 87.1624 63.3387 87.8424 64.5219C88.3687 65.34 89.0643 66.0357 89.8824 66.5619C89.8824 66.5619 89.2024 71.9611 90.0524 73.8175C90.9024 75.6739 97.6412 74.8239 97.6412 74.8239C96.15 75.7057 94.4735 76.2273 92.7452 76.3471C89.5424 76.6803 88.536 76.0071 88.026 74.1507C87.516 72.2943 87.346 66.9631 87.346 66.9631L85 64.5219L86.6864 59.9659L88.5428 58.1163L99.4908 59.1227Z" fill="#2A64F6"/>
</g>
</g>
<path d="M86.8701 58.7896C86.8701 58.7896 84.3745 64.6784 85.5101 65.5896C86.6457 66.5008 87.3189 66.9496 87.3189 66.9496C87.3189 66.9496 87.9989 74.8715 89.1277 76.2315C90.2565 77.5915 97.5053 75.3271 97.5053 75.3271C97.5053 75.3271 112.2 90.0355 112.676 87.3155C113.152 84.5955 111.316 74.3955 111.316 73.2803C111.316 72.1651 108.147 69.2003 108.147 69.2003" stroke="#263238" stroke-width="0.835087" stroke-linecap="round" stroke-linejoin="round"/>
<path d="M100.001 59.014C100.001 59.014 100.45 61.054 101.81 61.2784C103.17 61.5028 104.299 59.2384 104.299 59.2384L100.001 59.014Z" fill="#263238"/>
<path d="M111.52 59.9252C111.52 59.9252 112.88 64.0052 111.289 66.2628C109.698 68.5204 109.031 68.5272 109.031 68.5272C107.671 70.7916 104.047 65.8072 104.047 65.8072C104.047 65.8072 106.767 65.6848 107.447 63.876C108.127 62.0672 107.175 59.422 107.175 59.422L111.52 59.9252Z" fill="#263238"/>
<path d="M107.441 59.9252C107.441 59.9252 108.121 63.094 107.441 64.6852C106.761 66.2764 104.041 65.814 104.041 65.814L102.681 69.214" stroke="#263238" stroke-width="0.835087" stroke-linecap="round" stroke-linejoin="round"/>
<path d="M88.9307 68.2552C88.9307 68.2552 91.5555 68.8196 93.2351 65.8208" stroke="#263238" stroke-width="0.626315" stroke-linecap="round" stroke-linejoin="round"/>
<path d="M135.536 82.9842L129.972 85.0336L133.114 93.5649L138.678 91.5155L135.536 82.9842Z" fill="#263238"/>
<path d="M134.562 84.8927L131.901 85.8727L133.359 89.8289L136.019 88.8489L134.562 84.8927Z" fill="white"/>
<path d="M132.601 81.6826L131.427 82.1151L132.383 84.7121L133.557 84.2796L132.601 81.6826Z" fill="white" stroke="#263238" stroke-width="0.417543" stroke-linecap="round" stroke-linejoin="round"/>
<path d="M126.772 118.963L131.811 124.709" stroke="#263238" stroke-width="0.835087" stroke-linecap="round" stroke-linejoin="round"/>
<mask id="mask2_250_3864" style="mask-type:luminance" maskUnits="userSpaceOnUse" x="155" y="7" width="141" height="187">
<path d="M156.543 59.898L157.815 60.3876L175.957 63.706C175.957 63.706 178.915 65.2632 179.956 66.9224C180.996 68.5816 180.058 74.6336 180.058 74.6336L178.161 88.8728L181.2 114.4L175.896 118.378L176.1 120.901C176.243 120.942 176.066 124.267 168.199 125.661C168.199 125.661 166.567 126.477 166.091 126.116C164.887 125.212 165.853 125.287 165.853 125.287L162.67 127.327C162.839 128.931 162.668 130.553 162.167 132.087C161.337 134.807 160.766 135.337 160.766 135.337L162.215 160.64L165.703 165.611L211.263 193.266H295.257V7.97998H155.517V59.5104L156.543 59.898Z" fill="white"/>
</mask>
<g mask="url(#mask2_250_3864)">
<path d="M178.535 48.066L173.537 50.9492L170.715 46.0192L175.706 43.1428L178.535 48.066Z" stroke="#263238" stroke-width="0.835087" stroke-linecap="round" stroke-linejoin="round"/>
<path d="M176.848 42.456L168.98 46.9984L164.295 38.3216L172.163 33.7792L176.848 42.456Z" stroke="#263238" stroke-width="0.835087" stroke-linecap="round" stroke-linejoin="round"/>
<path d="M252.597 152.702C276.221 129.078 276.221 90.7757 252.597 67.1518C228.973 43.5279 190.671 43.5279 167.047 67.1518C143.423 90.7757 143.423 129.078 167.047 152.702C190.671 176.325 228.973 176.325 252.597 152.702Z" fill="white"/>
<path d="M210.352 39.056C196.54 39.0519 183.037 43.1439 171.551 50.8144C160.065 58.4849 151.112 69.3893 145.823 82.1486C140.535 94.9078 139.149 108.949 141.841 122.496C144.533 136.043 151.182 148.487 160.947 158.255C170.712 168.022 183.155 174.675 196.701 177.371C210.247 180.067 224.288 178.686 237.049 173.401C249.81 168.116 260.717 159.166 268.391 147.682C276.064 136.199 280.16 122.697 280.16 108.885C280.16 90.3689 272.806 72.6106 259.715 59.5157C246.624 46.4208 228.868 39.0614 210.352 39.056ZM210.352 169.378C198.382 169.378 186.681 165.829 176.728 159.179C166.776 152.528 159.019 143.077 154.438 132.018C149.858 120.959 148.659 108.791 150.994 97.0511C153.33 85.3114 159.094 74.5277 167.557 66.0639C176.021 57.6 186.805 51.836 198.545 49.5008C210.284 47.1657 222.453 48.3642 233.512 52.9448C244.57 57.5254 254.022 65.2824 260.672 75.2349C267.322 85.1873 270.872 96.8883 270.872 108.858C270.872 116.806 269.306 124.675 266.265 132.018C263.223 139.361 258.765 146.032 253.146 151.652C247.526 157.272 240.854 161.73 233.512 164.771C226.169 167.813 218.299 169.378 210.352 169.378Z" fill="#263238" stroke="#263238" stroke-width="0.835087" stroke-linecap="round" stroke-linejoin="round"/>
<path d="M253.199 56.2124C246.239 50.5421 238.224 46.31 229.616 43.7616" stroke="white" stroke-width="1.67017" stroke-linecap="round" stroke-linejoin="round"/>
<path d="M223.176 42.1976C220.703 41.7283 218.206 41.3946 215.696 41.198" stroke="white" stroke-width="1.67017" stroke-linecap="round" stroke-linejoin="round"/>
<path d="M261.284 146.217C269.442 135.077 273.726 121.571 273.48 107.765C273.235 93.9596 268.473 80.6145 259.924 69.7716" stroke="white" stroke-width="0.835087" stroke-linecap="round" stroke-linejoin="round"/>
<path d="M252.457 155.934C254.44 154.163 256.307 152.267 258.047 150.256" stroke="white" stroke-width="0.835087" stroke-linecap="round" stroke-linejoin="round"/>
<path d="M184.682 166.59C195.294 171.303 207 173.003 218.515 171.504C230.03 170.005 240.91 165.364 249.962 158.09" stroke="white" stroke-width="0.835087" stroke-linecap="round" stroke-linejoin="round"/>
<path d="M175.672 161.66C177.561 162.898 179.515 164.033 181.527 165.06" stroke="white" stroke-width="0.835087" stroke-linecap="round" stroke-linejoin="round"/>
<path d="M168.898 156.519C170.491 157.905 172.152 159.21 173.876 160.429" stroke="white" stroke-width="0.835087" stroke-linecap="round" stroke-linejoin="round"/>
<path d="M192.889 48.1884C182.159 51.2784 172.44 57.1579 164.722 65.2278C157.004 73.2977 151.564 83.2695 148.955 94.1269C146.347 104.984 146.664 116.339 149.873 127.034C153.083 137.729 159.07 147.382 167.226 155.01" stroke="white" stroke-width="0.835087" stroke-linecap="round" stroke-linejoin="round"/>
<path d="M255.001 64.2364C247.614 56.8591 238.516 51.4253 228.518 48.4198C218.521 45.4143 207.934 44.9306 197.704 47.012" stroke="white" stroke-width="0.835087" stroke-linecap="round" stroke-linejoin="round"/>
<path d="M219.402 131.25H201.232V136.174H219.402V131.25Z" fill="#2A64F6"/>
<path d="M215.424 108.885C215.424 107.699 215.008 106.549 214.247 105.639C213.487 104.728 212.43 104.113 211.263 103.901L210.726 70.6692H209.971L209.44 103.901C208.285 104.109 207.237 104.711 206.476 105.606C205.716 106.501 205.29 107.633 205.271 108.807C205.253 109.982 205.643 111.126 206.375 112.044C207.107 112.963 208.135 113.598 209.284 113.842L209.094 125.634H211.61L211.419 113.842C212.552 113.597 213.567 112.972 214.296 112.07C215.025 111.168 215.423 110.044 215.424 108.885ZM210.352 111.605C209.814 111.605 209.288 111.446 208.841 111.147C208.393 110.848 208.045 110.423 207.839 109.926C207.633 109.429 207.579 108.882 207.684 108.355C207.789 107.827 208.048 107.342 208.428 106.962C208.809 106.581 209.293 106.322 209.821 106.217C210.349 106.112 210.896 106.166 211.393 106.372C211.89 106.578 212.314 106.927 212.613 107.374C212.912 107.821 213.072 108.347 213.072 108.885C213.072 109.242 213.001 109.596 212.865 109.926C212.728 110.256 212.528 110.556 212.275 110.809C212.022 111.061 211.723 111.261 211.393 111.398C211.063 111.535 210.709 111.605 210.352 111.605Z" fill="#263238"/>
<path d="M210.351 111.68C211.895 111.68 213.146 110.429 213.146 108.885C213.146 107.342 211.895 106.09 210.351 106.09C208.808 106.09 207.557 107.342 207.557 108.885C207.557 110.429 208.808 111.68 210.351 111.68Z" fill="#2A64F6"/>
<path d="M210.352 51.7856V61.8564" stroke="#263238" stroke-width="3.34035" stroke-linecap="round" stroke-linejoin="round"/>
<path d="M210.352 156.261V166.332" stroke="#263238" stroke-width="3.34035" stroke-linecap="round" stroke-linejoin="round"/>
<path d="M181.717 59.4628L186.749 68.1804" stroke="#263238" stroke-width="3.34035" stroke-linecap="round" stroke-linejoin="round"/>
<path d="M233.954 149.937L238.986 158.661" stroke="#263238" stroke-width="3.34035" stroke-linecap="round" stroke-linejoin="round"/>
<path d="M160.752 80.4204L169.47 85.4592" stroke="#263238" stroke-width="3.34035" stroke-linecap="round" stroke-linejoin="round"/>
<path d="M251.227 132.658L259.951 137.697" stroke="#263238" stroke-width="3.34035" stroke-linecap="round" stroke-linejoin="round"/>
<path d="M267.622 109.062H257.551" stroke="#263238" stroke-width="3.34035" stroke-linecap="round" stroke-linejoin="round"/>
<path d="M163.146 109.062H153.075" stroke="#263238" stroke-width="3.34035" stroke-linecap="round" stroke-linejoin="round"/>
<path d="M267.622 109.062H257.551" stroke="#263238" stroke-width="3.34035" stroke-linecap="round" stroke-linejoin="round"/>
<path d="M163.146 109.062H153.075" stroke="#263238" stroke-width="3.34035" stroke-linecap="round" stroke-linejoin="round"/>
<path d="M259.951 80.4204L251.227 85.4592" stroke="#263238" stroke-width="3.34035" stroke-linecap="round" stroke-linejoin="round"/>
<path d="M169.47 132.658L160.752 137.697" stroke="#263238" stroke-width="3.34035" stroke-linecap="round" stroke-linejoin="round"/>
<path d="M238.986 59.4628L233.954 68.1804" stroke="#263238" stroke-width="3.34035" stroke-linecap="round" stroke-linejoin="round"/>
<path d="M186.749 149.937L181.717 158.661" stroke="#263238" stroke-width="3.34035" stroke-linecap="round" stroke-linejoin="round"/>
<path d="M213.235 36.8596H207.469V41.9596H213.235V36.8596Z" stroke="#263238" stroke-width="0.835087" stroke-linecap="round" stroke-linejoin="round"/>
<path d="M214.894 23.2324H205.81V36.5672H214.894V23.2324Z" stroke="#263238" stroke-width="0.835087" stroke-linecap="round" stroke-linejoin="round"/>
<path d="M216.784 13.8484H203.633V22.9332H216.784V13.8484Z" fill="#2A64F6"/>
<path d="M216.928 13.8484H203.776V22.9332H216.928V13.8484Z" stroke="#263238" stroke-width="0.835087" stroke-linecap="round" stroke-linejoin="round"/>
<path d="M205.238 19.4992V14.0524" stroke="#263238" stroke-width="0.835087" stroke-linecap="round" stroke-linejoin="round"/>
<path d="M205.238 23.1032V20.7572" stroke="#263238" stroke-width="0.835087" stroke-linecap="round" stroke-linejoin="round"/>
<path d="M206.911 23.1032V14.0524" stroke="#263238" stroke-width="0.835087" stroke-linecap="round" stroke-linejoin="round"/>
<path d="M208.584 16.3168V14.0524" stroke="#263238" stroke-width="0.835087" stroke-linecap="round" stroke-linejoin="round"/>
<path d="M208.584 23.1032V17.4048" stroke="#263238" stroke-width="0.835087" stroke-linecap="round" stroke-linejoin="round"/>
<path d="M211.352 23.1032V14.0524" stroke="#263238" stroke-width="0.835087" stroke-linecap="round" stroke-linejoin="round"/>
</g>
<g style="mix-blend-mode:multiply" opacity="0.3">
<path d="M114.329 85.9352L119.218 86.2752L119.055 84.4188C119.055 84.4188 114.669 84.0788 114.329 85.9352Z" fill="#2A64F6"/>
</g>
<mask id="mask3_250_3864" style="mask-type:luminance" maskUnits="userSpaceOnUse" x="95" y="84" width="16" height="44">
<path d="M103.612 84.956C103.612 84.956 95.6631 91.3956 95.6631 93.116C95.6631 94.8364 95.0919 126.81 95.4727 127.565C95.8535 128.32 110.841 117.895 110.841 117.895L109.324 104.078" fill="white"/>
</mask>
<g mask="url(#mask3_250_3864)">
<g style="mix-blend-mode:multiply" opacity="0.3">
<path d="M100.858 124.512L110.841 117.895L98.0908 122.757C98.0908 122.757 96.9348 96.7472 97.8052 94.7276C98.6756 92.708 104.163 88.9476 104.163 88.9476C104.163 88.9476 103.837 86.8532 105.605 86.0576C106.817 85.6046 108.153 85.6046 109.365 86.0576L110.623 86.5336C109.175 85.7176 106.836 84.0652 103.238 80.706H103.157L104.027 81.5424L103.646 84.9424L99.8248 88.0636C98.9612 88.934 95.6972 93.082 95.6972 93.082L95.5068 127.531L100.695 124.192L100.858 124.512Z" fill="#2A64F6"/>
</g>
</g>
<path d="M103.612 84.956C103.612 84.956 95.6631 91.3956 95.6631 93.116C95.6631 94.8364 95.0919 126.81 95.4727 127.565C95.8535 128.32 110.841 117.895 110.841 117.895L109.324 104.078" stroke="#263238" stroke-width="0.835087" stroke-linecap="round" stroke-linejoin="round"/>
<path d="M105.128 100.671L121.217 113.543" stroke="#263238" stroke-width="0.835087" stroke-linecap="round" stroke-linejoin="round"/>
<mask id="mask4_250_3864" style="mask-type:luminance" maskUnits="userSpaceOnUse" x="116" y="56" width="59" height="25">
<path d="M116.021 71.56C116.021 71.56 131.627 56.7292 133.518 56.7292C135.408 56.7292 166.641 62.9716 168.912 63.3524C171.183 63.7332 174.971 64.488 174.971 64.488C174.971 64.488 168.347 72.818 166.076 75.6536C163.805 78.4892 162.676 80.196 162.676 80.196L137.122 68.466" fill="white"/>
</mask>
<g mask="url(#mask4_250_3864)">
<g style="mix-blend-mode:multiply" opacity="0.3">
<path d="M174.794 65.0184L165.104 62.04L133.518 56.7292L125.515 65.508C125.515 65.508 132.451 61.1764 134.47 61.1764C136.49 61.1764 166.954 69.8396 169.83 70.6488L174.794 65.0184Z" fill="#2A64F6"/>
</g>
</g>
<path d="M116.021 71.56C116.021 71.56 131.627 56.7292 133.518 56.7292C135.408 56.7292 166.641 62.9716 168.912 63.3524C171.183 63.7332 174.971 64.488 174.971 64.488C174.971 64.488 168.347 72.818 166.076 75.6536C163.805 78.4892 162.676 80.196 162.676 80.196L137.122 68.466" stroke="#263238" stroke-width="0.835087" stroke-linecap="round" stroke-linejoin="round"/>
<path d="M141.468 71.3288L147.907 88.3628" stroke="#263238" stroke-width="0.835087" stroke-linecap="round" stroke-linejoin="round"/>
<path d="M121.781 96.8832L120.265 98.3996L112.887 88.934" stroke="#263238" stroke-width="0.835087" stroke-linecap="round" stroke-linejoin="round"/>
<path d="M134.212 72.002L141.699 70.6896L135.334 75.1776" stroke="#263238" stroke-width="0.417543" stroke-linecap="round" stroke-linejoin="round"/>
<path d="M109.29 104.078L99.7832 102.684" stroke="#263238" stroke-width="0.417543" stroke-linecap="round" stroke-linejoin="round"/>
<path d="M103.992 81.5492C103.309 83.2402 103.242 85.1175 103.802 86.8532C104.747 89.6888 107.964 94.612 107.964 94.612L112.125 88.7436" stroke="#263238" stroke-width="0.835087" stroke-linecap="round" stroke-linejoin="round"/>
<path d="M113.452 86.4724C113.452 86.4724 115.539 84.582 117.43 84.582H120.646C120.646 84.582 120.082 77.1972 117.43 73.2192C114.778 69.2412 111.181 71.3288 111.181 71.3288" stroke="#263238" stroke-width="0.835087" stroke-linecap="round" stroke-linejoin="round"/>
<path d="M110.045 119.031L132.764 108.43L134.654 101.806L142.413 100.12C142.413 100.12 143.929 98.6036 143.739 100.12C143.548 101.636 141.468 102.201 140.713 103.717C139.958 105.234 139.951 108.26 139.006 109.586C138.061 110.912 134.654 112.428 134.654 112.428C134.654 112.428 109.1 133.814 107.209 134.95C105.319 136.085 101.531 125.294 101.531 125.294" fill="white"/>
<mask id="mask5_250_3864" style="mask-type:luminance" maskUnits="userSpaceOnUse" x="101" y="99" width="43" height="37">
<path d="M110.045 119.031L132.764 108.43L134.654 101.806L142.413 100.12C142.413 100.12 143.929 98.6036 143.739 100.12C143.548 101.636 141.468 102.201 140.713 103.717C139.958 105.234 139.951 108.26 139.006 109.586C138.061 110.912 134.654 112.428 134.654 112.428C134.654 112.428 109.1 133.814 107.209 134.95C105.319 136.085 101.531 125.294 101.531 125.294" fill="white"/>
</mask>
<g mask="url(#mask5_250_3864)">
<g style="mix-blend-mode:multiply" opacity="0.3">
<path d="M100.858 124.512C101.736 125.919 105.319 131.747 105.571 134.032C105.863 136.636 108.175 134.032 108.175 134.032L128.983 116.698C128.983 116.698 108.461 129.693 106.761 129.115C105.061 128.537 104.721 124.206 104.721 124.206L110.841 117.895L100.858 124.512Z" fill="#2A64F6"/>
</g>
</g>
<path d="M110.045 119.031L132.764 108.43L134.654 101.806L142.413 100.12C142.413 100.12 143.929 98.6036 143.739 100.12C143.548 101.636 141.468 102.201 140.713 103.717C139.958 105.234 139.951 108.26 139.006 109.586C138.061 110.912 134.654 112.428 134.654 112.428C134.654 112.428 109.1 133.814 107.209 134.95C105.319 136.085 101.531 125.294 101.531 125.294" stroke="#263238" stroke-width="0.835087" stroke-linecap="round" stroke-linejoin="round"/>
<path d="M142.413 100.12C142.413 100.12 138.707 102.33 139.081 103.078" stroke="#263238" stroke-width="0.417543" stroke-linecap="round" stroke-linejoin="round"/>
<path d="M139.455 100.814L136.646 102.31" stroke="#263238" stroke-width="0.417543" stroke-linecap="round" stroke-linejoin="round"/>
</svg>
