<svg width="75" height="89" viewBox="0 0 75 89" fill="none" xmlns="http://www.w3.org/2000/svg">
<path d="M73.8313 17.7748L40.8242 18.3221L41.2193 42.1507L74.2264 41.6034L73.8313 17.7748Z" fill="#407BFF"/>
<path opacity="0.3" d="M60.7478 17.9888L40.792 18.3197L41.1871 42.1483L61.1429 41.8174L60.7478 17.9888Z" fill="white"/>
<path opacity="0.3" d="M63.7548 19.5944L58.0078 19.7094L58.0399 21.3113L63.7868 21.1964L63.7548 19.5944Z" fill="white"/>
<path opacity="0.3" d="M63.9249 38.1238L58.1787 38.2191L58.2053 39.8208L63.9515 39.7256L63.9249 38.1238Z" fill="white"/>
<path d="M67.7565 33.0274C69.6191 33.0274 71.1291 31.3189 71.1291 29.2113C71.1291 27.1038 69.6191 25.3953 67.7565 25.3953C65.8938 25.3953 64.3838 27.1038 64.3838 29.2113C64.3838 31.3189 65.8938 33.0274 67.7565 33.0274Z" stroke="white" stroke-miterlimit="10"/>
<path d="M67.8965 25.976V26.6167" stroke="white" stroke-linecap="round" stroke-linejoin="round"/>
<path d="M68.042 31.8459V32.4867" stroke="white" stroke-linecap="round" stroke-linejoin="round"/>
<path d="M64.9131 29.0854H65.5567" stroke="white" stroke-linecap="round" stroke-linejoin="round"/>
<path d="M70.0791 29.0883H70.7227" stroke="white" stroke-linecap="round" stroke-linejoin="round"/>
<path d="M67.8936 29.0854L67.8964 27.1116" stroke="white" stroke-width="0.5" stroke-linecap="round" stroke-linejoin="round"/>
<path d="M68.0195 29.2141L69.4155 30.6101" stroke="white" stroke-width="0.5" stroke-linecap="round" stroke-linejoin="round"/>
<path d="M68.2056 29.0883C68.2056 29.15 68.1874 29.2103 68.1531 29.2615C68.1188 29.3128 68.0701 29.3528 68.0132 29.3764C67.9562 29.4 67.8935 29.4062 67.833 29.3941C67.7725 29.3821 67.717 29.3524 67.6734 29.3088C67.6297 29.2652 67.6001 29.2096 67.588 29.1491C67.576 29.0887 67.5822 29.026 67.6058 28.969C67.6294 28.912 67.6693 28.8633 67.7206 28.8291C67.7719 28.7948 67.8322 28.7765 67.8938 28.7765C67.9349 28.7761 67.9756 28.7839 68.0136 28.7995C68.0516 28.815 68.0861 28.8379 68.1152 28.867C68.1442 28.896 68.1672 28.9305 68.1827 28.9685C68.1982 29.0065 68.206 29.0473 68.2056 29.0883Z" fill="white"/>
<path opacity="0.3" d="M67.7564 34.0371C70.2226 34.0371 72.2219 31.8765 72.2219 29.2112C72.2219 26.546 70.2226 24.3854 67.7564 24.3854C65.2903 24.3854 63.291 26.546 63.291 29.2112C63.291 31.8765 65.2903 34.0371 67.7564 34.0371Z" fill="white"/>
<path d="M30.6709 71.0622C31.1686 71.4426 41.1608 70.367 38.5777 52.6398C38.5777 52.6398 43.3177 53.8441 43.8269 53.764C43.8269 53.764 50.7811 64.4255 45.7178 69.7062C40.6545 74.987 33.1081 75.3102 33.1081 75.3102L30.6709 71.0622Z" fill="#407BFF"/>
<path opacity="0.3" d="M30.6709 71.0622C31.1686 71.4426 41.1608 70.367 38.5777 52.6398C38.5777 52.6398 43.3177 53.8441 43.8269 53.764C43.8269 53.764 50.7811 64.4255 45.7178 69.7062C40.6545 74.987 33.1081 75.3102 33.1081 75.3102L30.6709 71.0622Z" fill="black"/>
<path d="M41.7445 55.3832C41.7702 55.3832 38.9525 55.4375 38.0085 54.2647C37.0645 53.0918 36.4266 50.995 38.1429 49.5647C39.8593 48.1344 49.9373 41.9554 54.6831 41.4691C59.4288 40.9828 64.5093 44.0437 64.5093 44.0437L58.296 48.6378L44.9169 51.876L41.7445 55.3832Z" fill="#263238"/>
<path d="M32.6338 68.2702L32.8941 70.8333L35.9721 70.573L35.5087 67.9384L32.6338 68.2702Z" fill="#FFC3BD"/>
<path d="M32.0363 70.6474L36.5017 70.5845L36.8192 72.8386C36.8192 72.8386 32.637 72.8959 30.9178 72.667C29.1985 72.4382 29.4674 71.5428 29.4674 71.5428C29.4674 71.5428 31.4813 71.5914 32.0363 70.6474Z" fill="#263238"/>
<path d="M71.0057 77.1354C71.6725 70.5827 67.7165 64.8132 62.1697 64.2488C56.623 63.6844 51.5859 68.5388 50.9192 75.0915C50.2524 81.6442 54.2084 87.4137 59.7552 87.9781C65.3019 88.5425 70.339 83.688 71.0057 77.1354Z" fill="#263238"/>
<path d="M53.9457 39.6354C53.9457 39.6354 54.4092 50.2684 48.2245 50.5716C42.0398 50.8748 35.3946 50.1968 35.3946 50.1968L37.3427 69.3029L31.5442 69.6605C31.5442 69.6605 27.382 53.4522 26.7269 49.3787C26.0718 45.3052 26.6411 42.4245 30.9406 40.6166C35.2401 38.8087 53.9457 39.6354 53.9457 39.6354Z" fill="#407BFF"/>
<path d="M19.3345 73.3707L27.0382 50.9949L37.3364 39.6268C37.3364 39.6268 28.3483 39.6612 24.0288 42.1442C19.7093 44.6272 19.5491 47.6108 18.7567 51.1609C17.9643 54.7109 14.7861 71.5142 14.7861 71.5142L19.3345 73.3707Z" fill="#407BFF"/>
<path opacity="0.7" d="M53.9452 39.6354C53.9452 39.6354 44.3736 39.2091 37.3536 39.6354C37.3536 39.6354 28.3655 39.6697 24.046 42.1527C19.7264 44.6357 19.5491 47.6108 18.7567 51.1608C17.9643 54.7108 14.7861 71.5141 14.7861 71.5141L19.3345 73.3707L27.0382 50.9949C28.334 57.1967 31.5437 69.649 31.5437 69.649L37.3421 69.3029L35.3912 50.2082C35.3912 50.2082 42.0336 50.8862 48.2211 50.583C54.4086 50.2797 53.9452 39.6354 53.9452 39.6354Z" fill="black"/>
<path d="M38.1428 22.3887L34.5871 22.8206C34.5871 22.8206 33.9692 29.3571 33.3942 30.6273C33.3942 30.6273 22.458 32.1291 17.9783 32.0004L15.7041 33.5451L15.624 36.2312L17.8525 36.297L18.5705 34.5949C18.5705 34.5949 20.0752 34.5292 20.4241 33.6824C20.4241 33.6824 32.044 36.4887 36.3235 33.2848C36.3292 33.2876 38.9095 29.4973 38.1428 22.3887Z" fill="#FFC3BD"/>
<path d="M48.3325 4.88452C48.3325 4.88452 49.4453 6.31483 49.0219 7.55348C48.9051 7.90672 48.6992 8.2239 48.4241 8.47443C48.149 8.72496 47.814 8.90038 47.4514 8.98379C47.4514 8.98379 47.2426 10.9662 46.0726 11.0234C44.9026 11.0806 45.2945 6.65525 45.2945 6.65525L48.3325 4.88452Z" fill="#263238"/>
<path d="M39.3251 39.684L38.5441 26.9056L33.6982 23.6845C33.6982 23.6845 35.283 18.0977 38.3153 17.1508C41.3475 16.204 47.9613 14.0328 51.9719 15.1112C55.9825 16.1897 55.5219 20.9211 54.8325 24.4311L54.0602 24.6142C54.0602 24.6142 53.94 38.4453 53.9343 39.6353L39.3251 39.684Z" fill="#263238"/>
<path d="M48.044 15.9008C46.4564 17.4369 43.2182 18.3523 42.3228 17.5885C41.4274 16.8248 42.5574 16.1239 43.3984 15.26C43.8532 14.7851 43.8389 13.8955 43.7331 13.1861C43.6773 12.8286 43.5951 12.4758 43.4871 12.1305C40.5149 11.9674 39.2819 10.5772 39.1589 8.12561C39.0359 5.67406 40.1459 2.82774 40.1459 2.82774L42.2455 1.03699C42.2455 1.03699 45.1062 1.46608 47.3947 3.03942C48.7563 3.96626 48.353 5.79134 47.7894 7.1387C47.5507 7.71222 47.2636 8.2644 46.9312 8.78928C46.6109 12.1448 48.044 15.9008 48.044 15.9008Z" fill="#FFC3BD"/>
<path d="M40.8125 8.80071C40.8125 8.80071 41.9567 8.85506 42.4574 8.14563" stroke="#263238" stroke-linecap="round" stroke-linejoin="round"/>
<path d="M42.6345 5.90577C42.6345 6.12318 42.5029 6.29482 42.3484 6.29196C42.1939 6.28909 42.0824 6.10888 42.0881 5.89147C42.0938 5.67406 42.2197 5.50242 42.3742 5.50528C42.5286 5.50814 42.6431 5.68837 42.6345 5.90577Z" fill="#263238"/>
<path d="M40.0251 5.9745C40.0251 6.1919 39.8935 6.36354 39.739 6.36068C39.5846 6.35782 39.473 6.1776 39.4787 5.9602C39.4844 5.74279 39.6103 5.57115 39.7648 5.57401C39.9193 5.57687 40.0337 5.75995 40.0251 5.9745Z" fill="#263238"/>
<path d="M40.932 7.75088L40.8147 5.99731L39.9766 7.6622C40.1074 7.77339 40.2693 7.84155 40.4403 7.85742C40.6112 7.87329 40.7829 7.83609 40.932 7.75088Z" fill="#ED847E"/>
<path d="M42.4971 4.53276C42.7165 4.47247 42.9502 4.49199 43.1566 4.58786C43.363 4.68372 43.5287 4.84969 43.6242 5.05625" stroke="#263238" stroke-linecap="round" stroke-linejoin="round"/>
<path d="M39.2188 4.85593C39.2188 4.85593 39.7451 4.28381 40.363 4.4297" stroke="#263238" stroke-linecap="round" stroke-linejoin="round"/>
<path d="M47.8094 7.13875C44.5368 7.25603 44.1306 3.54581 44.1306 3.54581C42.5115 4.40399 40.1572 2.83065 40.1572 2.83065L42.2569 1.03418C42.2569 1.03418 45.1175 1.46899 47.406 3.03662C48.7763 3.96632 48.3729 5.79712 47.8094 7.13875Z" fill="#263238"/>
<path d="M39.1043 3.91768C39.1043 3.91768 37.4109 2.79059 38.1575 1.97818C38.9041 1.16576 43.4782 2.7105 46.8967 4.60423C46.8967 4.60423 39.0672 -0.633573 36.9389 1.02273C35.1796 2.39296 39.0815 4.29528 38.9642 4.29242L39.1043 3.91768Z" fill="#407BFF"/>
<path d="M48.656 3.53433C48.6512 4.1275 48.5387 4.71487 48.3241 5.26787L40.6348 1.54906C40.9534 1.18121 41.335 0.873155 41.7619 0.639383C42.2169 0.37907 42.7118 0.195442 43.2265 0.0958646C43.7723 -0.00848755 44.331 -0.0277856 44.8828 0.038653C47.6948 0.361903 48.6703 2.52453 48.656 3.53433Z" fill="#407BFF"/>
<path d="M30.9919 37.7388C30.4913 38.2623 24.0177 36.9206 22.8878 37.5214C22.41 37.7731 22.2012 38.6656 21.7206 39.644C21.0655 40.9742 19.9013 42.4331 16.8576 42.5303C11.5711 42.6991 12.2091 37.3354 11.7914 35.5933C11.7914 35.5933 6.78532 34.6808 6.52214 33.8026C6.25896 32.9244 6.58221 32.7928 6.58221 32.7928C6.58221 32.7928 12.7583 33.937 13.954 32.3751C14.1857 32.1489 14.4573 31.9675 14.755 31.8402C15.4414 31.5384 16.1796 31.3723 16.9291 31.351C19.106 31.2366 21.7607 31.8488 22.5044 33.2276C24.0148 36.0396 30.4913 35.4074 31.0863 36.1454C31.6813 36.8835 31.4925 37.2153 30.9919 37.7388Z" fill="#407BFF"/>
<path d="M14.6029 41.4032C14.6029 41.4032 5.91801 53.4178 13.0696 71.9117" stroke="#263238" stroke-linecap="round" stroke-linejoin="round"/>
<path d="M26.0654 47.6451C26.0654 47.6451 26.0654 47.668 26.0654 47.7138C26.0654 47.7596 26.0654 47.7853 26.0654 47.8368V47.8654C25.9621 49.0225 25.7709 50.1701 25.4933 51.2981C25.0985 52.9659 24.575 54.5535 24.1431 55.8294C22.3123 61.2503 22.524 67.0916 22.524 67.0916C21.9175 66.3364 20.8076 65.7986 19.4202 65.421C14.3683 64.0336 5.7922 64.7774 5.7922 64.7774C4.11016 58.8759 4.71089 49.639 6.38435 44.467C8.05781 39.295 12.6977 40.4621 12.6977 40.4621C12.6977 40.4621 17.5951 40.6051 18.2102 40.5394C19.3358 40.4028 20.4751 40.4259 21.5943 40.608C25.376 41.3003 26.2857 44.2896 26.0654 47.6451Z" fill="#407BFF"/>
<path d="M63.7711 70.1611C55.1893 77.9076 38.6234 78.72 26.297 77.8619L19.3914 65.4382L16.5938 60.4063L25.5818 48.2916L26.0567 47.6537C26.0567 47.6537 26.0567 47.6766 26.0567 47.7223C26.0567 47.7681 26.0567 47.7939 26.0567 47.8453V47.874C25.9337 50.0337 25.1384 67.3662 31.4919 71.6171L31.5434 71.6543C32.4031 72.2099 33.4006 72.515 34.424 72.5354C46.081 72.8729 45.7549 57.6601 42.7913 54.4019L63.0188 50.337C63.0188 50.337 67.0122 60.392 63.7711 70.1611Z" fill="#407BFF"/>
<path d="M41.2728 51.1037C41.2728 51.1037 39.3762 52.677 40.3545 54.7882C41.3329 56.8993 50.7643 52.8 54.4774 52.0534C58.1905 51.3068 62.4872 50.5773 64.3351 50.1969C66.1831 49.8164 66.0229 44.5157 64.5125 44.0465C63.0021 43.5774 48.207 46.192 45.7525 47.628C44.1319 48.6123 42.6289 49.7784 41.2728 51.1037Z" fill="#263238"/>
<path d="M46.0215 8.44889C45.841 8.25456 45.7317 8.00479 45.7114 7.74035C45.6912 7.4759 45.7611 7.2124 45.9099 6.99283C46.3676 6.30629 47.2916 5.21639 48.1784 6.03167C49.4199 7.17592 47.3002 9.25559 46.422 8.75212C46.2749 8.6704 46.14 8.56831 46.0215 8.44889Z" fill="#FFC3BD"/>
<path opacity="0.2" d="M39.1039 3.91768C39.1039 3.91768 37.4104 2.79059 38.1571 1.97818C38.4889 1.61774 39.4815 1.69211 40.8232 2.07544C41.6859 2.30769 42.531 2.60117 43.352 2.95365C44.5305 3.4657 45.7835 4.12078 46.8963 4.60423C46.8963 4.60423 39.0667 -0.633573 36.9384 1.02273C35.1792 2.39296 38.8379 4.16941 38.9666 4.28956L39.0296 4.05785L39.1039 3.91768Z" fill="black"/>
<path d="M39.9078 3.42847C39.9078 3.42847 38.1914 3.71453 39.3757 5.56249L39.9078 3.42847Z" fill="#263238"/>
<path d="M41.5531 2.30139C41.5531 2.30139 38.9643 1.39172 38.2434 1.90663C37.5225 2.42154 38.2777 3.40273 39.1016 3.90906L39.7624 3.99488L40.1514 2.82203L41.1583 2.69902L41.5531 2.30139Z" fill="#263238"/>
<path opacity="0.3" d="M45.08 0.902606L44.4593 1.82087L41.7617 0.648011C42.2168 0.387698 42.7116 0.20407 43.2264 0.104492L45.08 0.902606Z" fill="white"/>
<path opacity="0.1" d="M44.4797 11.8788C44.3012 12.3535 44.045 12.7953 43.7216 13.1861C43.6658 12.8286 43.5836 12.4758 43.4756 12.1305C43.8225 12.1063 44.1624 12.0211 44.4797 11.8788Z" fill="black"/>
<path d="M18.8341 37.0351C18.7197 39.0175 17.8615 40.6395 16.8088 41.04C16.6266 41.1101 16.4315 41.1403 16.2367 41.1286C14.9379 41.0543 13.9939 39.1062 14.1255 36.7805C14.2571 34.4548 15.4185 32.6297 16.7173 32.7041C17.2465 32.7327 17.7127 33.0731 18.076 33.6195C18.611 34.4033 18.9113 35.6563 18.8341 37.0351Z" fill="#F5F5F5"/>
<path d="M18.8335 37.035C18.7191 39.0174 17.8609 40.6394 16.8082 41.0399C15.6067 40.9712 14.7343 39.1719 14.8573 37.035C14.9803 34.8981 16.0501 33.2018 17.2516 33.2704C17.5612 33.2936 17.8542 33.4194 18.084 33.628C18.6104 34.4033 18.9108 35.6562 18.8335 37.035Z" fill="white"/>
<path d="M65.1966 65.135C62.9853 63.5817 54.4292 62.057 54.4292 62.057C49.2314 62.057 44.6687 66.7341 44.0394 72.9445C43.5245 77.9964 45.7558 82.582 49.3516 84.6731C49.3516 84.6731 49.652 84.7989 50.1554 84.9963C52.0606 85.7487 56.8951 87.5709 59.7528 87.9714" fill="#263238"/>
<path opacity="0.3" d="M71.0057 77.1354C71.6725 70.5827 67.7165 64.8132 62.1697 64.2488C56.623 63.6844 51.5859 68.5388 50.9192 75.0915C50.2524 81.6442 54.2084 87.4137 59.7552 87.9781C65.3019 88.5425 70.339 83.688 71.0057 77.1354Z" fill="black"/>
<path d="M26.5341 76.7539C27.2008 70.2012 23.2448 64.4317 17.698 63.8673C12.1513 63.3029 7.11425 68.1574 6.4475 74.71C5.78074 81.2627 9.73677 87.0322 15.2835 87.5966C20.8303 88.161 25.8673 83.3066 26.5341 76.7539Z" fill="#263238"/>
<path d="M22.6614 66.0532L17.5466 87.5279C16.8004 87.6488 16.0416 87.6709 15.2896 87.5937H15.2324C14.2512 87.342 14.6889 87.6137 13.7048 87.2876C11.2018 86.4609 7.56592 84.9991 7.56592 84.9991C3.71266 83.1254 1.53572 78.5684 2.06494 73.3621C2.70572 67.0544 7.23122 62.343 12.5577 62.7292C12.5577 62.7292 15.0865 63.1954 17.6897 63.8734C18.8339 64.1595 19.9782 64.4999 20.9193 64.8546C21.5424 65.1887 22.1267 65.5907 22.6614 66.0532Z" fill="#263238"/>
<path opacity="0.3" d="M26.5345 76.7405C25.9624 82.3902 22.1377 86.7756 17.5407 87.5165C16.7945 87.6374 16.0356 87.6595 15.2837 87.5823H15.2264C14.1791 87.4692 13.1611 87.1657 12.2228 86.6869C8.35809 84.7274 5.91226 79.9673 6.44719 74.7037C7.11372 68.1558 12.1398 63.307 17.6837 63.862H17.698C18.8237 63.9756 19.9161 64.309 20.9134 64.8432C21.5366 65.1782 22.1209 65.5811 22.6555 66.0446C25.3931 68.4247 26.9865 72.4181 26.5345 76.7405Z" fill="black"/>
<path d="M25.1417 69.2171C24.974 68.9496 24.7825 68.6978 24.5696 68.4648C23.2909 66.7198 20.3673 66.0676 18.4535 66.2221C16.9865 66.3652 15.5779 66.8705 14.3543 67.6924C12.9583 68.5964 11.9599 69.9809 10.5754 70.9306C7.94934 72.7443 3.9645 72.6928 1.327 70.8248C1.17827 70.7191 1.03682 70.6034 0.903629 70.4787C0.634834 70.1989 0.455559 69.8453 0.388716 69.4631C0.287806 68.986 0.324512 68.49 0.49456 68.0328C1.06668 66.4252 2.97472 65.012 4.17904 64.151C6.62069 62.4283 9.49255 61.4172 12.4748 61.2303C20.9795 60.6438 24.6067 67.907 25.1417 69.2171Z" fill="#407BFF"/>
<path opacity="0.3" d="M24.5527 69.4459C22.7247 66.8084 20.379 66.0675 18.4653 66.222C16.9982 66.3651 15.5896 66.8704 14.366 67.6923C12.97 68.5963 11.9717 69.9808 10.5871 70.9305C7.96106 72.7442 3.97621 72.6927 1.33872 70.8247C1.18999 70.7189 1.04854 70.6033 0.915348 70.4786C0.646552 70.1988 0.467278 69.8452 0.400435 69.463C0.299525 68.9859 0.336231 68.4898 0.506279 68.0327C1.39021 69.054 3.96477 71.5141 7.45187 70.3212C11.8 68.8194 12.8613 64.3568 17.5098 64.3969C21.2029 64.4398 23.4771 67.3004 24.5527 69.4459Z" fill="black"/>
<g opacity="0.3">
<path d="M5.42383 63.3642C6.66425 62.4827 8.05985 61.8431 9.5374 61.4791C11.0164 61.1026 12.5481 60.9769 14.0686 61.1072C15.5867 61.2533 17.0734 61.6315 18.4768 62.2285L18.9975 62.4574L19.5067 62.712C19.8499 62.8722 20.1732 63.0724 20.505 63.2555C20.8369 63.4386 21.1429 63.6646 21.4605 63.8677C21.778 64.0708 22.0755 64.3082 22.3787 64.5342C21.1312 63.6983 19.7994 62.9956 18.4053 62.4374C17.0139 61.8792 15.5478 61.5293 14.0543 61.399C12.5639 61.2565 11.0603 61.353 9.60034 61.685C8.86738 61.8475 8.1489 62.0695 7.45201 62.3487C6.74477 62.621 6.06554 62.961 5.42383 63.3642Z" fill="black"/>
</g>
<g opacity="0.3">
<path d="M14.6861 61.3189C14.3294 60.126 14.1153 58.895 14.0482 57.6516C13.9538 56.413 13.9338 55.1686 13.9595 53.9328C13.9853 52.697 14.0711 51.4498 14.1855 50.214L14.3943 48.366C14.4859 47.751 14.566 47.136 14.6804 46.5238L14.4201 50.2426L14.3171 52.0963C14.2999 52.7142 14.2627 53.3321 14.2599 53.95C14.2112 55.1858 14.2341 56.4216 14.2799 57.6688C14.2999 58.2867 14.3486 58.9017 14.4115 59.5168C14.4617 60.1231 14.5535 60.7252 14.6861 61.3189Z" fill="black"/>
</g>
<path opacity="0.3" d="M31.4781 71.5914C25.5051 67.7496 25.2677 57.8375 25.4708 51.2982C25.508 50.1739 25.5538 49.1527 25.5881 48.2745C25.6508 47.3955 25.6508 46.5131 25.5881 45.6341C24.9845 41.143 21.5518 40.6023 21.5518 40.6023H21.5661C25.3678 41.3003 26.2775 44.2896 26.0572 47.6451C26.0572 47.6451 26.0572 47.668 26.0572 47.7138C26.0572 47.7596 26.0572 47.7853 26.0572 47.8368V47.8654C25.9285 50.0252 25.1333 67.3577 31.4781 71.5914Z" fill="black"/>
<path opacity="0.2" d="M30.9916 37.7388C30.491 38.2623 24.0174 36.9206 22.8875 37.5213C22.4098 37.7731 22.2009 38.6656 21.7204 39.6439C20.3701 41.7894 18.4707 42.127 18.3534 42.1441C20.619 40.4277 21.2512 36.297 20.127 33.6853C19.0028 31.0735 14.9779 31.7515 14.749 31.8287C15.4354 31.527 16.1736 31.3609 16.9231 31.3395C19.1 31.2251 21.7547 31.8373 22.4984 33.2161C24.0089 36.0281 30.4853 35.3959 31.0803 36.134C31.6753 36.872 31.4922 37.2153 30.9916 37.7388Z" fill="black"/>
<path d="M25.9225 35.2415C25.529 35.9678 25.372 36.7988 25.4734 37.6186L30.9572 38.2365C31.2375 37.9121 31.4447 37.5311 31.5647 37.1194C31.6846 36.7077 31.7145 36.275 31.6523 35.8508C31.6523 35.8508 26.22 35.3044 25.9225 35.2415Z" fill="#263238"/>
<path d="M9.27111 35.0383C9.27111 35.0383 8.72473 33.8769 9.37981 33.1418C7.91517 33.0102 7.00836 32.8557 6.06435 32.7184C5.92418 33.1446 5.85553 33.5537 6.35041 34.203C6.8453 34.8524 9.27111 35.0383 9.27111 35.0383Z" fill="#263238"/>
<path d="M6.22428 42.3073C5.27456 43.8548 4.46214 46.3321 4.39062 50.2884" stroke="#407BFF" stroke-linecap="round" stroke-linejoin="round"/>
<path d="M9.3511 39.7555C8.66018 39.9158 8.02494 40.2586 7.51172 40.7481" stroke="#407BFF" stroke-linecap="round" stroke-linejoin="round"/>
<path d="M52.0114 24.8431L48.4013 25.2837C48.4013 25.2837 47.772 31.9175 47.1884 33.2076C47.1884 33.2076 36.0864 34.7352 31.5351 34.6007L29.2266 36.1683L29.1465 38.8974L31.4092 38.9632L32.1387 37.2468C32.1387 37.2468 33.6663 37.181 34.0181 36.32C34.0181 36.32 45.8153 39.1806 50.1606 35.9195C50.1578 35.908 52.7809 32.0605 52.0114 24.8431Z" fill="#FFC3BD"/>
<path opacity="0.2" d="M22.6157 75.8823C22.5127 79.481 20.1556 82.3301 17.3493 82.25C16.9722 82.2388 16.5985 82.1742 16.2394 82.0584C13.9909 81.3432 12.3718 78.6914 12.4605 75.5877C12.5492 72.584 14.2055 70.101 16.3824 69.4116C16.8174 69.2717 17.273 69.2068 17.7298 69.2199C20.536 69.3029 22.7216 72.2951 22.6157 75.8823Z" fill="#FAFAFA"/>
<path d="M20.0326 75.8823C19.9439 78.9546 18.3162 81.4805 16.2394 82.067C13.9909 81.3518 12.3718 78.7 12.4605 75.5962C12.5492 72.5926 14.2055 70.1096 16.3824 69.4202C18.545 70.0066 20.1213 72.7013 20.0326 75.8823Z" fill="#263238"/>
<path opacity="0.2" d="M66.6921 76.1684C66.5863 79.7671 64.2291 82.6191 61.4257 82.5362C61.0484 82.5264 60.6745 82.4619 60.3158 82.3445C58.0645 81.6294 56.4454 78.9804 56.5369 75.8738C56.6227 72.873 58.279 70.3871 60.456 69.6977C60.8909 69.5578 61.3466 69.493 61.8033 69.506C64.6096 69.589 66.7951 72.5755 66.6921 76.1684Z" fill="#FAFAFA"/>
<path d="M64.109 76.1684C64.0174 79.2378 62.3926 81.7638 60.3158 82.3502C58.0645 81.635 56.4454 78.9861 56.5369 75.8795C56.6227 72.8787 58.279 70.3928 60.456 69.7034C62.6214 70.2898 64.2005 72.9845 64.109 76.1684Z" fill="#263238"/>
<path d="M71.1143 66.6883C71.1629 70.2269 65.7764 72.5697 56.7626 74.0458C54.3328 74.473 51.8498 74.502 49.4108 74.1316C45.4059 73.4708 43.4492 71.7773 43.4492 71.7773C43.4492 71.7773 44.4676 59.5482 54.5456 57.9977C61.4111 56.945 66.5774 59.7141 69.1977 62.6977C70.4306 64.0994 71.1 65.5555 71.1143 66.6883Z" fill="#407BFF"/>
<path opacity="0.3" d="M71.1147 66.6883C71.1633 70.2269 65.7767 72.5698 56.7629 74.0458C54.3332 74.4731 51.8502 74.502 49.4111 74.1317C49.8431 70.8105 51.7826 62.0999 60.2128 61.1959C64.0375 60.784 66.9897 61.5564 69.1981 62.6978C70.431 64.0995 71.1004 65.5555 71.1147 66.6883Z" fill="black"/>
<g opacity="0.3">
<path d="M44.0332 71.8316C44.2187 70.167 44.6157 68.5328 45.2146 66.9686C45.8036 65.3882 46.6167 63.9008 47.629 62.5518C48.1405 61.8813 48.7153 61.2615 49.3454 60.701C49.9698 60.1314 50.658 59.636 51.3964 59.2249C52.8657 58.3963 54.4939 57.8884 56.1737 57.7345C55.3506 57.8724 54.5409 58.0811 53.7536 58.3581C53.356 58.4783 52.9812 58.6642 52.6094 58.8215C52.2362 59.0002 51.8724 59.1979 51.5195 59.4137C51.159 59.6196 50.8272 59.8685 50.4868 60.1002C50.1464 60.3319 49.8317 60.6066 49.5313 60.8955C48.9205 61.4506 48.3639 62.0627 47.8693 62.7234C46.8644 64.0464 46.0453 65.5007 45.4349 67.0458C45.118 67.8155 44.8448 68.6025 44.6168 69.403C44.374 70.2002 44.1792 71.0112 44.0332 71.8316Z" fill="black"/>
</g>
<path d="M30.5078 67.7925L31.1028 69.8121L37.3418 69.2915L37.4248 66.468L30.5078 67.7925Z" fill="#407BFF"/>
</svg>
