<svg width="67" height="81" viewBox="0 0 67 81" fill="none" xmlns="http://www.w3.org/2000/svg">
<path d="M12.1437 80.227C18.4848 80.227 23.6252 79.1139 23.6252 77.7409C23.6252 76.3678 18.4848 75.2548 12.1437 75.2548C5.80258 75.2548 0.662109 76.3678 0.662109 77.7409C0.662109 79.1139 5.80258 80.227 12.1437 80.227Z" fill="#407BFF"/>
<path opacity="0.5" d="M12.1437 80.227C18.4848 80.227 23.6252 79.1139 23.6252 77.7409C23.6252 76.3678 18.4848 75.2548 12.1437 75.2548C5.80258 75.2548 0.662109 76.3678 0.662109 77.7409C0.662109 79.1139 5.80258 80.227 12.1437 80.227Z" fill="white"/>
<path d="M53.8038 80.227C60.1449 80.227 65.2854 79.1139 65.2854 77.7409C65.2854 76.3678 60.1449 75.2548 53.8038 75.2548C47.4627 75.2548 42.3223 76.3678 42.3223 77.7409C42.3223 79.1139 47.4627 80.227 53.8038 80.227Z" fill="#407BFF"/>
<path opacity="0.5" d="M53.8038 80.227C60.1449 80.227 65.2854 79.1139 65.2854 77.7409C65.2854 76.3678 60.1449 75.2548 53.8038 75.2548C47.4627 75.2548 42.3223 76.3678 42.3223 77.7409C42.3223 79.1139 47.4627 80.227 53.8038 80.227Z" fill="white"/>
<path d="M34.5324 32.3507C34.995 32.6403 35.3904 33.0254 35.692 33.4803C36.0366 34.1066 37.4807 34.5141 37.4807 34.5141H38.014L38.2328 37.0221C37.683 37.04 37.1349 37.093 36.5918 37.1807C36.2717 37.2514 35.9458 37.2926 35.6182 37.3038C35.6182 37.3038 33.9252 35.1732 33.6435 34.7657C33.3618 34.3582 33.3317 33.5131 33.4575 33.3545C33.5833 33.1958 34.5324 32.3507 34.5324 32.3507Z" fill="white" stroke="#263238" stroke-width="0.75" stroke-linecap="round" stroke-linejoin="round"/>
<path d="M32.2753 36.6146C32.2753 36.6146 31.3345 36.9292 31.742 37.1808C31.9516 37.274 32.1849 37.2998 32.4097 37.2547C32.6346 37.2096 32.8399 37.0959 32.9974 36.9292C33.1533 36.6775 32.6582 36.4888 32.2753 36.6146Z" fill="white" stroke="#263238" stroke-width="0.75" stroke-linecap="round" stroke-linejoin="round"/>
<path d="M31.2417 33.7319C31.2417 33.7319 34.0314 32.7282 34.1572 32.8211C34.283 32.9141 34.5018 33.762 34.5018 33.762C34.5018 33.762 36.4436 34.9216 36.6023 35.362C36.728 36.0455 36.728 36.7462 36.6023 37.4296C36.5065 37.5883 35.976 37.7742 35.7818 37.8372C35.586 37.8857 35.3813 37.8857 35.1855 37.8372C35.0925 37.8071 33.5856 36.7432 33.5856 36.7432C33.5856 36.7432 32.0512 36.899 31.7066 36.899C31.362 36.899 31.0146 36.869 31.0146 36.869L31.2417 33.7319Z" fill="white" stroke="#263238" stroke-width="0.75" stroke-linecap="round" stroke-linejoin="round"/>
<path d="M34.7207 34.9135C34.7207 34.9135 35.7545 35.4796 35.9761 35.7914C36.1976 36.1032 36.4137 37.4543 36.4137 37.4543" stroke="#263238" stroke-width="0.75" stroke-linecap="round" stroke-linejoin="round"/>
<path d="M34.2832 35.4878C34.2832 35.4878 35.5058 36.1442 35.6288 36.4587C35.7459 36.86 35.8372 37.2684 35.9023 37.6813" stroke="#263238" stroke-width="0.75" stroke-linecap="round" stroke-linejoin="round"/>
<path d="M34.9098 32.947C34.9098 32.947 33.5614 34.4513 33.2469 34.6099C32.9323 34.7685 32.8722 34.5771 32.6999 34.4513C32.5276 34.3254 33.7036 32.6352 33.6735 32.5094C33.8378 32.3881 34.038 32.3252 34.2421 32.3306C34.4463 32.3361 34.6428 32.4096 34.8004 32.5395" fill="white"/>
<path d="M34.9098 32.947C34.9098 32.947 33.5614 34.4513 33.2469 34.6099C32.9323 34.7685 32.8722 34.5771 32.6999 34.4513C32.5276 34.3254 33.7036 32.6352 33.6735 32.5094C33.8378 32.3881 34.038 32.3252 34.2421 32.3306C34.4463 32.3361 34.6428 32.4096 34.8004 32.5395" stroke="#263238" stroke-width="0.75" stroke-linecap="round" stroke-linejoin="round"/>
<path d="M32.9325 36.2809L32.8832 36.4504C32.7842 36.7503 32.7262 37.0622 32.7109 37.3776C32.7738 37.5034 33.1513 37.6292 33.2771 37.4405C33.4029 37.2518 33.6518 36.3137 33.5889 36.1879C33.526 36.0621 33.2798 35.5178 32.9325 36.2809Z" fill="white" stroke="#263238" stroke-width="0.75" stroke-linecap="round" stroke-linejoin="round"/>
<path d="M34.1246 36.1441C34.0261 36.2672 33.5776 37.6183 33.687 37.7851C33.7964 37.952 34.2504 38.0067 34.3762 37.818C34.502 37.6293 34.9396 36.4505 34.8138 36.177C34.688 35.9035 34.5731 35.6108 34.1246 36.1441Z" fill="white" stroke="#263238" stroke-width="0.75" stroke-linecap="round" stroke-linejoin="round"/>
<path d="M34.9097 36.4259L34.8632 36.5353C34.7264 36.8607 34.3353 37.8426 34.4392 38.0258C34.5432 38.2091 35.1585 38.2993 35.2844 37.9958C35.4102 37.6922 35.8505 36.5216 35.5579 36.2399C35.5119 36.1853 35.4512 36.1452 35.383 36.1243C35.3148 36.1035 35.242 36.1029 35.1734 36.1226C35.1049 36.1423 35.0435 36.1814 34.9967 36.2352C34.9498 36.289 34.9196 36.3552 34.9097 36.4259Z" fill="white" stroke="#263238" stroke-width="0.75" stroke-linecap="round" stroke-linejoin="round"/>
<path d="M13.3329 10.0631C13.3329 10.0631 13.497 11.0724 13.3083 11.4744C13.1196 11.8765 12.8379 12.7188 12.8379 12.7188L17.0006 16.4111C17.0006 16.4111 18.2696 14.8111 18.5048 14.4966C18.74 14.1821 19.0518 13.7663 19.0518 13.7663C19.0518 13.7663 17.006 12.4727 16.5903 11.5318C16.1746 10.591 16.3797 9.39307 15.4963 9.20435C14.6129 9.01564 13.5928 9.49973 13.3329 10.0631Z" fill="white" stroke="#263238" stroke-width="0.75" stroke-linecap="round" stroke-linejoin="round"/>
<path d="M21.2568 3.83276C21.2568 3.83276 22.9962 3.80815 22.6434 2.13979C22.2906 0.471436 18.2237 0.115885 17.4715 0.892628C16.7194 1.66937 16.837 1.98663 16.837 1.98663C16.837 1.98663 13.3335 1.89364 12.4391 3.79721C11.5448 5.70077 11.9468 8.17322 12.5348 9.46415C13.1229 10.7551 14.1102 10.8973 14.6271 10.7332C15.144 10.5691 15.5187 10.2628 15.5187 9.79235C15.5187 9.32193 15.8497 8.1951 16.249 8.47681C16.6483 8.75852 17.0695 8.85151 17.7778 8.17049C18.4862 7.48947 19.4927 6.64162 19.118 5.9606C18.7433 5.27958 18.1061 5.25497 18.4589 4.94865C18.8117 4.64233 20.811 4.40165 20.997 4.19652C21.1005 4.08833 21.188 3.96583 21.2568 3.83276Z" fill="#263238" stroke="#263238" stroke-width="0.75" stroke-linecap="round" stroke-linejoin="round"/>
<path d="M21.1721 2.83179C21.1721 2.83179 21.4182 3.32682 19.0771 3.9422C16.7359 4.55758 12.7866 4.68065 12.6689 6.16029" stroke="white" stroke-width="0.75" stroke-linecap="round" stroke-linejoin="round"/>
<path d="M16.6182 5.66797C16.6182 5.66797 13.7848 6.5295 13.1666 7.51683C12.5485 8.50417 13.4155 9.36297 13.4155 9.36297" stroke="white" stroke-width="0.75" stroke-linecap="round" stroke-linejoin="round"/>
<path d="M21.2561 3.83276C21.2561 3.83276 21.9152 6.06453 21.9152 6.51307C21.9152 6.96162 21.4448 7.40468 21.6554 7.89972C21.866 8.39476 22.5716 9.35748 22.5716 9.6638C22.5716 9.97012 21.5378 10.2737 21.5378 10.2737C21.5378 10.2737 20.6681 13.5557 20.4793 13.966C20.2906 14.3762 19.6588 14.4364 18.904 14.2395C18.1491 14.0426 16.1553 12.9923 15.622 12.1718C15.0886 11.3513 15.4797 9.95918 15.4797 9.95918C15.4797 9.95918 14.3857 9.46688 14.1642 8.43305C13.9427 7.39921 14.7522 6.71546 15.4579 6.95067C15.6562 7.00935 15.8401 7.10874 15.9978 7.24248C16.1556 7.37622 16.2837 7.54138 16.3741 7.72742C16.3741 7.72742 16.4452 7.98451 16.6476 7.91613C16.85 7.84776 17.0469 7.4211 17.2356 7.39648C17.4243 7.37187 18.7645 6.90418 18.6031 6.38726C18.4418 5.87034 16.7679 5.84026 16.8855 5.25771C17.0031 4.67515 21.2561 3.83276 21.2561 3.83276Z" fill="white" stroke="#263238" stroke-width="0.75" stroke-linecap="round" stroke-linejoin="round"/>
<path d="M19.1644 9.80334L18.4834 10.2738" stroke="#263238" stroke-width="0.75" stroke-linecap="round" stroke-linejoin="round"/>
<path d="M18.9043 10.1096C18.9043 10.1096 19.1176 10.673 19.9983 10.8617L18.9043 10.1096Z" fill="white"/>
<path d="M18.9043 10.1096C18.9043 10.1096 19.1176 10.673 19.9983 10.8617" stroke="#263238" stroke-width="0.75" stroke-linecap="round" stroke-linejoin="round"/>
<path d="M18.9292 10.2737C18.9292 10.2737 18.5299 11.3677 19.0222 11.6138C19.5145 11.86 19.7278 10.8398 19.7278 10.8398L18.9292 10.2737Z" fill="black"/>
<path d="M21.5853 8.07747C21.558 8.64908 21.413 9.10583 21.2626 9.09762C21.1122 9.08942 21.0165 8.62173 21.0465 8.05011C21.0766 7.4785 21.2188 7.02449 21.3693 7.02996C21.5197 7.03543 21.6154 7.50585 21.5853 8.07747Z" fill="white" stroke="#263238" stroke-width="0.75" stroke-linecap="round" stroke-linejoin="round"/>
<path d="M21.0462 7.50037H16.249" stroke="#263238" stroke-width="0.75" stroke-linecap="round" stroke-linejoin="round"/>
<path d="M20.7158 6.86592C20.7517 6.73768 20.8171 6.61965 20.9069 6.52131C20.9967 6.42298 21.1083 6.3471 21.2327 6.29978C21.6348 6.18217 21.7032 6.3955 21.7032 6.3955" fill="white"/>
<path d="M20.7158 6.86592C20.7517 6.73768 20.8171 6.61965 20.9069 6.52131C20.9967 6.42298 21.1083 6.3471 21.2327 6.29978C21.6348 6.18217 21.7032 6.3955 21.7032 6.3955" stroke="#263238" stroke-width="0.75" stroke-linecap="round" stroke-linejoin="round"/>
<path d="M4.40604 46.7096L18.9836 46.272C18.9836 46.272 19.8917 56.3642 19.6729 56.5857C19.4541 56.8072 5.00227 57.4062 5.00227 57.4062C5.00227 57.4062 3.88365 57.4855 3.72502 56.985C3.56639 56.4845 4.40604 46.7096 4.40604 46.7096Z" fill="white" stroke="#263238" stroke-width="0.75" stroke-linecap="round" stroke-linejoin="round"/>
<path d="M4.40638 46.7095C4.40638 46.7095 3.03888 56.7087 3.27683 56.9931C3.51477 57.2776 4.64433 57.4827 5.00262 57.4006C5.33082 57.3405 4.40638 46.7095 4.40638 46.7095Z" fill="white" stroke="#263238" stroke-width="0.75" stroke-linecap="round" stroke-linejoin="round"/>
<path d="M8.70038 74.1088C7.89902 74.5984 7.51066 75.4244 7.69937 76.0835C7.88809 76.7427 7.94826 76.8056 8.4515 76.904C8.95474 77.0025 11.2084 76.6524 13.648 76.2449C16.0876 75.8374 16.4405 75.7444 16.6565 75.3998C16.8726 75.0551 17.2528 74.7105 14.8377 74.3058C12.4227 73.901 12.2039 73.4579 12.2039 73.4579C12.2039 73.4579 9.98584 73.3239 8.70038 74.1088Z" fill="#407BFF" stroke="#263238" stroke-width="0.75" stroke-linecap="round" stroke-linejoin="round"/>
<path d="M16.5915 74.7598C16.4274 75.0962 15.9132 75.7006 14.2968 75.8948C12.5874 76.0999 9.49413 76.409 7.86133 76.5485C7.97346 76.7809 8.11021 76.822 8.45209 76.8985C8.9526 76.9915 11.209 76.6469 13.6486 76.2394C16.0882 75.8319 16.4411 75.7389 16.6571 75.3943C16.7966 75.1864 16.9853 74.9786 16.5915 74.7598Z" fill="#263238" stroke="#263238" stroke-width="0.75" stroke-linecap="round" stroke-linejoin="round"/>
<path d="M13.0267 74.954C13.0267 74.954 15.5347 76.1464 16.9159 76.4282C18.2971 76.7099 18.639 76.7427 18.4831 77.1803C18.3272 77.6179 18.2943 77.7464 16.1939 78.2469C14.0934 78.7474 11.8042 78.184 10.8004 77.9953C9.79667 77.8066 9.48487 78.091 9.04727 77.9023C8.60967 77.7136 8.73275 76.7728 8.73275 76.7728L13.0267 74.954Z" fill="#407BFF" stroke="#263238" stroke-width="0.75" stroke-linecap="round" stroke-linejoin="round"/>
<path d="M16.1942 78.247C17.9583 77.8258 18.2619 77.6699 18.4068 77.369C16.4923 78.1895 13.9542 77.8504 12.0178 77.6289C10.7707 77.4839 9.58094 77.3554 8.73582 77.287C8.73139 77.4085 8.75854 77.529 8.81463 77.6369C8.87071 77.7448 8.95381 77.8362 9.05581 77.9024C9.49342 78.0911 9.80794 77.8094 10.809 77.9954C11.81 78.1813 14.0937 78.7475 16.1942 78.247Z" fill="#263238" stroke="#263238" stroke-width="0.75" stroke-linecap="round" stroke-linejoin="round"/>
<path d="M10.2066 51.9142C10.2066 51.9142 9.76631 55.4861 8.88837 57.0232C8.01043 58.5603 6.8207 59.6242 6.63199 61.8505C6.44327 64.0768 7.06959 73.168 7.13249 73.9529C7.1954 74.7379 6.85899 74.9868 7.1954 75.4873C7.40616 75.7943 7.63638 76.0876 7.88462 76.3652L8.92119 75.4572C8.92119 75.4572 9.67332 73.0422 9.4846 68.4337C9.29589 63.8252 9.3287 60.7237 10.1437 57.6495C10.9588 54.5754 11.1147 53.7631 10.7372 52.5706C10.3598 51.3782 10.2066 51.9142 10.2066 51.9142Z" fill="#263238" stroke="#263238" stroke-width="0.75" stroke-linecap="round" stroke-linejoin="round"/>
<path d="M8.23268 44.5078C8.23268 44.5078 9.26652 46.4578 9.50173 46.9693C9.73694 47.4807 10.2757 53.413 9.85454 55.3877C9.43335 57.3623 7.79234 60.7182 7.94003 63.6638C8.08772 66.6094 8.21353 74.4179 8.21353 74.5108C8.11924 74.9765 8.11924 75.4564 8.21353 75.9221C8.36943 76.7672 8.83985 77.0161 8.83985 77.0161C9.638 76.6446 10.466 76.3408 11.315 76.1081C12.8521 75.6678 13.2897 75.0414 13.2897 75.0414C13.1556 74.6354 12.9985 74.2372 12.8193 73.849C12.6005 73.4114 12.2258 72.7221 12.2887 72.5006C12.3516 72.2791 12.7591 65.0723 13.5742 62.6901C14.3892 60.3079 14.8569 57.7999 15.5488 55.6037C16.2408 53.4075 17.89 47.5245 17.89 46.0202V44.1714L8.10961 43.9827L8.23268 44.5078Z" fill="#263238" stroke="#263238" stroke-width="0.75" stroke-linecap="round" stroke-linejoin="round"/>
<path d="M9.0392 58.5548C8.7657 59.3945 8.46211 60.3353 8.23237 61.082C7.68537 62.8597 8.23237 72.8425 8.23237 72.8425C8.29219 73.5702 8.30954 74.3008 8.28434 75.0305C8.23237 75.9358 8.28433 76.2941 8.5086 76.5375" stroke="white" stroke-width="0.75" stroke-linecap="round" stroke-linejoin="round"/>
<path d="M9.73683 56.4325C9.73683 56.4325 9.53444 57.0369 9.26367 57.8656" stroke="white" stroke-width="0.75" stroke-linecap="round" stroke-linejoin="round"/>
<path d="M12.535 11.8737C12.535 11.8737 13.629 12.2484 15.27 13.6842C16.911 15.1201 18.5848 16.4822 18.232 16.9662C17.8792 17.4503 17.2201 19.1543 17.2201 19.1543C17.2201 19.1543 16.6101 18.1423 14.7996 16.6927C12.989 15.2432 11.5996 13.9413 11.5996 13.9413C11.5996 13.9413 12.3463 12.18 12.535 11.8737Z" fill="white" stroke="#263238" stroke-width="0.75" stroke-linecap="round" stroke-linejoin="round"/>
<path d="M11.0776 14.1766C11.0776 14.1766 7.57409 16.6682 6.97513 19.0668C6.37616 21.4654 6.12727 22.6415 6.1765 27.2254C6.22573 31.8092 6.5047 34.7029 6.5047 34.9135C6.5047 35.1241 5.58301 43.6382 5.58301 43.7311C5.58301 43.8241 7.22401 45.3311 11.8134 45.4241C14.928 45.444 18.0387 45.2006 21.1124 44.6966L19.1131 28.1908C19.1131 28.1908 18.3364 21.1591 17.5377 19.8436C16.7391 18.528 11.0776 14.1766 11.0776 14.1766Z" fill="#407BFF" stroke="#263238" stroke-width="0.75" stroke-linecap="round" stroke-linejoin="round"/>
<path d="M13.0986 37.0549C13.0986 37.0549 16.0142 37.643 18.0217 36.9127" stroke="#263238" stroke-width="0.75" stroke-linecap="round" stroke-linejoin="round"/>
<path d="M13.0986 37.922C13.0986 37.922 16.0142 38.51 18.0217 37.7825" stroke="#263238" stroke-width="0.75" stroke-linecap="round" stroke-linejoin="round"/>
<path d="M30.7394 33.2615L31.4614 33.6061L31.0211 36.8662L30.3018 36.7404L30.7394 33.2615Z" fill="white" stroke="#263238" stroke-width="0.75" stroke-linecap="round" stroke-linejoin="round"/>
<path d="M14.1872 18.4651C13.7769 18.5946 13.4092 18.8328 13.1233 19.1543C12.6528 19.7013 10.1148 22.852 10.3007 24.2332C10.4867 25.6144 13.7879 30.6578 14.8819 32.2277C16.2288 34.2171 18.1687 35.7312 20.4257 36.5544C23.1854 37.5582 30.3648 37.0577 30.3648 37.0577L30.7449 33.1658C30.7449 33.1658 26.8284 31.9131 24.1317 31.0981C22.6318 30.6546 21.165 30.1062 19.742 29.4571C19.742 29.4571 19.1157 27.92 18.6753 27.6711C18.235 27.4222 18.1748 27.2636 18.1748 27.2636C18.1748 27.2636 17.3297 22.6551 16.8894 21.1481C16.449 19.6411 15.8555 19.2692 15.8555 19.2692" fill="#407BFF"/>
<path d="M14.1872 18.4651C13.7769 18.5946 13.4092 18.8328 13.1233 19.1543C12.6528 19.7013 10.1148 22.852 10.3007 24.2332C10.4867 25.6144 13.7879 30.6578 14.8819 32.2277C16.2288 34.2171 18.1687 35.7312 20.4257 36.5544C23.1854 37.5582 30.3648 37.0577 30.3648 37.0577L30.7449 33.1658C30.7449 33.1658 26.8284 31.9131 24.1317 31.0981C22.6318 30.6546 21.165 30.1062 19.742 29.4571C19.742 29.4571 19.1157 27.92 18.6753 27.6711C18.235 27.4222 18.1748 27.2636 18.1748 27.2636C18.1748 27.2636 17.3297 22.6551 16.8894 21.1481C16.449 19.6411 15.8555 19.2692 15.8555 19.2692" stroke="#263238" stroke-width="0.75" stroke-linecap="round" stroke-linejoin="round"/>
<path d="M50.8353 73.3813C49.717 74.027 48.5545 74.5928 47.3564 75.0743C45.7564 75.6706 45.379 75.8948 45.6935 76.234C46.008 76.5731 48.7348 76.8302 50.2692 76.5075C51.8035 76.1847 52.4025 75.9769 53.0917 76.007C53.7809 76.037 54.7327 76.2258 55.0664 75.7553C55.4 75.2849 55.5368 75.1919 55.2852 74.407C55.0335 73.622 50.8353 73.3813 50.8353 73.3813Z" fill="#407BFF" stroke="#263238" stroke-width="0.75" stroke-linecap="round" stroke-linejoin="round"/>
<path d="M50.2702 76.5157C51.8073 76.2039 52.4035 75.9851 53.0928 76.0152C53.782 76.0453 54.7338 76.234 55.0674 75.7636C55.3136 75.4271 55.4476 75.2822 55.4121 74.9431C54.2962 74.8501 52.1437 75.2029 49.5783 75.7636C48.2799 76.0797 46.9336 76.1484 45.6098 75.966C45.5948 76.0148 45.5949 76.067 45.61 76.1158C45.6252 76.1645 45.6546 76.2076 45.6946 76.2395C46.0091 76.5786 48.7359 76.8302 50.2702 76.5157Z" fill="#263238" stroke="#263238" stroke-width="0.75" stroke-linecap="round" stroke-linejoin="round"/>
<path d="M56.7598 75.4517C56.1319 76.1308 55.4624 76.7702 54.7551 77.3662C53.7185 78.2113 51.9325 79.3737 52.1213 79.8742C52.31 80.3747 53.5927 80.8451 56.2894 80.1477C58.0153 79.6759 59.6478 78.9128 61.1167 77.8913C61.418 77.8355 61.6868 77.6673 61.8688 77.4209C62.0904 77.0434 61.8387 76.4499 61.8387 76.4499L56.7598 75.4517Z" fill="#407BFF" stroke="#263238" stroke-width="0.75" stroke-linecap="round" stroke-linejoin="round"/>
<path d="M56.2888 80.1532C58.0146 79.6814 59.6472 78.9183 61.1161 77.8968C61.4173 77.8409 61.6862 77.6728 61.8682 77.4264C61.9876 77.1374 61.9876 76.8128 61.8682 76.5238C57.9681 79.4749 54.3196 80.0793 52.3887 80.1668C52.8974 80.5169 54.15 80.7002 56.2888 80.1532Z" fill="#263238" stroke="#263238" stroke-width="0.75" stroke-linecap="round" stroke-linejoin="round"/>
<path d="M52.0779 38.9284C52.0779 38.9284 50.4178 39.1499 49.2253 38.7096C48.0328 38.2692 46.906 37.9274 46.906 37.9274C46.906 37.9274 46.2469 46.4852 46.9689 49.9341C47.691 53.3829 49.6027 57.5921 49.6328 58.5548C49.6711 59.713 49.8074 60.8658 50.0403 62.0009C50.2591 62.8789 51.3258 69.659 51.3887 70.4029C51.4306 70.7782 51.4306 71.1571 51.3887 71.5324C51.3887 71.5324 50.6366 71.784 50.6366 72.0028V73.6001C51.2568 73.9262 51.9083 74.1892 52.5812 74.385C53.7408 74.7297 55.3709 75.0114 55.3709 75.0114C55.5108 74.3796 55.6149 73.7404 55.6827 73.0969C55.6827 72.6593 55.4092 71.4996 55.4092 70.8706C55.4092 70.2415 55.5678 62.7202 55.5678 62.7202C55.5678 62.7202 57.1021 69.1475 57.1021 71.2781C57.1021 73.4086 57.0721 74.1006 57.0721 74.1006C57.0721 74.1006 56.3828 73.8818 56.3828 74.3522C56.3828 74.8227 56.35 75.9495 56.35 75.9495C56.35 75.9495 58.7951 76.5758 59.9548 76.9204C60.6462 77.129 61.3769 77.1721 62.0881 77.0462C62.0881 77.0462 62.7144 74.664 62.6515 73.8818C62.5886 73.0996 61.8064 72.4377 61.8064 72.0001C61.8064 71.5625 62.2139 67.2357 61.6176 63.4724C61.0214 59.709 59.4542 57.9859 59.3913 56.1371C59.3284 54.2882 59.6648 47.6421 59.7059 46.5645C59.7469 45.4869 60.8327 43.2415 60.9913 42.2377C61.15 41.234 61.0214 38.2583 61.0214 38.2583C61.0214 38.2583 53.9924 39.273 52.0779 38.9284Z" fill="#263238" stroke="#263238" stroke-width="0.75" stroke-linecap="round" stroke-linejoin="round"/>
<path d="M49.0801 43.2251L50.773 44.3218" stroke="white" stroke-width="0.75" stroke-linecap="round" stroke-linejoin="round"/>
<path d="M55.1895 61.7603C55.4247 62.3702 55.5696 62.723 55.5696 62.723" stroke="white" stroke-width="0.75" stroke-linecap="round" stroke-linejoin="round"/>
<path d="M50.209 44.0402C50.209 44.0402 51.3358 50.6534 52.6842 54.7915C53.3761 56.9139 54.1173 58.9487 54.6753 60.4229" stroke="white" stroke-width="0.75" stroke-linecap="round" stroke-linejoin="round"/>
<path d="M37.4814 34.0766C37.5115 34.1695 37.6674 37.5883 37.6674 37.5883L46.6656 36.7678L46.4796 32.348L37.4814 34.0766Z" fill="#263238" stroke="#263238" stroke-width="0.75" stroke-linecap="round" stroke-linejoin="round"/>
<path d="M55.1298 16.1704C55.1298 16.1704 53.0922 16.8897 52.6847 17.393C52.2772 17.8962 49.8621 26.3884 49.069 28.8964C48.2758 31.4044 48.0352 38.9913 48.0352 38.9913C48.4736 39.1535 48.9246 39.2798 49.3835 39.3688C49.8351 39.445 50.2932 39.4761 50.751 39.4618C50.751 39.4618 53.3848 30.5894 54.6703 27.5508C55.9557 24.5122 58.1164 20.1526 58.9342 18.4596C59.7519 16.7666 60.4685 16.4521 60.3755 15.6371C60.2825 14.822 59.9051 14.5075 59.4347 14.4446C58.9643 14.3817 55.1298 16.1704 55.1298 16.1704Z" fill="white" stroke="#263238" stroke-width="0.75" stroke-linecap="round" stroke-linejoin="round"/>
<path d="M55.3845 15.9215C55.3845 15.9215 53.3469 16.6408 52.9394 17.1441C52.5318 17.6473 50.1196 26.1395 49.3428 28.6475C48.5661 31.1555 48.3008 38.7424 48.3008 38.7424C48.7392 38.9046 49.1902 39.0309 49.6491 39.1199C50.1009 39.1945 50.5589 39.2257 51.0166 39.2128C51.0166 39.2128 53.6505 30.3405 54.9359 27.2991C56.2214 24.2578 58.3848 19.9146 59.1998 18.208C60.0148 16.5013 60.7341 16.2032 60.6411 15.3882C60.5482 14.5731 60.1707 14.2586 59.7003 14.1957C59.2299 14.1328 55.3845 15.9215 55.3845 15.9215Z" fill="#407BFF" stroke="#263238" stroke-width="0.75" stroke-linecap="round" stroke-linejoin="round"/>
<path d="M58.1382 16.9526C56.8603 19.1383 55.7398 21.4123 54.785 23.7573C53.4996 27.0803 52.4658 30.0478 51.1475 34.4785C50.3552 37.2143 50.0897 40.0757 50.3653 42.9105C50.3653 42.9105 50.9916 43.9772 54.692 44.103C58.3925 44.2288 63.0311 43.0364 63.0311 43.0364C63.0311 43.0364 62.402 39.273 62.3391 37.0494C62.2762 34.8259 64.0649 27.0174 64.817 24.9798C65.5692 22.9422 67.1992 20.9047 65.6376 18.93C64.0759 16.9553 60.3398 14.729 60.3398 14.729C60.3398 14.729 58.5457 16.2633 58.1382 16.9526Z" fill="#263238" stroke="#263238" stroke-width="0.75" stroke-linecap="round" stroke-linejoin="round"/>
<path d="M53.9066 16.9225C53.9066 16.9225 52.9357 18.1451 52.0577 20.7515C51.1798 23.358 49.5497 30.283 48.7976 33.2286C48.0455 36.1742 47.668 42.7273 47.668 42.7273C47.668 42.7273 47.2605 42.6972 46.4154 42.6972C45.8586 42.6807 45.3123 42.5415 44.8154 42.2897C44.8154 42.2897 45.4117 35.8624 45.945 32.8539C46.4783 29.8454 48.0455 24.4821 48.3272 22.3816C48.6089 20.2811 48.7019 19.7505 49.0793 19.4661C49.4567 19.1816 52.4023 17.3984 52.9986 16.9909C53.5948 16.5834 53.9066 16.9225 53.9066 16.9225Z" fill="#263238" stroke="#263238" stroke-width="0.75" stroke-linecap="round" stroke-linejoin="round"/>
<path d="M61.3053 15.4182C61.3053 15.4182 59.5194 18.9601 59.049 19.6192C58.7763 19.9954 58.5348 20.3933 58.3269 20.8089L56.7598 21.4051L57.3861 22.4089C57.3861 22.4089 54.2217 28.0758 53.4066 29.963C52.5916 31.8501 51.7656 33.8823 51.7656 33.8823" stroke="white" stroke-width="0.75" stroke-linecap="round" stroke-linejoin="round"/>
<path d="M48.4258 31.3771C48.3684 32.0034 48.3574 32.2523 48.3574 32.2523" stroke="white" stroke-width="0.75" stroke-linecap="round" stroke-linejoin="round"/>
<path d="M52.3105 18.0193L50.5546 20.716L50.9621 21.3423L49.9884 22.5348C49.9884 22.5348 48.9546 26.8288 48.6729 29.148C48.6182 29.5993 48.5717 29.9932 48.5361 30.335" stroke="white" stroke-width="0.75" stroke-linecap="round" stroke-linejoin="round"/>
<path d="M52.6552 16.8596L52.3105 18.5198L54.0965 17.33L52.6552 16.8596Z" fill="white" stroke="#263238" stroke-width="0.75" stroke-linecap="round" stroke-linejoin="round"/>
<path d="M54.1586 15.5441C54.1257 15.6371 52.6543 16.8596 52.6543 16.8596L54.3144 17.5488L54.6591 16.2005L54.1586 15.5441Z" fill="white" stroke="#263238" stroke-width="0.75" stroke-linecap="round" stroke-linejoin="round"/>
<path d="M53.5623 3.03413C52.8547 3.47493 52.2969 4.11943 51.9623 4.883C51.3989 6.16845 50.9613 6.70178 51.0871 7.10929C51.1773 7.38497 51.2396 7.66901 51.2731 7.95715C51.2731 8.05014 49.9575 9.30551 49.9247 9.68021C49.8919 10.0549 50.7726 10.7469 50.7726 10.7469C50.7726 10.7469 50.8656 12.9103 50.8656 13.099C50.8656 13.2877 50.9285 14.2586 51.8392 14.5075C52.4587 14.6503 53.1036 14.64 53.7182 14.4774L54.3144 17.5488C54.3144 17.5488 58.4853 14.9779 58.9229 14.7591C59.3605 14.5403 59.8938 14.2586 59.9267 13.914C59.9595 13.5694 59.675 11.6549 59.675 11.6549C59.675 11.6549 61.9013 9.6173 61.863 7.23511C61.8247 4.85291 60.5557 3.34866 58.2337 2.64029C55.9117 1.93192 53.5623 3.03413 53.5623 3.03413Z" fill="white" stroke="#263238" stroke-width="0.75" stroke-linecap="round" stroke-linejoin="round"/>
<path d="M61.8692 7.23513C61.8391 4.85294 60.5537 3.34868 58.2344 2.62664C55.9151 1.9046 53.563 3.03416 53.563 3.03416C53.3797 3.14398 53.2075 3.2713 53.0488 3.41432C53.8146 3.27757 55.0755 3.18185 55.978 3.7562C57.3455 4.63414 56.4785 5.51208 56.0081 5.9825C55.5377 6.45292 55.4447 6.6389 55.7893 7.0765C56.1339 7.5141 56.7931 7.5141 56.6344 7.92162C56.4758 8.32914 56.0081 8.89528 56.3855 9.05118C56.763 9.20708 57.1048 8.86246 57.2635 8.39204C57.4221 7.92162 58.2016 7.92162 58.5161 8.89528C58.6301 9.26141 58.6279 9.65382 58.5098 10.0187C58.3918 10.3835 58.1638 10.7028 57.857 10.9329C57.6044 11.1199 57.2922 11.2084 56.979 11.1817C57.5176 11.4552 58.0856 11.6663 58.672 11.8108C59.0123 11.8392 59.355 11.8125 59.6867 11.7315C59.6867 11.6823 59.6867 11.6522 59.6867 11.6522C59.6867 11.6522 61.9021 9.61733 61.8692 7.23513Z" fill="#263238" stroke="#263238" stroke-width="0.75" stroke-linecap="round" stroke-linejoin="round"/>
<path d="M52.7479 8.45762C52.7479 8.70104 52.6714 8.89796 52.5756 8.89796C52.4799 8.89796 52.4033 8.70104 52.4033 8.45762C52.4033 8.21421 52.4799 8.02002 52.5756 8.02002C52.6714 8.02002 52.7479 8.21694 52.7479 8.45762Z" fill="black"/>
<path d="M51.9326 7.14218C51.9326 7.14218 52.0584 6.70184 52.7531 6.73466C53.4478 6.76748 53.4752 7.26798 53.4752 7.26798" fill="white"/>
<path d="M51.9326 7.14218C51.9326 7.14218 52.0584 6.70184 52.7531 6.73466C53.4478 6.76748 53.4752 7.26798 53.4752 7.26798" stroke="#263238" stroke-width="0.75" stroke-linecap="round" stroke-linejoin="round"/>
<path d="M50.7725 10.7468C50.964 10.816 51.1695 10.838 51.3714 10.8108C51.5732 10.7837 51.7656 10.7083 51.9321 10.5909C52.4326 10.1834 52.0251 9.83606 52.0251 9.83606" fill="white"/>
<path d="M50.7725 10.7468C50.964 10.816 51.1695 10.838 51.3714 10.8108C51.5732 10.7837 51.7656 10.7083 51.9321 10.5909C52.4326 10.1834 52.0251 9.83606 52.0251 9.83606" stroke="#263238" stroke-width="0.75" stroke-linecap="round" stroke-linejoin="round"/>
<path d="M50.8988 11.2474C50.8988 11.2474 52.5589 10.4269 53.3111 10.4023C54.0632 10.3777 54.8481 11.6659 54.5391 12.7599C54.23 13.8539 53.8827 14.4009 52.816 14.8303C51.7494 15.2597 50.7456 15.1749 50.5596 14.4529C50.3737 13.7308 51.216 12.6997 51.6235 12.511C52.0311 12.3223 52.3456 12.2922 52.2827 12.6368C52.2198 12.9814 52.0311 13.2303 52.816 13.0744C53.601 12.9185 54.0386 12.6997 54.0686 11.8519C54.0987 11.004 53.7951 10.6922 52.9746 10.818C52.1541 10.9439 50.9371 11.6003 50.9371 11.6003L50.8988 11.2474Z" fill="#263238" stroke="#263238" stroke-width="0.75" stroke-linecap="round" stroke-linejoin="round"/>
<path d="M51.5557 11.9065C51.5557 11.9065 52.8739 11.8436 53.3444 11.3103L51.5557 11.9065Z" fill="white"/>
<path d="M51.5557 11.9065C51.5557 11.9065 52.8739 11.8436 53.3444 11.3103" stroke="#263238" stroke-width="0.75" stroke-linecap="round" stroke-linejoin="round"/>
<path d="M56.8556 11.1544C56.8576 11.4118 56.8021 11.6664 56.6933 11.8996C56.5845 12.1329 56.4251 12.3389 56.2266 12.5028" fill="white"/>
<path d="M56.8556 11.1544C56.8576 11.4118 56.8021 11.6664 56.6933 11.8996C56.5845 12.1329 56.4251 12.3389 56.2266 12.5028" stroke="#263238" stroke-width="0.75" stroke-linecap="round" stroke-linejoin="round"/>
<path d="M54.3145 17.5488L55.2252 19.6493C55.2252 19.6493 58.6713 17.0784 59.5192 16.0747C60.367 15.0709 61.0234 14.5704 60.553 13.8867C60.0826 13.2029 59.3934 13.7609 59.2676 13.8238C59.1417 13.8867 54.3145 17.5488 54.3145 17.5488Z" fill="white" stroke="#263238" stroke-width="0.75" stroke-linecap="round" stroke-linejoin="round"/>
<path d="M47.4284 36.0758C47.0381 34.8058 46.7248 33.5135 46.4903 32.2057C46.3016 31.0051 46.2168 29.7825 46.2168 29.7825C44.7025 29.6445 43.2222 29.2525 41.8381 28.6229C39.7704 27.6219 39.3301 27.2554 39.3301 27.2554C39.3301 27.2554 42.1198 36.3465 42.6859 38.2583C43.2521 40.1701 43.3752 40.5776 43.3752 40.5776C44.2698 41.0208 45.2174 41.348 46.1949 41.5513C46.9712 41.696 47.7577 41.7793 48.5471 41.8002L47.4284 36.0758Z" fill="white" stroke="#263238" stroke-width="0.75" stroke-linecap="round" stroke-linejoin="round"/>
<path d="M50.5537 36.0758C49.8907 35.9525 49.2469 35.7419 48.6392 35.4495C48.1833 35.1851 47.6857 35.0001 47.1678 34.9025H47.042L47.4167 36.0621C46.9541 36.1644 46.4819 36.2176 46.0082 36.2207C45.256 36.2207 43.6861 35.9691 43.626 36.0621C43.5678 36.2869 43.5465 36.5197 43.5631 36.7513C43.5631 36.9729 44.6899 38.3212 45.349 38.7916C46.0082 39.2621 46.6017 39.5739 47.1979 39.5739C47.7941 39.5739 50.9913 39.1363 50.9913 39.1363L50.5537 36.0758Z" fill="white" stroke="#263238" stroke-width="0.75" stroke-linecap="round" stroke-linejoin="round"/>
<path d="M59.6748 23.8503C59.6748 23.8503 59.8307 27.362 59.9265 29.9001C60.0222 32.4382 60.1781 32.6597 60.1781 32.6597C60.1781 32.6597 53.1546 35.2936 52.0879 35.5124C51.0213 35.7312 50.209 35.9828 50.209 35.9828L50.6794 39.3988C52.9777 39.5927 55.2921 39.3807 57.5169 38.7725C60.9357 37.7687 66.2006 36.765 66.2963 36.2973C66.392 35.8296 66.2963 34.4156 66.2963 34.1093C66.2963 33.803 66.2006 27.0557 66.2006 24.0472C66.2006 21.0387 66.4194 20.3467 66.0447 19.7204C65.67 19.0941 63.7555 18.7796 62.6587 19.4059" fill="#263238"/>
<path d="M59.6748 23.8503C59.6748 23.8503 59.8307 27.362 59.9265 29.9001C60.0222 32.4382 60.1781 32.6597 60.1781 32.6597C60.1781 32.6597 53.1546 35.2936 52.0879 35.5124C51.0213 35.7312 50.209 35.9828 50.209 35.9828L50.6794 39.3988C52.9777 39.5927 55.2921 39.3807 57.5169 38.7725C60.9357 37.7687 66.2006 36.765 66.2963 36.2973C66.392 35.8296 66.2963 34.4156 66.2963 34.1093C66.2963 33.803 66.2006 27.0557 66.2006 24.0472C66.2006 21.0387 66.4194 20.3467 66.0447 19.7204C65.67 19.0941 63.7555 18.7796 62.6587 19.4059" stroke="#263238" stroke-width="0.75" stroke-linecap="round" stroke-linejoin="round"/>
<path d="M54.3721 34.6754L60.1785 32.6597L59.6643 24.9224" stroke="white" stroke-width="0.75" stroke-linecap="round" stroke-linejoin="round"/>
<path d="M52.7422 35.2416L53.5818 34.9517" stroke="white" stroke-width="0.75" stroke-linecap="round" stroke-linejoin="round"/>
<path d="M61.6777 21.0223C61.6777 21.0223 63.8657 18.2873 66.0401 19.7122" stroke="white" stroke-width="0.75" stroke-linecap="round" stroke-linejoin="round"/>
<path d="M43.6865 36.3904C43.6865 36.3904 45.1306 37.3613 46.1015 37.5199" stroke="#263238" stroke-width="0.75" stroke-linecap="round" stroke-linejoin="round"/>
<path d="M43.9385 37.3312C44.364 37.7057 44.8518 38.0029 45.3798 38.2091L46.039 38.3951" stroke="#263238" stroke-width="0.75" stroke-linecap="round" stroke-linejoin="round"/>
<path d="M45.5137 38.8983C45.8868 39.035 46.277 39.1197 46.6733 39.1499" stroke="#263238" stroke-width="0.75" stroke-linecap="round" stroke-linejoin="round"/>
<path d="M18.8909 27.1597C18.8909 27.1597 18.4587 22.7426 17.95 19.6302C17.6765 17.9099 16.6345 16.4439 15.5459 15.1311C14.6461 14.0371 13.2868 13.0361 12.5374 11.8737C12.2776 11.4744 10.9156 14.3626 10.9128 14.3653C10.6393 14.9807 13.8803 16.9307 14.3179 17.3738C14.8923 17.9482 15.4119 18.6265 15.9343 19.2446C16.1723 19.5181 16.7986 20.5601 17.1569 20.6476L17.7367 20.7926L17.3018 22.0972L18.8909 27.1597Z" fill="#407BFF" stroke="#263238" stroke-width="0.75" stroke-linecap="round" stroke-linejoin="round"/>
</svg>
