<svg width="54" height="81" viewBox="0 0 54 81" fill="none" xmlns="http://www.w3.org/2000/svg">
<path d="M51.9711 6.01245H1.47542C0.660567 6.01245 0 6.67302 0 7.48787V79.0246C0 79.8394 0.660567 80.5 1.47542 80.5H51.9711C52.786 80.5 53.4465 79.8394 53.4465 79.0246V7.48787C53.4465 6.67302 52.786 6.01245 51.9711 6.01245Z" fill="#407BFF"/>
<path opacity="0.3" d="M51.5038 13.4412H1.93945V77.714H51.5038V13.4412Z" fill="black"/>
<path d="M51.5956 8.74683H2.03125V75.7501H51.5956V8.74683Z" fill="white"/>
<path d="M45.8038 22.3453H7.6416V24.4065H45.8038V22.3453Z" fill="#E0E0E0"/>
<path d="M45.8038 69.7194H7.6416V71.7806H45.8038V69.7194Z" fill="#E0E0E0"/>
<path d="M45.8038 27.1906H7.6416V27.3891H45.8038V27.1906Z" fill="#263238"/>
<path d="M45.8038 30.3796H7.6416V30.5782H45.8038V30.3796Z" fill="#263238"/>
<path d="M45.8038 33.5707H7.6416V33.7693H45.8038V33.5707Z" fill="#263238"/>
<path d="M45.8038 36.3687H7.6416V36.5672H45.8038V36.3687Z" fill="#263238"/>
<path d="M35.319 43.2889H7.6416V43.4875H35.319V43.2889Z" fill="#263238"/>
<path d="M35.319 46.196H7.6416V46.3946H35.319V46.196Z" fill="#263238"/>
<path d="M44.0998 47.5345H38.8555V42.3H44.0998V47.5345ZM39.064 47.3359H43.9013V42.4986H39.054L39.064 47.3359Z" fill="#263238"/>
<path d="M42.1195 46.9169L39.3633 44.8637L40.0782 43.9025L41.9269 45.2787L44.4667 42.2484L45.3861 43.0189L42.1195 46.9169Z" fill="#407BFF"/>
<path d="M35.319 52.3301H7.6416V52.5287H35.319V52.3301Z" fill="#263238"/>
<path d="M35.319 55.2393H7.6416V55.4378H35.319V55.2393Z" fill="#263238"/>
<path d="M44.0998 56.5756H38.8555V51.3412H44.0998V56.5756ZM39.064 56.3771H43.9013V51.5398H39.054L39.064 56.3771Z" fill="#263238"/>
<path d="M42.1195 55.9581L39.3633 53.9068L40.0782 52.9437L41.9269 54.3198L44.4667 51.2896L45.3861 52.06L42.1195 55.9581Z" fill="#407BFF"/>
<path d="M35.319 61.3733H7.6416V61.5719H35.319V61.3733Z" fill="#263238"/>
<path d="M35.319 64.2804H7.6416V64.479H35.319V64.2804Z" fill="#263238"/>
<path d="M44.0998 65.6187H38.8555V60.3843H44.0998V65.6187ZM39.064 65.4201H43.9013V60.5829H39.054L39.064 65.4201Z" fill="#263238"/>
<path d="M42.1195 65.0013L39.3633 62.948L40.0782 61.9869L41.9269 63.363L44.4667 60.3328L45.3861 61.1032L42.1195 65.0013Z" fill="#407BFF"/>
<path d="M15.8288 15.137V17.5775H15.1914V15.137H15.8288Z" fill="#263238"/>
<path d="M18.227 16.384V17.5755H17.6114V16.5667C17.6163 16.5223 17.6115 16.4774 17.5975 16.4351C17.5836 16.3927 17.5606 16.3538 17.5303 16.3211C17.5 16.2883 17.463 16.2624 17.4219 16.2452C17.3807 16.228 17.3363 16.2198 17.2917 16.2212C17.1954 16.2211 17.103 16.2587 17.034 16.3258C16.965 16.393 16.9249 16.4844 16.9224 16.5806V17.5735H16.2988V15.691H16.9184V15.9968C16.983 15.8908 17.075 15.8042 17.1848 15.7461C17.2945 15.6881 17.4179 15.6608 17.5419 15.6672C17.6358 15.6628 17.7295 15.6786 17.8167 15.7135C17.904 15.7484 17.9827 15.8017 18.0477 15.8696C18.1126 15.9375 18.1622 16.0186 18.1931 16.1074C18.2241 16.1961 18.2356 16.2904 18.227 16.384Z" fill="#263238"/>
<path d="M19.3076 16.0921C19.2023 16.0921 19.1289 16.1299 19.1289 16.2113C19.1289 16.4575 20.1217 16.3404 20.1217 16.9937C20.1217 17.3908 19.7822 17.5993 19.3274 17.5993C19.0224 17.6057 18.7237 17.5115 18.4775 17.3313L18.6761 16.9341C18.8717 17.0753 19.1043 17.1561 19.3453 17.1664C19.4605 17.1664 19.5439 17.1287 19.5439 17.0513C19.5439 16.7951 18.5729 16.9222 18.5729 16.2728C18.5729 15.8757 18.9025 15.6632 19.3453 15.6632C19.625 15.6622 19.8997 15.7377 20.1396 15.8817L19.9291 16.2788C19.7393 16.169 19.5265 16.1051 19.3076 16.0921Z" fill="#263238"/>
<path d="M22.2876 15.689V17.5715H21.6601V17.2657C21.6002 17.3699 21.5132 17.456 21.4083 17.5147C21.3034 17.5735 21.1845 17.6027 21.0644 17.5993C20.9711 17.6023 20.8783 17.5854 20.7921 17.5496C20.7059 17.5137 20.6284 17.4598 20.5648 17.3915C20.5012 17.3232 20.453 17.2421 20.4234 17.1536C20.3938 17.0651 20.3835 16.9713 20.3932 16.8785V15.687H21.0127V16.6997C21.007 16.7426 21.0106 16.7861 21.0232 16.8275C21.0358 16.8688 21.0572 16.907 21.0858 16.9393C21.1144 16.9717 21.1496 16.9976 21.1891 17.0152C21.2286 17.0328 21.2714 17.0417 21.3146 17.0413C21.535 17.0413 21.668 16.8626 21.668 16.6163V15.687L22.2876 15.689Z" fill="#263238"/>
<path d="M23.9858 15.6652V16.2312C23.6423 16.1974 23.4119 16.3503 23.3901 16.6104V17.5716H22.7705V15.6891H23.3901V16.0028C23.4504 15.8987 23.5374 15.8125 23.6421 15.7532C23.7468 15.6938 23.8654 15.6635 23.9858 15.6652Z" fill="#263238"/>
<path d="M25.8805 16.3463V17.5715H25.2709V17.359C25.2023 17.441 25.1152 17.5056 25.0168 17.5473C24.9185 17.5891 24.8116 17.6069 24.7049 17.5993C24.3078 17.5993 24.0596 17.3571 24.0596 17.0036C24.0596 16.6501 24.3137 16.4396 24.7804 16.4317H25.2709V16.4118C25.2709 16.2351 25.1498 16.1299 24.9134 16.1299C24.717 16.1386 24.5247 16.1894 24.3495 16.2788L24.1787 15.8618C24.4531 15.7319 24.7528 15.6641 25.0564 15.6632C25.5747 15.6652 25.8765 15.9154 25.8805 16.3463ZM25.2709 16.942V16.7792H24.9015C24.7288 16.7792 24.6414 16.8427 24.6414 16.9778C24.6414 17.1128 24.7347 17.1903 24.8956 17.1903C24.9777 17.1955 25.0593 17.1731 25.1273 17.1267C25.1953 17.0803 25.2458 17.0125 25.2709 16.9341V16.942Z" fill="#263238"/>
<path d="M28.2238 16.384V17.5755H27.6182V16.5667C27.623 16.5223 27.6183 16.4774 27.6043 16.4351C27.5903 16.3927 27.5674 16.3538 27.5371 16.3211C27.5068 16.2883 27.4698 16.2624 27.4286 16.2452C27.3875 16.228 27.3431 16.2198 27.2985 16.2212C27.2022 16.2211 27.1097 16.2587 27.0408 16.3258C26.9718 16.393 26.9317 16.4844 26.9291 16.5806V17.5735H26.3096V15.691H26.9291V15.9968C26.9937 15.8908 27.0858 15.8042 27.1955 15.7461C27.3053 15.6881 27.4287 15.6608 27.5527 15.6672C27.6454 15.6648 27.7376 15.6821 27.8231 15.7179C27.9087 15.7538 27.9857 15.8073 28.0491 15.875C28.1125 15.9427 28.1608 16.0231 28.1909 16.1108C28.2211 16.1985 28.2323 16.2916 28.2238 16.384Z" fill="#263238"/>
<path d="M29.49 16.1794C29.2676 16.1794 29.1147 16.3641 29.1147 16.6362C29.1147 16.9082 29.2676 17.0909 29.49 17.0909C29.5657 17.096 29.6412 17.0785 29.707 17.0407C29.7727 17.0029 29.8258 16.9464 29.8594 16.8784L30.3161 17.1405C30.2013 17.3174 30.0332 17.4531 29.8361 17.528C29.6389 17.6029 29.4231 17.6131 29.2198 17.5572C29.0165 17.5012 28.8363 17.382 28.7053 17.2167C28.5743 17.0515 28.4993 16.8488 28.4912 16.6381C28.4973 16.4279 28.5701 16.225 28.699 16.0587C28.8279 15.8924 29.0063 15.7714 29.2084 15.7131C29.4106 15.6548 29.626 15.6622 29.8236 15.7342C30.0213 15.8063 30.191 15.9392 30.3082 16.1139L29.8594 16.374C29.8192 16.3131 29.7643 16.2633 29.6997 16.2293C29.6352 16.1953 29.563 16.1781 29.49 16.1794Z" fill="#263238"/>
<path d="M32.3279 16.7951H31.0193C31.0407 16.8918 31.0953 16.978 31.1737 17.0386C31.2521 17.0992 31.3492 17.1304 31.4483 17.1267C31.5313 17.1249 31.6132 17.1064 31.6889 17.0723C31.7647 17.0382 31.8327 16.9891 31.8891 16.9281L32.2128 17.2538C32.1083 17.3653 31.9808 17.4529 31.8393 17.5104C31.6977 17.568 31.5453 17.5943 31.3927 17.5874C30.7751 17.5874 30.3998 17.2081 30.3998 16.6322C30.3928 16.5018 30.4135 16.3714 30.4605 16.2496C30.5076 16.1279 30.58 16.0174 30.6729 15.9257C30.7658 15.8339 30.8771 15.7629 30.9994 15.7173C31.1218 15.6717 31.2524 15.6526 31.3827 15.6612C32.036 15.6671 32.3696 16.11 32.3279 16.7951ZM31.7322 16.4654C31.7359 16.4181 31.7295 16.3706 31.7136 16.3259C31.6976 16.2812 31.6724 16.2404 31.6396 16.2061C31.6068 16.1718 31.5672 16.1448 31.5233 16.1269C31.4793 16.109 31.4321 16.1005 31.3847 16.102C31.2884 16.1065 31.1971 16.1458 31.1277 16.2127C31.0582 16.2796 31.0155 16.3694 31.0074 16.4654H31.7322Z" fill="#263238"/>
<path d="M35.7476 15.9889C35.7476 16.5627 35.3902 16.8963 34.7666 16.8963H34.3318V17.5715H33.6943V15.137H34.7666C35.3902 15.137 35.7476 15.4448 35.7476 15.9889ZM35.142 16.0087C35.142 15.7684 34.993 15.6394 34.7349 15.6394H34.3377V16.388H34.7349C34.7878 16.3959 34.8417 16.3918 34.8928 16.376C34.9439 16.3601 34.9908 16.333 35.0299 16.2965C35.069 16.2601 35.0994 16.2153 35.1188 16.1654C35.1382 16.1156 35.1461 16.062 35.142 16.0087Z" fill="#263238"/>
<path d="M37.9654 16.6283C37.9654 17.2102 37.5544 17.5934 36.9348 17.5934C36.3153 17.5934 35.9082 17.2102 35.9082 16.6283C35.9082 16.0465 36.3153 15.6672 36.9348 15.6672C37.5544 15.6672 37.9654 16.0505 37.9654 16.6283ZM36.5317 16.6283C36.5428 16.7063 36.5762 16.7795 36.6279 16.8389C36.6795 16.8984 36.7473 16.9417 36.8229 16.9636C36.8986 16.9855 36.979 16.9851 37.0544 16.9624C37.1299 16.9398 37.1972 16.8958 37.2482 16.8358C37.2993 16.7758 37.3319 16.7024 37.3422 16.6243C37.3526 16.5462 37.3401 16.4667 37.3064 16.3955C37.2727 16.3244 37.2191 16.2644 37.1521 16.2229C37.0852 16.1814 37.0076 16.1602 36.9289 16.1617C36.8705 16.1636 36.8132 16.1778 36.7607 16.2034C36.7081 16.229 36.6616 16.2653 36.6241 16.3101C36.5867 16.3549 36.559 16.4071 36.5431 16.4633C36.5272 16.5196 36.5233 16.5785 36.5317 16.6363V16.6283Z" fill="#263238"/>
<path d="M38.9204 14.988V17.5695H38.2988V14.988H38.9204Z" fill="#263238"/>
<path d="M40.0267 15.689V17.5715H39.4111V15.689H40.0267ZM40.0029 15.1588C40.0025 15.2145 39.9856 15.2688 39.9544 15.3149C39.9232 15.361 39.879 15.3968 39.8274 15.4179C39.7759 15.4389 39.7193 15.4442 39.6647 15.4331C39.6101 15.422 39.5601 15.395 39.5208 15.3555C39.4816 15.316 39.4549 15.2657 39.4442 15.2111C39.4335 15.1564 39.4392 15.0998 39.4606 15.0484C39.482 14.997 39.5181 14.9531 39.5645 14.9222C39.6108 14.8913 39.6652 14.8748 39.7209 14.8748C39.7585 14.8734 39.7959 14.8798 39.8309 14.8936C39.8659 14.9074 39.8976 14.9283 39.9241 14.955C39.9506 14.9817 39.9713 15.0136 39.9849 15.0486C39.9984 15.0837 40.0046 15.1212 40.0029 15.1588Z" fill="#263238"/>
<path d="M41.3471 16.1795C41.1227 16.1795 40.9698 16.3642 40.9698 16.6362C40.9698 16.9083 41.1227 17.091 41.3471 17.091C41.4225 17.0957 41.4975 17.078 41.5629 17.0402C41.6282 17.0024 41.681 16.9462 41.7145 16.8785L42.1712 17.1406C42.0564 17.3175 41.8882 17.4532 41.6911 17.5281C41.494 17.603 41.2782 17.6132 41.0749 17.5572C40.8716 17.5013 40.6914 17.382 40.5604 17.2168C40.4294 17.0516 40.3544 16.8489 40.3463 16.6382C40.3387 16.5084 40.3588 16.3784 40.4052 16.2569C40.4516 16.1354 40.5232 16.0251 40.6153 15.9334C40.7075 15.8416 40.8181 15.7704 40.9398 15.7245C41.0614 15.6786 41.1915 15.6591 41.3213 15.6672C41.4892 15.6588 41.6562 15.6958 41.8047 15.7745C41.9533 15.8531 42.0778 15.9704 42.1652 16.114L41.7164 16.3741C41.6764 16.313 41.6215 16.2631 41.5569 16.2291C41.4923 16.1951 41.4201 16.178 41.3471 16.1795Z" fill="#263238"/>
<path d="M42.7357 18.2745C42.5327 18.2763 42.3356 18.206 42.1797 18.0759L42.4359 17.649C42.5041 17.7136 42.5941 17.7504 42.688 17.7522C42.7358 17.7538 42.7828 17.741 42.8232 17.7155C42.8636 17.69 42.8953 17.653 42.9144 17.6093L42.9581 17.5239L42.1797 15.6851H42.8171L43.2659 16.9242L43.663 15.699H44.2806L43.4724 17.7661C43.4222 17.9198 43.3229 18.0528 43.1898 18.1446C43.0567 18.2364 42.8972 18.282 42.7357 18.2745Z" fill="#263238"/>
<path d="M12.1354 14.0588H8.52328C8.03634 14.0588 7.6416 14.4536 7.6416 14.9405V18.5526C7.6416 19.0395 8.03634 19.4343 8.52328 19.4343H12.1354C12.6223 19.4343 13.017 19.0395 13.017 18.5526V14.9405C13.017 14.4536 12.6223 14.0588 12.1354 14.0588Z" fill="#407BFF"/>
<path d="M10.3304 16.6502C10.7669 16.6502 11.1207 16.2964 11.1207 15.8599C11.1207 15.4234 10.7669 15.0696 10.3304 15.0696C9.89388 15.0696 9.54004 15.4234 9.54004 15.8599C9.54004 16.2964 9.89388 16.6502 10.3304 16.6502Z" fill="white"/>
<path d="M10.3301 16.819C9.90436 16.8195 9.49626 16.989 9.19541 17.2902C8.89457 17.5914 8.72559 17.9997 8.72559 18.4254H11.9306C11.9306 18.0004 11.7622 17.5927 11.4622 17.2916C11.1622 16.9905 10.7551 16.8205 10.3301 16.819Z" fill="white"/>
<path d="M35.1995 4.72363H18.2451V11.1178H35.1995V4.72363Z" fill="#263238"/>
<path d="M32.0892 5.36906H22.1764L21.0703 0.5H33.4475L32.0892 5.36906Z" fill="#263238"/>
<path opacity="0.3" d="M32.4349 0.5C32.4249 0.529786 31.1143 4.67008 31.1481 4.67008H32.272L33.4635 0.5H32.4349Z" fill="black"/>
<path opacity="0.3" d="M34.1055 4.72363C34.1055 4.72363 34.0241 11.1178 34.1055 11.1178H35.1997V4.72363H34.1055Z" fill="black"/>
</svg>
