<svg width="61" height="32" viewBox="0 0 61 32" fill="none" xmlns="http://www.w3.org/2000/svg">
<path d="M58.6069 17.0102C59.3559 17.1414 59.8292 17.8182 59.6421 18.7096L59.6404 18.7175L59.639 18.7254L58.3263 26.1631L58.3235 26.1789L58.3217 26.1949C58.2923 26.4601 58.0482 26.6873 57.6939 26.6873H54.7564H54.3681L54.2719 27.0634C53.6382 29.5412 51.2041 31.5 48.6938 31.5C46.3111 31.5 44.6554 29.6385 44.879 27.2336L44.9298 26.6873H44.3811H17.1933H16.8051L16.7089 27.0634C16.0759 29.5383 13.5811 31.5 11.1308 31.5C8.74806 31.5 7.09241 29.6385 7.31597 27.2336L7.36675 26.6873H6.81811H4.38059C4.01547 26.6873 3.67666 26.2923 3.74773 25.9019L3.74827 25.8987L4.37346 22.336L4.3762 22.3204L4.37794 22.3046C4.40734 22.0394 4.65144 21.8122 5.00577 21.8122H34.8811C35.697 21.8122 36.3222 21.2554 36.4939 20.4835L36.4961 20.4737L36.4979 20.4639L38.7479 8.02628L38.751 8.0094L38.7529 7.99235C38.7823 7.72714 39.0264 7.49994 39.3807 7.49994H46.1932C47.9521 7.49994 49.3105 8.39792 49.8517 9.80452L49.8528 9.80736L52.2279 15.8699L52.3348 16.1427L52.6249 16.1828L58.5001 16.9955L58.6069 17.0102ZM40.1387 15.4123L40.0338 16.0002L40.6309 16.0002L48.8185 16.0002L49.555 16.0002L49.2832 15.3156L47.5955 11.0658L47.5951 11.0648C47.2595 10.2248 46.4321 9.75022 45.5683 9.75022H41.5683H41.1496L41.076 10.1623L40.1387 15.4123ZM52.8743 26.8324L52.3811 26.7503L52.8743 26.8324C53.0196 25.9595 52.8236 25.1246 52.3267 24.501C51.8264 23.8732 51.053 23.5001 50.131 23.5001C48.3245 23.5001 46.6834 24.9245 46.3893 26.6582C46.2084 27.5402 46.4081 28.3798 46.9147 29.0033C47.4235 29.6295 48.2116 30.0004 49.1309 30.0004C50.9409 30.0004 52.5848 28.5706 52.8743 26.8324ZM11.568 30.0004C13.3746 30.0004 15.0157 28.5761 15.3097 26.8423C15.6816 25.0268 14.3724 23.5001 12.5681 23.5001C10.7616 23.5001 9.12052 24.9245 8.82645 26.6582C8.45402 28.4738 9.76352 30.0004 11.568 30.0004Z" stroke="white"/>
<path d="M34.1379 18.6006L34.399 18.6468L34.1333 18.632C34.116 18.7872 34.0407 18.9013 33.9596 18.9584C33.8926 19.0056 33.7904 19.038 33.6284 18.9732L33.539 18.9374H33.4426H2.75479C1.96851 18.9374 1.31738 18.2862 1.31738 17.5C1.31738 16.7137 1.96846 16.0626 2.75475 16.0625C2.75476 16.0625 2.75478 16.0625 2.75479 16.0625L8.00469 16.063L8.01949 16.063L8.03426 16.0621C9.34381 15.9847 10.4421 14.9066 10.4421 13.5627C10.4421 12.2242 9.34337 11.1254 8.0048 11.1253C8.00478 11.1253 8.00476 11.1253 8.00474 11.1253L4.7551 11.1249H4.75504C3.96876 11.1249 3.31763 10.4738 3.31763 9.68748C3.31763 8.9012 3.96873 8.25007 4.75504 8.25007H4.75508L10.0054 8.24964C10.0054 8.24964 10.0055 8.24964 10.0055 8.24964C11.344 8.24962 12.4428 7.15082 12.4428 5.81223C12.4428 4.47367 11.344 3.37482 10.0054 3.37482H6.75528C5.969 3.37482 5.31787 2.72372 5.31787 1.93741C5.31787 1.15112 5.96897 0.5 6.75528 0.5H36.5681C36.9332 0.5 37.272 0.895017 37.201 1.28549L37.2005 1.28792L34.1379 18.6006Z" stroke="white"/>
</svg>
