<svg width="61" height="32" viewBox="0 0 61 32" fill="none" xmlns="http://www.w3.org/2000/svg">
<path d="M58.5686 16.5002L52.6935 15.6875L50.3183 9.62497C49.6931 8.00006 48.1306 6.99994 46.1932 6.99994H39.3807C38.8183 6.99994 38.3182 7.37488 38.2559 7.93727L36.0059 20.3749C35.8808 20.9373 35.4435 21.3122 34.8811 21.3122H5.00577C4.44337 21.3122 3.94332 21.6872 3.88098 22.2496L3.2558 25.8123C3.13067 26.4999 3.69352 27.1873 4.38059 27.1873H6.81811C6.5683 29.8747 8.44302 32 11.1308 32C13.8181 32 16.5058 29.8751 17.1933 27.1873H44.3811C44.1313 29.8747 46.006 32 48.6938 32C51.4439 32 54.0688 29.8751 54.7564 27.1873H57.6939C58.2563 27.1873 58.7563 26.8124 58.8187 26.25L60.1314 18.8123C60.3808 17.6247 59.6933 16.625 58.5684 16.4999L58.5686 16.5002ZM14.8182 26.7503C14.5683 28.2504 13.1305 29.5004 11.568 29.5004C10.0679 29.5004 9.00537 28.2505 9.31798 26.7503C9.5678 25.2502 11.0056 24.0001 12.5681 24.0001C14.0679 24.0001 15.1303 25.25 14.8182 26.7503ZM40.6309 15.5002L41.5683 10.2502H45.5683C46.2558 10.2502 46.881 10.6252 47.1308 11.2503L48.8185 15.5002L40.6309 15.5002ZM52.3811 26.7503C52.1312 28.2504 50.6934 29.5004 49.1309 29.5004C47.5684 29.5004 46.5683 28.2505 46.8809 26.7503C47.1307 25.2502 48.5685 24.0001 50.131 24.0001C51.6936 24.0001 52.6308 25.25 52.3811 26.7503Z" fill="#2F63F1"/>
<path d="M34.6302 18.6877L37.6929 1.37502C37.818 0.687486 37.2552 0 36.5681 0H6.75528C5.69283 0 4.81787 0.874986 4.81787 1.93741C4.81787 2.99986 5.69286 3.87482 6.75528 3.87482H10.0054C11.0679 3.87482 11.9428 4.74981 11.9428 5.81223C11.9428 6.87468 11.0678 7.74964 10.0054 7.74964L4.75504 7.75007C3.69258 7.75007 2.81763 8.62506 2.81763 9.68748C2.81763 10.7499 3.69261 11.6249 4.75504 11.6249L8.00474 11.6253C9.06719 11.6253 9.94215 12.5003 9.94215 13.5627C9.94215 14.6252 9.06716 15.5001 8.00474 15.563L2.75479 15.5625C1.69234 15.5625 0.817383 16.4375 0.817383 17.5C0.817383 18.5624 1.69237 19.4374 2.75479 19.4374H33.4426C34.0678 19.6876 34.5674 19.2503 34.6302 18.6875V18.6877Z" fill="#2F63F1"/>
</svg>
